<svg xmlns="http://www.w3.org/2000/svg" xmlns:xlink="http://www.w3.org/1999/xlink" contentStyleType="text/css" height="392px" preserveAspectRatio="none" style="width:471px;height:392px;background:#24273A;" version="1.1" viewBox="0 0 471 392" width="471px" zoomAndPan="magnify"><defs/><g><rect fill="#24273A" height="392" style="stroke:none;stroke-width:1.0;" width="471" x="0" y="0"/><line style="stroke:#F0C6C6;stroke-width:0.5;" x1="10" x2="10" y1="10" y2="363.1875"/><line style="stroke:#F0C6C6;stroke-width:0.5;" x1="454.4883" x2="454.4883" y1="10" y2="363.1875"/><line style="stroke:#F0C6C6;stroke-width:0.5;stroke-dasharray:3.0,5.0;" x1="99.4883" x2="99.4883" y1="10" y2="363.1875"/><line style="stroke:#F0C6C6;stroke-width:0.5;stroke-dasharray:3.0,5.0;" x1="149.4883" x2="149.4883" y1="10" y2="363.1875"/><line style="stroke:#F0C6C6;stroke-width:0.5;stroke-dasharray:3.0,5.0;" x1="199.4883" x2="199.4883" y1="10" y2="363.1875"/><line style="stroke:#F0C6C6;stroke-width:0.5;stroke-dasharray:3.0,5.0;" x1="249.4883" x2="249.4883" y1="10" y2="363.1875"/><line style="stroke:#F0C6C6;stroke-width:0.5;stroke-dasharray:3.0,5.0;" x1="299.4883" x2="299.4883" y1="10" y2="363.1875"/><line style="stroke:#F0C6C6;stroke-width:0.5;stroke-dasharray:3.0,5.0;" x1="349.4883" x2="349.4883" y1="10" y2="363.1875"/><line style="stroke:#F0C6C6;stroke-width:0.5;stroke-dasharray:3.0,5.0;" x1="399.4883" x2="399.4883" y1="10" y2="363.1875"/><line style="stroke:#F0C6C6;stroke-width:0.5;stroke-dasharray:3.0,5.0;" x1="449.4883" x2="449.4883" y1="10" y2="363.1875"/><line style="stroke:#F0C6C6;stroke-width:0.5;" x1="10" x2="454.4883" y1="10" y2="10"/><text fill="#EE99A0" font-family="sans-serif" font-size="14" font-weight="bold" lengthAdjust="spacing" textLength="59.042" x="15" y="22.9951">Clock_0</text><line style="stroke:#F0C6C6;stroke-width:0.5;" x1="10" x2="75.042" y1="27.2969" y2="27.2969"/><line style="stroke:#F0C6C6;stroke-width:0.5;" x1="75.042" x2="85.042" y1="27.2969" y2="10"/><line style="stroke:#8BD5CA;stroke-width:1.5;" x1="99.4883" x2="99.4883" y1="34.2969" y2="48.2969"/><line style="stroke:#8BD5CA;stroke-width:1.5;" x1="99.4883" x2="124.4883" y1="34.2969" y2="34.2969"/><line style="stroke:#8BD5CA;stroke-width:1.5;" x1="124.4883" x2="124.4883" y1="34.2969" y2="48.2969"/><line style="stroke:#8BD5CA;stroke-width:1.5;" x1="124.4883" x2="149.4883" y1="48.2969" y2="48.2969"/><line style="stroke:#8BD5CA;stroke-width:1.5;" x1="149.4883" x2="149.4883" y1="34.2969" y2="48.2969"/><line style="stroke:#8BD5CA;stroke-width:1.5;" x1="149.4883" x2="174.4883" y1="34.2969" y2="34.2969"/><line style="stroke:#8BD5CA;stroke-width:1.5;" x1="174.4883" x2="174.4883" y1="34.2969" y2="48.2969"/><line style="stroke:#8BD5CA;stroke-width:1.5;" x1="174.4883" x2="199.4883" y1="48.2969" y2="48.2969"/><line style="stroke:#8BD5CA;stroke-width:1.5;" x1="199.4883" x2="199.4883" y1="34.2969" y2="48.2969"/><line style="stroke:#8BD5CA;stroke-width:1.5;" x1="199.4883" x2="224.4883" y1="34.2969" y2="34.2969"/><line style="stroke:#8BD5CA;stroke-width:1.5;" x1="224.4883" x2="224.4883" y1="34.2969" y2="48.2969"/><line style="stroke:#8BD5CA;stroke-width:1.5;" x1="224.4883" x2="249.4883" y1="48.2969" y2="48.2969"/><line style="stroke:#8BD5CA;stroke-width:1.5;" x1="249.4883" x2="249.4883" y1="34.2969" y2="48.2969"/><line style="stroke:#8BD5CA;stroke-width:1.5;" x1="249.4883" x2="274.4883" y1="34.2969" y2="34.2969"/><line style="stroke:#8BD5CA;stroke-width:1.5;" x1="274.4883" x2="274.4883" y1="34.2969" y2="48.2969"/><line style="stroke:#8BD5CA;stroke-width:1.5;" x1="274.4883" x2="299.4883" y1="48.2969" y2="48.2969"/><line style="stroke:#8BD5CA;stroke-width:1.5;" x1="299.4883" x2="299.4883" y1="34.2969" y2="48.2969"/><line style="stroke:#8BD5CA;stroke-width:1.5;" x1="299.4883" x2="324.4883" y1="34.2969" y2="34.2969"/><line style="stroke:#8BD5CA;stroke-width:1.5;" x1="324.4883" x2="324.4883" y1="34.2969" y2="48.2969"/><line style="stroke:#8BD5CA;stroke-width:1.5;" x1="324.4883" x2="349.4883" y1="48.2969" y2="48.2969"/><line style="stroke:#8BD5CA;stroke-width:1.5;" x1="349.4883" x2="349.4883" y1="34.2969" y2="48.2969"/><line style="stroke:#8BD5CA;stroke-width:1.5;" x1="349.4883" x2="374.4883" y1="34.2969" y2="34.2969"/><line style="stroke:#8BD5CA;stroke-width:1.5;" x1="374.4883" x2="374.4883" y1="34.2969" y2="48.2969"/><line style="stroke:#8BD5CA;stroke-width:1.5;" x1="374.4883" x2="399.4883" y1="48.2969" y2="48.2969"/><line style="stroke:#8BD5CA;stroke-width:1.5;" x1="399.4883" x2="399.4883" y1="34.2969" y2="48.2969"/><line style="stroke:#8BD5CA;stroke-width:1.5;" x1="399.4883" x2="424.4883" y1="34.2969" y2="34.2969"/><line style="stroke:#8BD5CA;stroke-width:1.5;" x1="424.4883" x2="424.4883" y1="34.2969" y2="48.2969"/><line style="stroke:#8BD5CA;stroke-width:1.5;" x1="424.4883" x2="449.4883" y1="48.2969" y2="48.2969"/><line style="stroke:#8BD5CA;stroke-width:1.5;" x1="449.4883" x2="449.4883" y1="34.2969" y2="48.2969"/><line style="stroke:#8BD5CA;stroke-width:1.5;" x1="449.4883" x2="449.4883" y1="34.2969" y2="34.2969"/><line style="stroke:#F0C6C6;stroke-width:0.5;" x1="10" x2="454.4883" y1="56.2969" y2="56.2969"/><text fill="#EE99A0" font-family="sans-serif" font-size="14" font-weight="bold" lengthAdjust="spacing" textLength="59.042" x="15" y="69.292">Clock_1</text><line style="stroke:#F0C6C6;stroke-width:0.5;" x1="10" x2="75.042" y1="73.5938" y2="73.5938"/><line style="stroke:#F0C6C6;stroke-width:0.5;" x1="75.042" x2="85.042" y1="73.5938" y2="56.2969"/><line style="stroke:#8BD5CA;stroke-width:1.5;" x1="99.4883" x2="109.4883" y1="94.5938" y2="94.5938"/><line style="stroke:#8BD5CA;stroke-width:1.5;" x1="109.4883" x2="109.4883" y1="80.5938" y2="94.5938"/><line style="stroke:#8BD5CA;stroke-width:1.5;" x1="109.4883" x2="124.4883" y1="80.5938" y2="80.5938"/><line style="stroke:#8BD5CA;stroke-width:1.5;" x1="124.4883" x2="124.4883" y1="80.5938" y2="94.5938"/><line style="stroke:#8BD5CA;stroke-width:1.5;" x1="124.4883" x2="159.4883" y1="94.5938" y2="94.5938"/><line style="stroke:#8BD5CA;stroke-width:1.5;" x1="159.4883" x2="159.4883" y1="80.5938" y2="94.5938"/><line style="stroke:#8BD5CA;stroke-width:1.5;" x1="159.4883" x2="174.4883" y1="80.5938" y2="80.5938"/><line style="stroke:#8BD5CA;stroke-width:1.5;" x1="174.4883" x2="174.4883" y1="80.5938" y2="94.5938"/><line style="stroke:#8BD5CA;stroke-width:1.5;" x1="174.4883" x2="209.4883" y1="94.5938" y2="94.5938"/><line style="stroke:#8BD5CA;stroke-width:1.5;" x1="209.4883" x2="209.4883" y1="80.5938" y2="94.5938"/><line style="stroke:#8BD5CA;stroke-width:1.5;" x1="209.4883" x2="224.4883" y1="80.5938" y2="80.5938"/><line style="stroke:#8BD5CA;stroke-width:1.5;" x1="224.4883" x2="224.4883" y1="80.5938" y2="94.5938"/><line style="stroke:#8BD5CA;stroke-width:1.5;" x1="224.4883" x2="259.4883" y1="94.5938" y2="94.5938"/><line style="stroke:#8BD5CA;stroke-width:1.5;" x1="259.4883" x2="259.4883" y1="80.5938" y2="94.5938"/><line style="stroke:#8BD5CA;stroke-width:1.5;" x1="259.4883" x2="274.4883" y1="80.5938" y2="80.5938"/><line style="stroke:#8BD5CA;stroke-width:1.5;" x1="274.4883" x2="274.4883" y1="80.5938" y2="94.5938"/><line style="stroke:#8BD5CA;stroke-width:1.5;" x1="274.4883" x2="309.4883" y1="94.5938" y2="94.5938"/><line style="stroke:#8BD5CA;stroke-width:1.5;" x1="309.4883" x2="309.4883" y1="80.5938" y2="94.5938"/><line style="stroke:#8BD5CA;stroke-width:1.5;" x1="309.4883" x2="324.4883" y1="80.5938" y2="80.5938"/><line style="stroke:#8BD5CA;stroke-width:1.5;" x1="324.4883" x2="324.4883" y1="80.5938" y2="94.5938"/><line style="stroke:#8BD5CA;stroke-width:1.5;" x1="324.4883" x2="359.4883" y1="94.5938" y2="94.5938"/><line style="stroke:#8BD5CA;stroke-width:1.5;" x1="359.4883" x2="359.4883" y1="80.5938" y2="94.5938"/><line style="stroke:#8BD5CA;stroke-width:1.5;" x1="359.4883" x2="374.4883" y1="80.5938" y2="80.5938"/><line style="stroke:#8BD5CA;stroke-width:1.5;" x1="374.4883" x2="374.4883" y1="80.5938" y2="94.5938"/><line style="stroke:#8BD5CA;stroke-width:1.5;" x1="374.4883" x2="409.4883" y1="94.5938" y2="94.5938"/><line style="stroke:#8BD5CA;stroke-width:1.5;" x1="409.4883" x2="409.4883" y1="80.5938" y2="94.5938"/><line style="stroke:#8BD5CA;stroke-width:1.5;" x1="409.4883" x2="424.4883" y1="80.5938" y2="80.5938"/><line style="stroke:#8BD5CA;stroke-width:1.5;" x1="424.4883" x2="424.4883" y1="80.5938" y2="94.5938"/><line style="stroke:#8BD5CA;stroke-width:1.5;" x1="424.4883" x2="449.4883" y1="94.5938" y2="94.5938"/><line style="stroke:#F0C6C6;stroke-width:0.5;" x1="10" x2="454.4883" y1="102.5938" y2="102.5938"/><text fill="#EE99A0" font-family="sans-serif" font-size="14" font-weight="bold" lengthAdjust="spacing" textLength="50.9141" x="15" y="122.4404">Binary</text><line style="stroke:#8BD5CA;stroke-width:2.0;" x1="99.4883" x2="199.4883" y1="124.5938" y2="124.5938"/><line style="stroke:#8BD5CA;stroke-width:2.0;" x1="199.4883" x2="199.4883" y1="110.5938" y2="124.5938"/><line style="stroke:#8BD5CA;stroke-width:2.0;" x1="199.4883" x2="449.4883" y1="110.5938" y2="110.5938"/><line style="stroke:#F0C6C6;stroke-width:0.5;" x1="10" x2="454.4883" y1="132.5938" y2="132.5938"/><text fill="#EE99A0" font-family="sans-serif" font-size="14" font-weight="bold" lengthAdjust="spacing" textLength="60.7852" x="15" y="145.5889">Concise</text><line style="stroke:#F0C6C6;stroke-width:0.5;" x1="10" x2="76.7852" y1="149.8906" y2="149.8906"/><line style="stroke:#F0C6C6;stroke-width:0.5;" x1="76.7852" x2="86.7852" y1="149.8906" y2="132.5938"/><polygon fill="#181926" points="111.4883,154.8906,187.4883,154.8906,199.4883,166.8906,187.4883,178.8906,111.4883,178.8906,99.4883,166.8906" style="stroke:#6E738D;stroke-width:1.5;"/><polygon fill="#181926" points="211.4883,154.8906,449.4883,154.8906,449.4883,178.8906,211.4883,178.8906,199.4883,166.8906" style="stroke:#181926;stroke-width:1.5;"/><path d="M449.4883,154.8906 L211.4883,154.8906 L199.4883,166.8906 L211.4883,178.8906 L449.4883,178.8906 " fill="#181926" style="stroke:#6E738D;stroke-width:1.5;"/><text fill="#EE99A0" font-family="sans-serif" font-size="12" font-weight="bold" lengthAdjust="spacing" textLength="25.3066" x="136.835" y="171.0449">Idle</text><text fill="#EE99A0" font-family="sans-serif" font-size="12" font-weight="bold" lengthAdjust="spacing" textLength="52.4297" x="211.4883" y="171.0449">Waiting</text><line style="stroke:#F0C6C6;stroke-width:0.5;" x1="10" x2="454.4883" y1="188.8906" y2="188.8906"/><text fill="#EE99A0" font-family="sans-serif" font-size="14" font-weight="bold" lengthAdjust="spacing" textLength="55.4121" x="15" y="201.8857">Robust</text><line style="stroke:#F0C6C6;stroke-width:0.5;" x1="10" x2="71.4121" y1="206.1875" y2="206.1875"/><line style="stroke:#F0C6C6;stroke-width:0.5;" x1="71.4121" x2="81.4121" y1="206.1875" y2="188.8906"/><text fill="#EE99A0" font-family="sans-serif" font-size="12" lengthAdjust="spacing" textLength="21.873" x="29.9355" y="256.3418">Idle</text><text fill="#EE99A0" font-family="sans-serif" font-size="12" lengthAdjust="spacing" textLength="64.5527" x="29.9355" y="236.3418">Processing</text><text fill="#EE99A0" font-family="sans-serif" font-size="12" lengthAdjust="spacing" textLength="45.8145" x="29.9355" y="216.3418">Waiting</text><line style="stroke:#8BD5CA;stroke-width:2.0;" x1="99.4883" x2="199.4883" y1="251.1875" y2="251.1875"/><line style="stroke:#8BD5CA;stroke-width:2.0;" x1="199.4883" x2="399.4883" y1="231.1875" y2="231.1875"/><line style="stroke:#8BD5CA;stroke-width:2.0;" x1="399.4883" x2="449.4883" y1="211.1875" y2="211.1875"/><line style="stroke:#8BD5CA;stroke-width:2.0;" x1="199.4883" x2="199.4883" y1="231.1875" y2="251.1875"/><line style="stroke:#8BD5CA;stroke-width:2.0;" x1="399.4883" x2="399.4883" y1="211.1875" y2="231.1875"/><line style="stroke:#F0C6C6;stroke-width:0.5;" x1="10" x2="454.4883" y1="263.1875" y2="263.1875"/><text fill="#EE99A0" font-family="sans-serif" font-size="14" font-weight="bold" lengthAdjust="spacing" textLength="54.6875" x="15" y="318.0342">Analog</text><text fill="#EE99A0" font-family="sans-serif" font-size="14" font-weight="bold" lengthAdjust="spacing" textLength="24.8008" x="72.6875" y="360.0342">0.0</text><text fill="#EE99A0" font-family="sans-serif" font-size="14" font-weight="bold" lengthAdjust="spacing" textLength="24.8008" x="72.6875" y="276.0342">3.0</text><line style="stroke:#F0C6C6;stroke-width:0.5;" x1="99.4883" x2="99.4883" y1="355.1875" y2="355.1875"/><line style="stroke:#F0C6C6;stroke-width:0.5;" x1="99.4883" x2="199.4883" y1="355.1875" y2="271.1875"/><line style="stroke:#F0C6C6;stroke-width:0.5;" x1="199.4883" x2="399.4883" y1="271.1875" y2="327.1875"/><line style="stroke:#F0C6C6;stroke-width:0.5;" x1="399.4883" x2="449.4883" y1="327.1875" y2="327.1875"/><line style="stroke:#F0C6C6;stroke-width:2.0;" x1="99.4883" x2="99.4883" y1="363.1875" y2="368.1875"/><line style="stroke:#F0C6C6;stroke-width:2.0;" x1="149.4883" x2="149.4883" y1="363.1875" y2="368.1875"/><line style="stroke:#F0C6C6;stroke-width:2.0;" x1="199.4883" x2="199.4883" y1="363.1875" y2="368.1875"/><line style="stroke:#F0C6C6;stroke-width:2.0;" x1="249.4883" x2="249.4883" y1="363.1875" y2="368.1875"/><line style="stroke:#F0C6C6;stroke-width:2.0;" x1="299.4883" x2="299.4883" y1="363.1875" y2="368.1875"/><line style="stroke:#F0C6C6;stroke-width:2.0;" x1="349.4883" x2="349.4883" y1="363.1875" y2="368.1875"/><line style="stroke:#F0C6C6;stroke-width:2.0;" x1="399.4883" x2="399.4883" y1="363.1875" y2="368.1875"/><line style="stroke:#F0C6C6;stroke-width:2.0;" x1="449.4883" x2="449.4883" y1="363.1875" y2="368.1875"/><line style="stroke:#F0C6C6;stroke-width:2.0;" x1="99.4883" x2="449.4883" y1="363.1875" y2="363.1875"/><text fill="#EE99A0" font-family="sans-serif" font-size="11" lengthAdjust="spacing" textLength="6.9985" x="95.989" y="379.3979">0</text><text fill="#EE99A0" font-family="sans-serif" font-size="11" lengthAdjust="spacing" textLength="13.9971" x="142.4897" y="379.3979">50</text><text fill="#EE99A0" font-family="sans-serif" font-size="11" lengthAdjust="spacing" textLength="20.9956" x="188.9905" y="379.3979">100</text><text fill="#EE99A0" font-family="sans-serif" font-size="11" lengthAdjust="spacing" textLength="20.9956" x="388.9905" y="379.3979">300</text><!--SRC=[NO_1JiCm38RlUGhJ2xSbrRGB9xQU4492vS1nobAliPecLU8myVQagOOGftoslz-H7-4ZNn8JPqPWY-38Jn0y39Weuh3sPXGFv8tB0u9bNjAJb57VTYEnpPUSC9hW6JtlJ9Zb6qrMatkD-WivoNaQWadd9SzENb5pZYZhpdH_ZEPboSQGbxCsnfBci5jz8OmBPWA0fblXh9h2Ea6du5R-XWKZXG4Ewh_OtiNsdmXBTWcXFK2uNXCoj4fSoEluNRAd2arDdaIvoL1ncsw3fYuKCPIBkTXzXStkXVRQXR6qZnMszb48yQn41vJWPN0e-bywhgJAk5LAdDR2qcWtzLCJanyt-pq6WocjTStiIsPVClrViqxQ7m00]--></g></svg>
