<svg xmlns="http://www.w3.org/2000/svg" xmlns:xlink="http://www.w3.org/1999/xlink" contentStyleType="text/css" height="392px" preserveAspectRatio="none" style="width:462px;height:392px;background:#ECEFF4;" version="1.1" viewBox="0 0 462 392" width="462px" zoomAndPan="magnify"><defs/><g><rect fill="#ECEFF4" height="392" style="stroke:none;stroke-width:1.0;" width="462" x="0" y="0"/><line style="stroke:#4C566A;stroke-width:0.5;" x1="10" x2="10" y1="10" y2="363.1875"/><line style="stroke:#4C566A;stroke-width:0.5;" x1="445.6357" x2="445.6357" y1="10" y2="363.1875"/><line style="stroke:#4C566A;stroke-width:0.5;stroke-dasharray:3.0,5.0;" x1="90.6357" x2="90.6357" y1="10" y2="363.1875"/><line style="stroke:#4C566A;stroke-width:0.5;stroke-dasharray:3.0,5.0;" x1="140.6357" x2="140.6357" y1="10" y2="363.1875"/><line style="stroke:#4C566A;stroke-width:0.5;stroke-dasharray:3.0,5.0;" x1="190.6357" x2="190.6357" y1="10" y2="363.1875"/><line style="stroke:#4C566A;stroke-width:0.5;stroke-dasharray:3.0,5.0;" x1="240.6357" x2="240.6357" y1="10" y2="363.1875"/><line style="stroke:#4C566A;stroke-width:0.5;stroke-dasharray:3.0,5.0;" x1="290.6357" x2="290.6357" y1="10" y2="363.1875"/><line style="stroke:#4C566A;stroke-width:0.5;stroke-dasharray:3.0,5.0;" x1="340.6357" x2="340.6357" y1="10" y2="363.1875"/><line style="stroke:#4C566A;stroke-width:0.5;stroke-dasharray:3.0,5.0;" x1="390.6357" x2="390.6357" y1="10" y2="363.1875"/><line style="stroke:#4C566A;stroke-width:0.5;stroke-dasharray:3.0,5.0;" x1="440.6357" x2="440.6357" y1="10" y2="363.1875"/><line style="stroke:#4C566A;stroke-width:0.5;" x1="10" x2="445.6357" y1="10" y2="10"/><text fill="#3B4252" font-family="sans-serif" font-size="14" lengthAdjust="spacing" textLength="53.9424" x="15" y="22.9951">Clock_0</text><line style="stroke:#4C566A;stroke-width:0.5;" x1="10" x2="69.9424" y1="27.2969" y2="27.2969"/><line style="stroke:#4C566A;stroke-width:0.5;" x1="69.9424" x2="79.9424" y1="27.2969" y2="10"/><line style="stroke:#8FBCBB;stroke-width:1.5;" x1="90.6357" x2="90.6357" y1="34.2969" y2="48.2969"/><line style="stroke:#8FBCBB;stroke-width:1.5;" x1="90.6357" x2="115.6357" y1="34.2969" y2="34.2969"/><line style="stroke:#8FBCBB;stroke-width:1.5;" x1="115.6357" x2="115.6357" y1="34.2969" y2="48.2969"/><line style="stroke:#8FBCBB;stroke-width:1.5;" x1="115.6357" x2="140.6357" y1="48.2969" y2="48.2969"/><line style="stroke:#8FBCBB;stroke-width:1.5;" x1="140.6357" x2="140.6357" y1="34.2969" y2="48.2969"/><line style="stroke:#8FBCBB;stroke-width:1.5;" x1="140.6357" x2="165.6357" y1="34.2969" y2="34.2969"/><line style="stroke:#8FBCBB;stroke-width:1.5;" x1="165.6357" x2="165.6357" y1="34.2969" y2="48.2969"/><line style="stroke:#8FBCBB;stroke-width:1.5;" x1="165.6357" x2="190.6357" y1="48.2969" y2="48.2969"/><line style="stroke:#8FBCBB;stroke-width:1.5;" x1="190.6357" x2="190.6357" y1="34.2969" y2="48.2969"/><line style="stroke:#8FBCBB;stroke-width:1.5;" x1="190.6357" x2="215.6357" y1="34.2969" y2="34.2969"/><line style="stroke:#8FBCBB;stroke-width:1.5;" x1="215.6357" x2="215.6357" y1="34.2969" y2="48.2969"/><line style="stroke:#8FBCBB;stroke-width:1.5;" x1="215.6357" x2="240.6357" y1="48.2969" y2="48.2969"/><line style="stroke:#8FBCBB;stroke-width:1.5;" x1="240.6357" x2="240.6357" y1="34.2969" y2="48.2969"/><line style="stroke:#8FBCBB;stroke-width:1.5;" x1="240.6357" x2="265.6357" y1="34.2969" y2="34.2969"/><line style="stroke:#8FBCBB;stroke-width:1.5;" x1="265.6357" x2="265.6357" y1="34.2969" y2="48.2969"/><line style="stroke:#8FBCBB;stroke-width:1.5;" x1="265.6357" x2="290.6357" y1="48.2969" y2="48.2969"/><line style="stroke:#8FBCBB;stroke-width:1.5;" x1="290.6357" x2="290.6357" y1="34.2969" y2="48.2969"/><line style="stroke:#8FBCBB;stroke-width:1.5;" x1="290.6357" x2="315.6357" y1="34.2969" y2="34.2969"/><line style="stroke:#8FBCBB;stroke-width:1.5;" x1="315.6357" x2="315.6357" y1="34.2969" y2="48.2969"/><line style="stroke:#8FBCBB;stroke-width:1.5;" x1="315.6357" x2="340.6357" y1="48.2969" y2="48.2969"/><line style="stroke:#8FBCBB;stroke-width:1.5;" x1="340.6357" x2="340.6357" y1="34.2969" y2="48.2969"/><line style="stroke:#8FBCBB;stroke-width:1.5;" x1="340.6357" x2="365.6357" y1="34.2969" y2="34.2969"/><line style="stroke:#8FBCBB;stroke-width:1.5;" x1="365.6357" x2="365.6357" y1="34.2969" y2="48.2969"/><line style="stroke:#8FBCBB;stroke-width:1.5;" x1="365.6357" x2="390.6357" y1="48.2969" y2="48.2969"/><line style="stroke:#8FBCBB;stroke-width:1.5;" x1="390.6357" x2="390.6357" y1="34.2969" y2="48.2969"/><line style="stroke:#8FBCBB;stroke-width:1.5;" x1="390.6357" x2="415.6357" y1="34.2969" y2="34.2969"/><line style="stroke:#8FBCBB;stroke-width:1.5;" x1="415.6357" x2="415.6357" y1="34.2969" y2="48.2969"/><line style="stroke:#8FBCBB;stroke-width:1.5;" x1="415.6357" x2="440.6357" y1="48.2969" y2="48.2969"/><line style="stroke:#8FBCBB;stroke-width:1.5;" x1="440.6357" x2="440.6357" y1="34.2969" y2="48.2969"/><line style="stroke:#8FBCBB;stroke-width:1.5;" x1="440.6357" x2="440.6357" y1="34.2969" y2="34.2969"/><line style="stroke:#4C566A;stroke-width:0.5;" x1="10" x2="445.6357" y1="56.2969" y2="56.2969"/><text fill="#3B4252" font-family="sans-serif" font-size="14" lengthAdjust="spacing" textLength="53.9424" x="15" y="69.292">Clock_1</text><line style="stroke:#4C566A;stroke-width:0.5;" x1="10" x2="69.9424" y1="73.5938" y2="73.5938"/><line style="stroke:#4C566A;stroke-width:0.5;" x1="69.9424" x2="79.9424" y1="73.5938" y2="56.2969"/><line style="stroke:#8FBCBB;stroke-width:1.5;" x1="90.6357" x2="100.6357" y1="94.5938" y2="94.5938"/><line style="stroke:#8FBCBB;stroke-width:1.5;" x1="100.6357" x2="100.6357" y1="80.5938" y2="94.5938"/><line style="stroke:#8FBCBB;stroke-width:1.5;" x1="100.6357" x2="115.6357" y1="80.5938" y2="80.5938"/><line style="stroke:#8FBCBB;stroke-width:1.5;" x1="115.6357" x2="115.6357" y1="80.5938" y2="94.5938"/><line style="stroke:#8FBCBB;stroke-width:1.5;" x1="115.6357" x2="150.6357" y1="94.5938" y2="94.5938"/><line style="stroke:#8FBCBB;stroke-width:1.5;" x1="150.6357" x2="150.6357" y1="80.5938" y2="94.5938"/><line style="stroke:#8FBCBB;stroke-width:1.5;" x1="150.6357" x2="165.6357" y1="80.5938" y2="80.5938"/><line style="stroke:#8FBCBB;stroke-width:1.5;" x1="165.6357" x2="165.6357" y1="80.5938" y2="94.5938"/><line style="stroke:#8FBCBB;stroke-width:1.5;" x1="165.6357" x2="200.6357" y1="94.5938" y2="94.5938"/><line style="stroke:#8FBCBB;stroke-width:1.5;" x1="200.6357" x2="200.6357" y1="80.5938" y2="94.5938"/><line style="stroke:#8FBCBB;stroke-width:1.5;" x1="200.6357" x2="215.6357" y1="80.5938" y2="80.5938"/><line style="stroke:#8FBCBB;stroke-width:1.5;" x1="215.6357" x2="215.6357" y1="80.5938" y2="94.5938"/><line style="stroke:#8FBCBB;stroke-width:1.5;" x1="215.6357" x2="250.6357" y1="94.5938" y2="94.5938"/><line style="stroke:#8FBCBB;stroke-width:1.5;" x1="250.6357" x2="250.6357" y1="80.5938" y2="94.5938"/><line style="stroke:#8FBCBB;stroke-width:1.5;" x1="250.6357" x2="265.6357" y1="80.5938" y2="80.5938"/><line style="stroke:#8FBCBB;stroke-width:1.5;" x1="265.6357" x2="265.6357" y1="80.5938" y2="94.5938"/><line style="stroke:#8FBCBB;stroke-width:1.5;" x1="265.6357" x2="300.6357" y1="94.5938" y2="94.5938"/><line style="stroke:#8FBCBB;stroke-width:1.5;" x1="300.6357" x2="300.6357" y1="80.5938" y2="94.5938"/><line style="stroke:#8FBCBB;stroke-width:1.5;" x1="300.6357" x2="315.6357" y1="80.5938" y2="80.5938"/><line style="stroke:#8FBCBB;stroke-width:1.5;" x1="315.6357" x2="315.6357" y1="80.5938" y2="94.5938"/><line style="stroke:#8FBCBB;stroke-width:1.5;" x1="315.6357" x2="350.6357" y1="94.5938" y2="94.5938"/><line style="stroke:#8FBCBB;stroke-width:1.5;" x1="350.6357" x2="350.6357" y1="80.5938" y2="94.5938"/><line style="stroke:#8FBCBB;stroke-width:1.5;" x1="350.6357" x2="365.6357" y1="80.5938" y2="80.5938"/><line style="stroke:#8FBCBB;stroke-width:1.5;" x1="365.6357" x2="365.6357" y1="80.5938" y2="94.5938"/><line style="stroke:#8FBCBB;stroke-width:1.5;" x1="365.6357" x2="400.6357" y1="94.5938" y2="94.5938"/><line style="stroke:#8FBCBB;stroke-width:1.5;" x1="400.6357" x2="400.6357" y1="80.5938" y2="94.5938"/><line style="stroke:#8FBCBB;stroke-width:1.5;" x1="400.6357" x2="415.6357" y1="80.5938" y2="80.5938"/><line style="stroke:#8FBCBB;stroke-width:1.5;" x1="415.6357" x2="415.6357" y1="80.5938" y2="94.5938"/><line style="stroke:#8FBCBB;stroke-width:1.5;" x1="415.6357" x2="440.6357" y1="94.5938" y2="94.5938"/><line style="stroke:#4C566A;stroke-width:0.5;" x1="10" x2="445.6357" y1="102.5938" y2="102.5938"/><text fill="#3B4252" font-family="sans-serif" font-size="14" lengthAdjust="spacing" textLength="44.9873" x="15" y="122.4404">Binary</text><line style="stroke:#8FBCBB;stroke-width:2.0;" x1="90.6357" x2="190.6357" y1="124.5938" y2="124.5938"/><line style="stroke:#8FBCBB;stroke-width:2.0;" x1="190.6357" x2="190.6357" y1="110.5938" y2="124.5938"/><line style="stroke:#8FBCBB;stroke-width:2.0;" x1="190.6357" x2="440.6357" y1="110.5938" y2="110.5938"/><line style="stroke:#4C566A;stroke-width:0.5;" x1="10" x2="445.6357" y1="132.5938" y2="132.5938"/><text fill="#3B4252" font-family="sans-serif" font-size="14" lengthAdjust="spacing" textLength="54.708" x="15" y="145.5889">Concise</text><line style="stroke:#4C566A;stroke-width:0.5;" x1="10" x2="70.708" y1="149.8906" y2="149.8906"/><line style="stroke:#4C566A;stroke-width:0.5;" x1="70.708" x2="80.708" y1="149.8906" y2="132.5938"/><polygon fill="#E5E9F0" points="102.6357,154.8906,178.6357,154.8906,190.6357,166.8906,178.6357,178.8906,102.6357,178.8906,90.6357,166.8906" style="stroke:#4C566A;stroke-width:0.5;"/><polygon fill="#E5E9F0" points="202.6357,154.8906,440.6357,154.8906,440.6357,178.8906,202.6357,178.8906,190.6357,166.8906" style="stroke:#E5E9F0;stroke-width:0.5;"/><path d="M440.6357,154.8906 L202.6357,154.8906 L190.6357,166.8906 L202.6357,178.8906 L440.6357,178.8906 " fill="#E5E9F0" style="stroke:#4C566A;stroke-width:0.5;"/><text fill="#2E3440" font-family="sans-serif" font-size="12" lengthAdjust="spacing" textLength="21.873" x="129.6992" y="171.0449">Idle</text><text fill="#2E3440" font-family="sans-serif" font-size="12" lengthAdjust="spacing" textLength="45.8145" x="202.6357" y="171.0449">Waiting</text><line style="stroke:#4C566A;stroke-width:0.5;" x1="10" x2="445.6357" y1="188.8906" y2="188.8906"/><text fill="#3B4252" font-family="sans-serif" font-size="14" lengthAdjust="spacing" textLength="48.8359" x="15" y="201.8857">Robust</text><line style="stroke:#4C566A;stroke-width:0.5;" x1="10" x2="64.8359" y1="206.1875" y2="206.1875"/><line style="stroke:#4C566A;stroke-width:0.5;" x1="64.8359" x2="74.8359" y1="206.1875" y2="188.8906"/><text fill="#3B4252" font-family="sans-serif" font-size="12" lengthAdjust="spacing" textLength="21.873" x="21.083" y="256.3418">Idle</text><text fill="#3B4252" font-family="sans-serif" font-size="12" lengthAdjust="spacing" textLength="64.5527" x="21.083" y="236.3418">Processing</text><text fill="#3B4252" font-family="sans-serif" font-size="12" lengthAdjust="spacing" textLength="45.8145" x="21.083" y="216.3418">Waiting</text><line style="stroke:#8FBCBB;stroke-width:2.0;" x1="90.6357" x2="190.6357" y1="251.1875" y2="251.1875"/><line style="stroke:#8FBCBB;stroke-width:2.0;" x1="190.6357" x2="390.6357" y1="231.1875" y2="231.1875"/><line style="stroke:#8FBCBB;stroke-width:2.0;" x1="390.6357" x2="440.6357" y1="211.1875" y2="211.1875"/><line style="stroke:#8FBCBB;stroke-width:2.0;" x1="190.6357" x2="190.6357" y1="231.1875" y2="251.1875"/><line style="stroke:#8FBCBB;stroke-width:2.0;" x1="390.6357" x2="390.6357" y1="211.1875" y2="231.1875"/><line style="stroke:#4C566A;stroke-width:0.5;" x1="10" x2="445.6357" y1="263.1875" y2="263.1875"/><text fill="#3B4252" font-family="sans-serif" font-size="14" lengthAdjust="spacing" textLength="48.3711" x="15" y="318.0342">Analog</text><text fill="#3B4252" font-family="sans-serif" font-size="14" lengthAdjust="spacing" textLength="22.2646" x="66.3711" y="360.0342">0.0</text><text fill="#3B4252" font-family="sans-serif" font-size="14" lengthAdjust="spacing" textLength="22.2646" x="66.3711" y="276.0342">3.0</text><line style="stroke:#4C566A;stroke-width:0.5;" x1="90.6357" x2="90.6357" y1="355.1875" y2="355.1875"/><line style="stroke:#4C566A;stroke-width:0.5;" x1="90.6357" x2="190.6357" y1="355.1875" y2="271.1875"/><line style="stroke:#4C566A;stroke-width:0.5;" x1="190.6357" x2="390.6357" y1="271.1875" y2="327.1875"/><line style="stroke:#4C566A;stroke-width:0.5;" x1="390.6357" x2="440.6357" y1="327.1875" y2="327.1875"/><line style="stroke:#4C566A;stroke-width:2.0;" x1="90.6357" x2="90.6357" y1="363.1875" y2="368.1875"/><line style="stroke:#4C566A;stroke-width:2.0;" x1="140.6357" x2="140.6357" y1="363.1875" y2="368.1875"/><line style="stroke:#4C566A;stroke-width:2.0;" x1="190.6357" x2="190.6357" y1="363.1875" y2="368.1875"/><line style="stroke:#4C566A;stroke-width:2.0;" x1="240.6357" x2="240.6357" y1="363.1875" y2="368.1875"/><line style="stroke:#4C566A;stroke-width:2.0;" x1="290.6357" x2="290.6357" y1="363.1875" y2="368.1875"/><line style="stroke:#4C566A;stroke-width:2.0;" x1="340.6357" x2="340.6357" y1="363.1875" y2="368.1875"/><line style="stroke:#4C566A;stroke-width:2.0;" x1="390.6357" x2="390.6357" y1="363.1875" y2="368.1875"/><line style="stroke:#4C566A;stroke-width:2.0;" x1="440.6357" x2="440.6357" y1="363.1875" y2="368.1875"/><line style="stroke:#4C566A;stroke-width:2.0;" x1="90.6357" x2="440.6357" y1="363.1875" y2="363.1875"/><text fill="#3B4252" font-family="sans-serif" font-size="11" lengthAdjust="spacing" textLength="6.9985" x="87.1365" y="379.3979">0</text><text fill="#3B4252" font-family="sans-serif" font-size="11" lengthAdjust="spacing" textLength="13.9971" x="133.6372" y="379.3979">50</text><text fill="#3B4252" font-family="sans-serif" font-size="11" lengthAdjust="spacing" textLength="20.9956" x="180.1379" y="379.3979">100</text><text fill="#3B4252" font-family="sans-serif" font-size="11" lengthAdjust="spacing" textLength="20.9956" x="380.1379" y="379.3979">300</text><!--SRC=[NO_1JiCm38RlUGhJ2xSrrRGB9xQU4492vS1noXBJMasJAawOzlQaYK1ejy_szzlo8toa2qUAAIB42S6Icy4xCCWKq6oz1SK3EMsJGPXYNFcfROEwxaQAKxeang2zY-ZYJlkbVQDvKcHVW_h6oEqo6w_vlAR5jcLNwtmm5RcoKRVTDXT2Mwzd06Zw3SwooQmOUWdNV0jM3EGD7EIzsFsAtPq8QxACq1t0VtqnHkYak91JuPQpfm9DIPv4_a5JTfk-GbCMYk3pXp7RGu5g3q8vPVsOsyS2jNqKGZnBqGCnl1YBOlYZuqOoZpifnMah9XgdgdugYkJ6Qhy7hv5vgqjcdpFxd1d-csNI_G00]--></g></svg>
