<svg xmlns="http://www.w3.org/2000/svg" xmlns:xlink="http://www.w3.org/1999/xlink" contentStyleType="text/css" height="251px" preserveAspectRatio="none" style="width:669px;height:251px;background:#ECEFF4;" version="1.1" viewBox="0 0 669 251" width="669px" zoomAndPan="magnify"><defs/><g><rect fill="#ECEFF4" height="251" style="stroke:none;stroke-width:1.0;" width="669" x="0" y="0"/><!--cluster urllib--><g id="cluster_urllib"><path d="M359.31,80 L396.5991,80 A7.5,7.5 0 0 1 401.5991,85 L408.5991,102.2969 L657.31,102.2969 A5,5 0 0 1 662.31,107.2969 L662.31,239.19 A5,5 0 0 1 657.31,244.19 L359.31,244.19 A5,5 0 0 1 354.31,239.19 L354.31,85 A5,5 0 0 1 359.31,80 " fill="none" style="stroke:#BF616A;stroke-width:2.0;"/><line style="stroke:#BF616A;stroke-width:2.0;" x1="354.31" x2="408.5991" y1="102.2969" y2="102.2969"/><text fill="#BF616A" font-family="sans-serif" font-size="14" font-weight="bold" lengthAdjust="spacing" textLength="41.2891" x="358.31" y="94.9951">urllib</text></g><!--class URLReader--><g id="elem_URLReader"><rect codeLine="13" fill="#ECEFF4" height="113.1875" id="URLReader" rx="5" ry="5" style="stroke:#4C566A;stroke-width:0.5;" width="117.3691" x="370.63" y="115"/><ellipse cx="388.9685" cy="131" fill="#88C0D0" rx="11" ry="11" style="stroke:#3B4252;stroke-width:1.0;"/><path d="M391.9373,136.6406 Q391.3592,136.9375 390.7185,137.0781 Q390.0779,137.2344 389.3748,137.2344 Q386.8748,137.2344 385.5467,135.5938 Q384.2342,133.9375 384.2342,130.8125 Q384.2342,127.6875 385.5467,126.0313 Q386.8748,124.375 389.3748,124.375 Q390.0779,124.375 390.7185,124.5313 Q391.3748,124.6875 391.9373,124.9844 L391.9373,127.7031 Q391.3123,127.125 390.7185,126.8594 Q390.1248,126.5781 389.4998,126.5781 Q388.156,126.5781 387.4685,127.6563 Q386.781,128.7188 386.781,130.8125 Q386.781,132.9063 387.4685,133.9844 Q388.156,135.0469 389.4998,135.0469 Q390.1248,135.0469 390.7185,134.7813 Q391.3123,134.5 391.9373,133.9219 L391.9373,136.6406 Z " fill="#3B4252"/><text fill="#2E3440" font-family="sans-serif" font-size="14" lengthAdjust="spacing" textLength="77.9502" x="403.7104" y="135.8467">URLReader</text><line style="stroke:#4C566A;stroke-width:0.5;" x1="371.63" x2="486.9991" y1="147" y2="147"/><text fill="#2E3440" font-family="sans-serif" font-size="14" lengthAdjust="spacing" textLength="105.3691" x="376.63" y="163.9951">Read from URL</text><line style="stroke:#4C566A;stroke-width:1.0;stroke-dasharray:1.0,2.0;" x1="371.63" x2="486.9991" y1="171.2969" y2="171.2969"/><ellipse cx="381.63" cy="184.9453" fill="#A3BE8C" rx="3" ry="3" style="stroke:#A3BE8C;stroke-width:1.0;"/><text fill="#2E3440" font-family="sans-serif" font-size="14" lengthAdjust="spacing" textLength="42.7588" x="390.63" y="188.292">read()</text><polygon fill="#D08770" points="381.63,197.2422,377.63,203.2422,385.63,203.2422" style="stroke:#D08770;stroke-width:1.0;"/><text fill="#2E3440" font-family="sans-serif" font-size="14" lengthAdjust="spacing" textLength="42.7383" x="390.63" y="204.5889">auth()</text><rect fill="#BF616A" height="6" style="stroke:#BF616A;stroke-width:1.0;" width="6" x="378.63" y="214.5391"/><text fill="#2E3440" font-family="sans-serif" font-size="14" lengthAdjust="spacing" textLength="66.7324" x="390.63" y="220.8857">connect()</text></g><!--class URL--><g id="elem_URL"><rect codeLine="21" fill="#ECEFF4" height="96.8906" id="URL" rx="5" ry="5" style="stroke:#4C566A;stroke-width:0.5;" width="123.3848" x="522.62" y="123.15"/><ellipse cx="566.2447" cy="139.15" fill="#88C0D0" rx="11" ry="11" style="stroke:#3B4252;stroke-width:1.0;"/><path d="M569.2134,144.7906 Q568.6353,145.0875 567.9947,145.2281 Q567.354,145.3844 566.6509,145.3844 Q564.1509,145.3844 562.8228,143.7438 Q561.5103,142.0875 561.5103,138.9625 Q561.5103,135.8375 562.8228,134.1813 Q564.1509,132.525 566.6509,132.525 Q567.354,132.525 567.9947,132.6813 Q568.6509,132.8375 569.2134,133.1344 L569.2134,135.8531 Q568.5884,135.275 567.9947,135.0094 Q567.4009,134.7281 566.7759,134.7281 Q565.4322,134.7281 564.7447,135.8063 Q564.0572,136.8688 564.0572,138.9625 Q564.0572,141.0563 564.7447,142.1344 Q565.4322,143.1969 566.7759,143.1969 Q567.4009,143.1969 567.9947,142.9313 Q568.5884,142.65 569.2134,142.0719 L569.2134,144.7906 Z " fill="#3B4252"/><text fill="#2E3440" font-family="sans-serif" font-size="14" lengthAdjust="spacing" textLength="27.7744" x="586.6057" y="143.9967">URL</text><line style="stroke:#4C566A;stroke-width:0.5;" x1="523.62" x2="645.0048" y1="155.15" y2="155.15"/><text fill="#2E3440" font-family="sans-serif" font-size="14" lengthAdjust="spacing" textLength="111.3848" x="528.62" y="172.1451">Represents URL</text><line style="stroke:#4C566A;stroke-width:1.0;stroke-dasharray:1.0,2.0;" x1="523.62" x2="645.0048" y1="179.4469" y2="179.4469"/><rect fill="none" height="6" style="stroke:#BF616A;stroke-width:1.0;" width="6" x="530.62" y="190.0953"/><text fill="#2E3440" font-family="sans-serif" font-size="14" lengthAdjust="spacing" textLength="18.5186" x="542.62" y="196.442">url</text><ellipse cx="533.62" cy="209.3922" fill="#A3BE8C" rx="3" ry="3" style="stroke:#A3BE8C;stroke-width:1.0;"/><text fill="#2E3440" font-family="sans-serif" font-size="14" lengthAdjust="spacing" textLength="36.1416" x="542.62" y="212.7389">join()</text></g><!--class FileReader--><g id="elem_FileReader"><rect codeLine="4" fill="#ECEFF4" height="113.1875" id="FileReader" rx="5" ry="5" style="stroke:#4C566A;stroke-width:0.5;" width="106.6211" x="9" y="115"/><ellipse cx="24" cy="131" fill="#88C0D0" rx="11" ry="11" style="stroke:#3B4252;stroke-width:1.0;"/><path d="M26.9688,136.6406 Q26.3906,136.9375 25.75,137.0781 Q25.1094,137.2344 24.4063,137.2344 Q21.9063,137.2344 20.5781,135.5938 Q19.2656,133.9375 19.2656,130.8125 Q19.2656,127.6875 20.5781,126.0313 Q21.9063,124.375 24.4063,124.375 Q25.1094,124.375 25.75,124.5313 Q26.4063,124.6875 26.9688,124.9844 L26.9688,127.7031 Q26.3438,127.125 25.75,126.8594 Q25.1563,126.5781 24.5313,126.5781 Q23.1875,126.5781 22.5,127.6563 Q21.8125,128.7188 21.8125,130.8125 Q21.8125,132.9063 22.5,133.9844 Q23.1875,135.0469 24.5313,135.0469 Q25.1563,135.0469 25.75,134.7813 Q26.3438,134.5 26.9688,133.9219 L26.9688,136.6406 Z " fill="#3B4252"/><text fill="#2E3440" font-family="sans-serif" font-size="14" lengthAdjust="spacing" textLength="74.6211" x="38" y="135.8467">FileReader</text><line style="stroke:#4C566A;stroke-width:0.5;" x1="10" x2="114.6211" y1="147" y2="147"/><text fill="#2E3440" font-family="sans-serif" font-size="14" lengthAdjust="spacing" textLength="68.8721" x="15" y="163.9951">Read files</text><line style="stroke:#4C566A;stroke-width:1.0;stroke-dasharray:1.0,2.0;" x1="10" x2="114.6211" y1="171.2969" y2="171.2969"/><ellipse cx="20" cy="184.9453" fill="#A3BE8C" rx="3" ry="3" style="stroke:#A3BE8C;stroke-width:1.0;"/><text fill="#2E3440" font-family="sans-serif" font-size="14" lengthAdjust="spacing" textLength="42.7588" x="29" y="188.292">read()</text><polygon fill="#D08770" points="20,197.2422,16,203.2422,24,203.2422" style="stroke:#D08770;stroke-width:1.0;"/><text fill="#2E3440" font-family="sans-serif" font-size="14" lengthAdjust="spacing" textLength="42.7383" x="29" y="204.5889">auth()</text><rect fill="#BF616A" height="6" style="stroke:#BF616A;stroke-width:1.0;" width="6" x="17" y="214.5391"/><text fill="#2E3440" font-family="sans-serif" font-size="14" lengthAdjust="spacing" textLength="74.1836" x="29" y="220.8857">open_file()</text></g><path d="M150.79,154.03 L150.79,162.5964 L71.7383,199.7422 L150.79,170.5964 L150.79,179.1628 A0,0 0 0 0 150.79,179.1628 L335.8388,179.1628 A0,0 0 0 0 335.8388,179.1628 L335.8388,164.03 L325.8388,154.03 L150.79,154.03 A0,0 0 0 0 150.79,154.03 " fill="#E5E9F0" style="stroke:#5E81AC;stroke-width:0.5;"/><path d="M325.8388,154.03 L325.8388,164.03 L335.8388,164.03 L325.8388,154.03 " fill="#E5E9F0" style="stroke:#5E81AC;stroke-width:0.5;"/><text fill="#2E3440" font-family="sans-serif" font-size="13" lengthAdjust="spacing" textLength="164.0488" x="156.79" y="171.0969">Do nothing. Auth in files?</text><!--class Reader--><g id="elem_Reader"><rect fill="#ECEFF4" height="48" id="Reader" rx="5" ry="5" style="stroke:#4C566A;stroke-width:0.5;" width="82.1758" x="204.22" y="7"/><ellipse cx="219.22" cy="23" fill="#88C0D0" rx="11" ry="11" style="stroke:#3B4252;stroke-width:1.0;"/><path d="M222.1888,28.6406 Q221.6106,28.9375 220.97,29.0781 Q220.3294,29.2344 219.6263,29.2344 Q217.1263,29.2344 215.7981,27.5938 Q214.4856,25.9375 214.4856,22.8125 Q214.4856,19.6875 215.7981,18.0313 Q217.1263,16.375 219.6263,16.375 Q220.3294,16.375 220.97,16.5313 Q221.6263,16.6875 222.1888,16.9844 L222.1888,19.7031 Q221.5638,19.125 220.97,18.8594 Q220.3763,18.5781 219.7513,18.5781 Q218.4075,18.5781 217.72,19.6563 Q217.0325,20.7188 217.0325,22.8125 Q217.0325,24.9063 217.72,25.9844 Q218.4075,27.0469 219.7513,27.0469 Q220.3763,27.0469 220.97,26.7813 Q221.5638,26.5 222.1888,25.9219 L222.1888,28.6406 Z " fill="#3B4252"/><text fill="#2E3440" font-family="sans-serif" font-size="14" lengthAdjust="spacing" textLength="50.1758" x="233.22" y="27.8467">Reader</text><line style="stroke:#4C566A;stroke-width:0.5;" x1="205.22" x2="285.3958" y1="39" y2="39"/><line style="stroke:#4C566A;stroke-width:0.5;" x1="205.22" x2="285.3958" y1="47" y2="47"/></g><!--reverse link Reader to FileReader--><g id="link_Reader_FileReader"><path codeLine="32" d="M198.017,42.0123 C175.547,48.0723 154.02,56.43 133.31,72 C118.05,83.48 104.71,99.16 93.84,114.64 " fill="none" id="Reader-backto-FileReader" style="stroke:#4C566A;stroke-width:1.0;"/><polygon fill="#4C566A" points="203.81,40.45,194.0789,38.9315,198.9825,41.7519,196.162,46.6555,203.81,40.45" style="stroke:#4C566A;stroke-width:1.0;"/></g><!--reverse link Reader to URLReader--><g id="link_Reader_URLReader"><path codeLine="33" d="M292.4477,43.1379 C313.7677,49.3879 333.58,57.49 353.31,72 C368.98,83.53 383.02,99.14 394.65,114.53 " fill="none" id="Reader-backto-URLReader" style="stroke:#4C566A;stroke-width:1.0;"/><polygon fill="#4C566A" points="286.69,41.45,294.2013,47.8203,291.4881,42.8566,296.4518,40.1434,286.69,41.45" style="stroke:#4C566A;stroke-width:1.0;"/></g><!--SRC=[TP4_JyCm4CLtVufZ0eIIx1r0I8W5M8gOAzU-njSuvyX_G0YLpuwTH6sg2Y_sUsVVx_Hy3Uzf6oB5516YGR347JW6ZO4ywkBrAAw8bKqQmSGuX5NJUFbLjnHDsgQ0NZcEoB5Mhc_Ug3EIx8kNdnX3qtVQgR0PKc-RiLV3pklf6AQpbjzrgGkXh0m1didY6gL63py2yYe2TjaDewphSRi3d_sRsr7yWapHpA82Do1loeli78GOfEfaYv2yjRITkqwmZ_Nh6Ul4ywulrQCxOo_G5_XfX9m9eugpbuSuOvxH1eyXnnV-mrLby0LyxuYFVG-2NVuxJws9u7QBz5QhCjHuxSb1lcM8sneUimd4Kw0F0bcN6WgnoBrAGtKFan2dY9Rs7m00]--></g></svg>
