<svg xmlns="http://www.w3.org/2000/svg" xmlns:xlink="http://www.w3.org/1999/xlink" contentStyleType="text/css" height="479.9393px" preserveAspectRatio="none" style="width:351px;height:479px;background:#1F1F28;" version="1.1" viewBox="0 0 351 479" width="351.2139px" zoomAndPan="magnify"><defs/><g><rect fill="#1F1F28" height="479.9393" style="stroke:none;stroke-width:0.794601569169601;" width="351.2139" x="0" y="0"/><ellipse cx="175.4004" cy="12.7136" fill="#DCA561" rx="7.946" ry="7.946" style="stroke:#16161D;stroke-width:0.794601569169601;"/><path d="M11.5217,68.3357 L339.2729,68.3357 A5.9595,5.9595 0 0 1 345.2324,74.2952 L345.2324,89.2313 L5.5622,89.2313 L5.5622,74.2952 A5.9595,5.9595 0 0 1 11.5217,68.3357 " fill="#16161D" style="stroke:#16161D;stroke-width:0.794601569169601;"/><rect fill="none" height="407.5437" rx="5.9595" ry="5.9595" style="stroke:#54546D;stroke-width:0.794601569169601;" width="339.6702" x="5.5622" y="68.3357"/><line style="stroke:#54546D;stroke-width:0.794601569169601;" x1="5.5622" x2="345.2324" y1="89.2313" y2="89.2313"/><text fill="#DCD7BA" font-family="sans-serif" font-size="11.1244" lengthAdjust="spacing" textLength="68.778" x="141.0083" y="82.6347">NotShooting</text><ellipse cx="176.5923" cy="105.9179" fill="#DCA561" rx="7.946" ry="7.946" style="stroke:#16161D;stroke-width:0.794601569169601;"/><g id="NotShooting.Idle"><rect fill="#16161D" height="39.7301" rx="5.9595" ry="5.9595" style="stroke:#54546D;stroke-width:0.794601569169601;" width="39.7301" x="156.7272" y="143.2642"/><line style="stroke:#54546D;stroke-width:0.794601569169601;" x1="156.7272" x2="196.4573" y1="164.1597" y2="164.1597"/><text fill="#DCD7BA" font-family="sans-serif" font-size="11.1244" lengthAdjust="spacing" textLength="20.2771" x="166.4537" y="157.5631">Idle</text></g><path d="M21.0569,225.1081 L332.1215,225.1081 A5.9595,5.9595 0 0 1 338.081,231.0677 L338.081,246.0037 L15.0974,246.0037 L15.0974,231.0677 A5.9595,5.9595 0 0 1 21.0569,225.1081 " fill="#16161D" style="stroke:#16161D;stroke-width:0.794601569169601;"/><rect fill="none" height="242.8253" rx="5.9595" ry="5.9595" style="stroke:#54546D;stroke-width:0.794601569169601;" width="322.9835" x="15.0974" y="225.1081"/><line style="stroke:#54546D;stroke-width:0.794601569169601;" x1="15.0974" x2="338.081" y1="246.0037" y2="246.0037"/><text fill="#DCD7BA" font-family="sans-serif" font-size="11.1244" lengthAdjust="spacing" textLength="64.5195" x="144.3295" y="239.4071">Configuring</text><ellipse cx="116.282" cy="262.6903" fill="#DCA561" rx="7.946" ry="7.946" style="stroke:#16161D;stroke-width:0.794601569169601;"/><g id="NotShooting.Configuring.NewValueSelection"><rect fill="#16161D" height="39.7301" rx="5.9595" ry="5.9595" style="stroke:#54546D;stroke-width:0.794601569169601;" width="122.8342" x="54.8672" y="300.0366"/><line style="stroke:#54546D;stroke-width:0.794601569169601;" x1="54.8672" x2="177.7015" y1="320.9321" y2="320.9321"/><text fill="#DCD7BA" font-family="sans-serif" font-size="11.1244" lengthAdjust="spacing" textLength="106.9422" x="62.8133" y="314.3355">NewValueSelection</text></g><path d="M54.319,381.8805 L178.2489,381.8805 A5.9595,5.9595 0 0 1 184.2084,387.8401 L184.2084,402.7761 L48.3595,402.7761 L48.3595,387.8401 A5.9595,5.9595 0 0 1 54.319,381.8805 " fill="#16161D" style="stroke:#16161D;stroke-width:0.794601569169601;"/><rect fill="none" height="78.1069" rx="5.9595" ry="5.9595" style="stroke:#54546D;stroke-width:0.794601569169601;" width="135.8489" x="48.3595" y="381.8805"/><line style="stroke:#54546D;stroke-width:0.794601569169601;" x1="48.3595" x2="184.2084" y1="402.7761" y2="402.7761"/><text fill="#DCD7BA" font-family="sans-serif" font-size="11.1244" lengthAdjust="spacing" textLength="99.4191" x="66.5744" y="396.1795">NewValuePreview</text><g id="NotShooting.Configuring.NewValuePreview.State1"><rect fill="#16161D" height="39.7301" rx="5.9595" ry="5.9595" style="stroke:#54546D;stroke-width:0.794601569169601;" width="52.4158" x="57.8947" y="412.3113"/><line style="stroke:#54546D;stroke-width:0.794601569169601;" x1="57.8947" x2="110.3104" y1="433.2068" y2="433.2068"/><text fill="#DCD7BA" font-family="sans-serif" font-size="11.1244" lengthAdjust="spacing" textLength="36.5237" x="65.8407" y="426.6103">State1</text></g><g id="NotShooting.Configuring.NewValuePreview.State2"><rect fill="#16161D" height="39.7301" rx="5.9595" ry="5.9595" style="stroke:#54546D;stroke-width:0.794601569169601;" width="52.4158" x="124.6412" y="412.3113"/><line style="stroke:#54546D;stroke-width:0.794601569169601;" x1="124.6412" x2="177.057" y1="433.2068" y2="433.2068"/><text fill="#DCD7BA" font-family="sans-serif" font-size="11.1244" lengthAdjust="spacing" textLength="36.5237" x="132.5872" y="426.6103">State2</text></g><!--link State1 to State2--><g id="link_State1_State2"><path d="M110.6959,432.1763 C115.2967,432.1763 115.1298,432.1763 119.7306,432.1763 " fill="none" id="State1-to-State2" style="stroke:#C6C6D6;stroke-width:0.794601569169601;"/><polygon fill="#C6C6D6" points="124.4982,432.1763,117.3468,428.9979,120.5252,432.1763,117.3468,435.3548,124.4982,432.1763" style="stroke:#C6C6D6;stroke-width:0.794601569169601;"/></g><!--link *start*Configuring to NewValueSelection--><g id="link_*start*Configuring_NewValueSelection"><path d="M116.282,270.986 C116.282,278.344 116.282,285.0981 116.282,295.0227 " fill="none" id="*start*Configuring-to-NewValueSelection" style="stroke:#C6C6D6;stroke-width:0.794601569169601;"/><polygon fill="#C6C6D6" points="116.282,299.7903,119.4604,292.6388,116.282,295.8173,113.1036,292.6388,116.282,299.7903" style="stroke:#C6C6D6;stroke-width:0.794601569169601;"/></g><!--link NewValueSelection to NewValuePreview--><g id="link_NewValueSelection_NewValuePreview"><path d="M54.4699,335.7857 C46.2538,340.3547 38.8799,346.3142 33.6434,354.0695 C23.838,368.6107 28.9229,378.794 44.076,389.2351 " fill="none" id="NewValueSelection-to-NewValuePreview" style="stroke:#C6C6D6;stroke-width:0.794601569169601;"/><polygon fill="#C6C6D6" points="48.0019,391.9402,43.9164,385.2653,44.7303,389.686,40.3097,390.4998,48.0019,391.9402" style="stroke:#C6C6D6;stroke-width:0.794601569169601;"/><text fill="#727169" font-family="sans-serif" font-size="10.3298" lengthAdjust="spacing" textLength="64.3394" x="34.438" y="364.4525">EvNewValue</text></g><!--link NewValuePreview to NewValueSelection--><g id="link_NewValuePreview_NewValueSelection"><path d="M116.282,381.6422 C116.282,367.4267 116.282,356.6917 116.282,344.876 " fill="none" id="NewValuePreview-to-NewValueSelection" style="stroke:#C6C6D6;stroke-width:0.794601569169601;"/><polygon fill="#C6C6D6" points="116.282,340.1083,113.1036,347.2598,116.282,344.0814,119.4604,347.2598,116.282,340.1083" style="stroke:#C6C6D6;stroke-width:0.794601569169601;"/><text fill="#727169" font-family="sans-serif" font-size="10.3298" lengthAdjust="spacing" textLength="109.7392" x="117.0766" y="364.4525">EvNewValueRejected</text></g><!--link NewValuePreview to NewValueSelection--><g id="link_NewValuePreview_NewValueSelection"><path d="M184.5065,404.7333 C217.1487,394.0221 245.7385,377.4228 228.3208,354.0695 C216.4336,338.1298 201.8654,330.6074 182.6916,326.0305 " fill="none" id="NewValuePreview-to-NewValueSelection-1" style="stroke:#C6C6D6;stroke-width:0.794601569169601;"/><polygon fill="#C6C6D6" points="178.0543,324.9235,184.2723,329.6755,181.9188,325.846,185.7483,323.4924,178.0543,324.9235" style="stroke:#C6C6D6;stroke-width:0.794601569169601;"/><text fill="#727169" font-family="sans-serif" font-size="10.3298" lengthAdjust="spacing" textLength="96.2519" x="233.883" y="364.4525">EvNewValueSaved</text></g><!--link *start*NotShooting to Idle--><g id="link_*start*NotShooting_Idle"><path d="M176.5923,114.2135 C176.5923,121.5636 176.5923,128.3177 176.5923,138.2423 " fill="none" id="*start*NotShooting-to-Idle" style="stroke:#C6C6D6;stroke-width:0.794601569169601;"/><polygon fill="#C6C6D6" points="176.5923,143.0099,179.7707,135.8585,176.5923,139.0369,173.4138,135.8585,176.5923,143.0099" style="stroke:#C6C6D6;stroke-width:0.794601569169601;"/></g><!--link Idle to Configuring--><g id="link_Idle_Configuring"><path d="M156.5365,180.0701 C151.7848,185.0443 147.3589,190.9085 144.8082,197.2971 C141.2802,206.1013 139.7219,210.6109 139.0465,220.0349 " fill="none" id="Idle-to-Configuring" style="stroke:#C6C6D6;stroke-width:0.794601569169601;"/><polygon fill="#C6C6D6" points="138.7056,224.7903,142.3872,217.8844,138.9897,220.8275,136.0466,217.43,138.7056,224.7903" style="stroke:#C6C6D6;stroke-width:0.794601569169601;"/><text fill="#727169" font-family="sans-serif" font-size="10.3298" lengthAdjust="spacing" textLength="45.7831" x="145.6028" y="207.6801">EvConfig</text></g><!--link Configuring to Idle--><g id="link_Configuring_Idle"><path d="M195.2018,224.8698 C194.7171,215.5014 193.6126,206.2205 191.6897,197.2971 C190.6646,192.5692 190.8249,192.0787 188.8702,187.5813 " fill="none" id="Configuring-to-Idle" style="stroke:#C6C6D6;stroke-width:0.794601569169601;"/><polygon fill="#C6C6D6" points="186.9697,183.2088,186.9054,191.0345,188.5534,186.8525,192.7353,188.5006,186.9697,183.2088" style="stroke:#C6C6D6;stroke-width:0.794601569169601;"/><text fill="#727169" font-family="sans-serif" font-size="10.3298" lengthAdjust="spacing" textLength="45.7831" x="194.0735" y="207.6801">EvConfig</text></g><!--link *start* to NotShooting--><g id="link_*start*_NotShooting"><path d="M175.4004,20.9457 C175.4004,30.1075 175.4004,42.2966 175.4004,63.2423 " fill="none" id="*start*-to-NotShooting" style="stroke:#C6C6D6;stroke-width:0.794601569169601;"/><polygon fill="#C6C6D6" points="175.4004,68.0099,178.5788,60.8585,175.4004,64.0369,172.2219,60.8585,175.4004,68.0099" style="stroke:#C6C6D6;stroke-width:0.794601569169601;"/></g><!--SRC=[dP0_JmGX4CLxFWMs9hVu9pPNs1WBOxmODx4nnY2C2ouBbsLO2dFVtTazYPnQIGFlpU_DX3coNhcaWHl4RLmBCShST1PDUaqHHXKyWiT6XK7SsTv8wsv7EG56CVGwgFYoJOCJQ600qKilEvdbNiPldIdHp21ZKKa7_FpYX6UhqR2dusU-MbtoJS3MX83MTmIXHAWj_i4uB-YDTa1olXPz5VoRxT8uSsj-FUqr4NMX16jYLoRLO3rf0_bHkWGjE51eWwVQB- -0l1zXif2NASMhGgNyP_E3q0EyamlwN-6MzgqPHRyM-QF1_4KwxLmyvTHjUPsHInlPVG80]--></g></svg>
