<svg xmlns="http://www.w3.org/2000/svg" xmlns:xlink="http://www.w3.org/1999/xlink" contentStyleType="text/css" height="317px" preserveAspectRatio="none" style="width:670px;height:317px;background:#303446;" version="1.1" viewBox="0 0 670 317" width="670px" zoomAndPan="magnify"><defs/><g><rect fill="#303446" height="317" style="stroke:none;stroke-width:1.0;" width="670" x="0" y="0"/><!--cluster urllib--><g id="cluster_urllib"><path d="M361.81,145.19 L394.0991,145.19 A11.25,11.25 0 0 1 401.5991,152.69 L408.5991,167.4869 L654.81,167.4869 A7.5,7.5 0 0 1 662.31,174.9869 L662.31,301.88 A7.5,7.5 0 0 1 654.81,309.38 L361.81,309.38 A7.5,7.5 0 0 1 354.31,301.88 L354.31,152.69 A7.5,7.5 0 0 1 361.81,145.19 " fill="#303446" style="stroke:#EA999C;stroke-width:1.0;"/><line style="stroke:#EA999C;stroke-width:1.0;" x1="354.31" x2="408.5991" y1="167.4869" y2="167.4869"/><text fill="#EA999C" font-family="sans-serif" font-size="14" font-weight="bold" lengthAdjust="spacing" textLength="41.2891" x="358.31" y="160.1851">urllib</text></g><!--class URLReader--><g id="elem_URLReader"><rect codeLine="21" fill="#292C3C" height="113.1875" id="URLReader" rx="7.5" ry="7.5" style="stroke:#B5BFE2;stroke-width:0.5;" width="117.3691" x="370.63" y="180.19"/><ellipse cx="388.9685" cy="196.19" fill="#BABBF1" rx="11" ry="11" style="stroke:#A5ADCE;stroke-width:1.0;"/><path d="M391.9373,201.8306 Q391.3592,202.1275 390.7185,202.2681 Q390.0779,202.4244 389.3748,202.4244 Q386.8748,202.4244 385.5467,200.7838 Q384.2342,199.1275 384.2342,196.0025 Q384.2342,192.8775 385.5467,191.2213 Q386.8748,189.565 389.3748,189.565 Q390.0779,189.565 390.7185,189.7213 Q391.3748,189.8775 391.9373,190.1744 L391.9373,192.8931 Q391.3123,192.315 390.7185,192.0494 Q390.1248,191.7681 389.4998,191.7681 Q388.156,191.7681 387.4685,192.8463 Q386.781,193.9088 386.781,196.0025 Q386.781,198.0963 387.4685,199.1744 Q388.156,200.2369 389.4998,200.2369 Q390.1248,200.2369 390.7185,199.9713 Q391.3123,199.69 391.9373,199.1119 L391.9373,201.8306 Z " fill="#05091A"/><text fill="#C6D0F5" font-family="sans-serif" font-size="14" lengthAdjust="spacing" textLength="77.9502" x="403.7104" y="201.0367">URLReader</text><line style="stroke:#B5BFE2;stroke-width:0.5;" x1="371.63" x2="486.9991" y1="212.19" y2="212.19"/><text fill="#C6D0F5" font-family="sans-serif" font-size="14" lengthAdjust="spacing" textLength="105.3691" x="376.63" y="229.1851">Read from URL</text><line style="stroke:#B5BFE2;stroke-width:1.0;stroke-dasharray:1.0,2.0;" x1="371.63" x2="486.9991" y1="236.4869" y2="236.4869"/><ellipse cx="381.63" cy="250.1353" fill="#A6D189" rx="3" ry="3" style="stroke:#A6D189;stroke-width:1.0;"/><text fill="#C6D0F5" font-family="sans-serif" font-size="14" lengthAdjust="spacing" textLength="42.7588" x="390.63" y="253.482">read()</text><polygon fill="#99D1DB" points="381.63,262.4322,377.63,268.4322,385.63,268.4322" style="stroke:#99D1DB;stroke-width:1.0;"/><text fill="#C6D0F5" font-family="sans-serif" font-size="14" lengthAdjust="spacing" textLength="42.7383" x="390.63" y="269.7789">auth()</text><rect fill="#E78284" height="6" style="stroke:#E78284;stroke-width:1.0;" width="6" x="378.63" y="279.7291"/><text fill="#C6D0F5" font-family="sans-serif" font-size="14" lengthAdjust="spacing" textLength="66.7324" x="390.63" y="286.0757">connect()</text></g><!--class URL--><g id="elem_URL"><rect codeLine="29" fill="#292C3C" height="96.8906" id="URL" rx="7.5" ry="7.5" style="stroke:#B5BFE2;stroke-width:0.5;" width="123.3848" x="522.62" y="188.34"/><ellipse cx="566.2447" cy="204.34" fill="#BABBF1" rx="11" ry="11" style="stroke:#A5ADCE;stroke-width:1.0;"/><path d="M569.2134,209.9806 Q568.6353,210.2775 567.9947,210.4181 Q567.354,210.5744 566.6509,210.5744 Q564.1509,210.5744 562.8228,208.9338 Q561.5103,207.2775 561.5103,204.1525 Q561.5103,201.0275 562.8228,199.3713 Q564.1509,197.715 566.6509,197.715 Q567.354,197.715 567.9947,197.8713 Q568.6509,198.0275 569.2134,198.3244 L569.2134,201.0431 Q568.5884,200.465 567.9947,200.1994 Q567.4009,199.9181 566.7759,199.9181 Q565.4322,199.9181 564.7447,200.9963 Q564.0572,202.0588 564.0572,204.1525 Q564.0572,206.2463 564.7447,207.3244 Q565.4322,208.3869 566.7759,208.3869 Q567.4009,208.3869 567.9947,208.1213 Q568.5884,207.84 569.2134,207.2619 L569.2134,209.9806 Z " fill="#05091A"/><text fill="#C6D0F5" font-family="sans-serif" font-size="14" lengthAdjust="spacing" textLength="27.7744" x="586.6057" y="209.1867">URL</text><line style="stroke:#B5BFE2;stroke-width:0.5;" x1="523.62" x2="645.0048" y1="220.34" y2="220.34"/><text fill="#C6D0F5" font-family="sans-serif" font-size="14" lengthAdjust="spacing" textLength="111.3848" x="528.62" y="237.3351">Represents URL</text><line style="stroke:#B5BFE2;stroke-width:1.0;stroke-dasharray:1.0,2.0;" x1="523.62" x2="645.0048" y1="244.6369" y2="244.6369"/><rect fill="none" height="6" style="stroke:#E78284;stroke-width:1.0;" width="6" x="530.62" y="255.2853"/><text fill="#C6D0F5" font-family="sans-serif" font-size="14" lengthAdjust="spacing" textLength="18.5186" x="542.62" y="261.632">url</text><ellipse cx="533.62" cy="274.5822" fill="#A6D189" rx="3" ry="3" style="stroke:#A6D189;stroke-width:1.0;"/><text fill="#C6D0F5" font-family="sans-serif" font-size="14" lengthAdjust="spacing" textLength="36.1416" x="542.62" y="277.9289">join()</text></g><!--class Reader--><g id="elem_Reader"><rect codeLine="4" fill="#292C3C" height="113.1875" id="Reader" rx="7.5" ry="7.5" style="stroke:#B5BFE2;stroke-width:0.5;" width="256.3643" x="117.13" y="7"/><ellipse cx="215.9742" cy="23" fill="#99D1DB" rx="11" ry="11" style="stroke:#A5ADCE;stroke-width:1.0;"/><path d="M216.0836,18.3438 L214.9274,23.4219 L217.2555,23.4219 L216.0836,18.3438 Z M214.5992,16.1094 L217.5836,16.1094 L220.943,28.5 L218.4899,28.5 L217.7242,25.4375 L214.443,25.4375 L213.693,28.5 L211.2555,28.5 L214.5992,16.1094 Z " fill="#05091A"/><text fill="#C6D0F5" font-family="sans-serif" font-size="14" font-style="italic" lengthAdjust="spacing" textLength="50.1758" x="236.4742" y="27.8467">Reader</text><line style="stroke:#B5BFE2;stroke-width:0.5;" x1="118.13" x2="372.4943" y1="39" y2="39"/><text fill="#C6D0F5" font-family="sans-serif" font-size="14" lengthAdjust="spacing" textLength="244.3643" x="123.13" y="55.9951">Extend this interface to implement</text><text fill="#C6D0F5" font-family="sans-serif" font-size="14" lengthAdjust="spacing" textLength="46.2041" x="123.13" y="72.292">reader</text><line style="stroke:#B5BFE2;stroke-width:1.0;stroke-dasharray:1.0,2.0;" x1="118.13" x2="372.4943" y1="79.5938" y2="79.5938"/><ellipse cx="128.13" cy="93.2422" fill="#A6D189" rx="3" ry="3" style="stroke:#A6D189;stroke-width:1.0;"/><text fill="#C6D0F5" font-family="sans-serif" font-size="14" lengthAdjust="spacing" textLength="42.7588" x="137.13" y="96.5889">read()</text><polygon fill="#99D1DB" points="128.13,105.5391,124.13,111.5391,132.13,111.5391" style="stroke:#99D1DB;stroke-width:1.0;"/><text fill="#C6D0F5" font-family="sans-serif" font-size="14" lengthAdjust="spacing" textLength="42.7383" x="137.13" y="112.8857">auth()</text></g><!--class FileReader--><g id="elem_FileReader"><rect codeLine="12" fill="#292C3C" height="113.1875" id="FileReader" rx="7.5" ry="7.5" style="stroke:#B5BFE2;stroke-width:0.5;" width="106.6211" x="9" y="180.19"/><ellipse cx="24" cy="196.19" fill="#BABBF1" rx="11" ry="11" style="stroke:#A5ADCE;stroke-width:1.0;"/><path d="M26.9688,201.8306 Q26.3906,202.1275 25.75,202.2681 Q25.1094,202.4244 24.4063,202.4244 Q21.9063,202.4244 20.5781,200.7838 Q19.2656,199.1275 19.2656,196.0025 Q19.2656,192.8775 20.5781,191.2213 Q21.9063,189.565 24.4063,189.565 Q25.1094,189.565 25.75,189.7213 Q26.4063,189.8775 26.9688,190.1744 L26.9688,192.8931 Q26.3438,192.315 25.75,192.0494 Q25.1563,191.7681 24.5313,191.7681 Q23.1875,191.7681 22.5,192.8463 Q21.8125,193.9088 21.8125,196.0025 Q21.8125,198.0963 22.5,199.1744 Q23.1875,200.2369 24.5313,200.2369 Q25.1563,200.2369 25.75,199.9713 Q26.3438,199.69 26.9688,199.1119 L26.9688,201.8306 Z " fill="#05091A"/><text fill="#C6D0F5" font-family="sans-serif" font-size="14" lengthAdjust="spacing" textLength="74.6211" x="38" y="201.0367">FileReader</text><line style="stroke:#B5BFE2;stroke-width:0.5;" x1="10" x2="114.6211" y1="212.19" y2="212.19"/><text fill="#C6D0F5" font-family="sans-serif" font-size="14" lengthAdjust="spacing" textLength="68.8721" x="15" y="229.1851">Read files</text><line style="stroke:#B5BFE2;stroke-width:1.0;stroke-dasharray:1.0,2.0;" x1="10" x2="114.6211" y1="236.4869" y2="236.4869"/><ellipse cx="20" cy="250.1353" fill="#A6D189" rx="3" ry="3" style="stroke:#A6D189;stroke-width:1.0;"/><text fill="#C6D0F5" font-family="sans-serif" font-size="14" lengthAdjust="spacing" textLength="42.7588" x="29" y="253.482">read()</text><polygon fill="#99D1DB" points="20,262.4322,16,268.4322,24,268.4322" style="stroke:#99D1DB;stroke-width:1.0;"/><text fill="#C6D0F5" font-family="sans-serif" font-size="14" lengthAdjust="spacing" textLength="42.7383" x="29" y="269.7789">auth()</text><rect fill="#E78284" height="6" style="stroke:#E78284;stroke-width:1.0;" width="6" x="17" y="279.7291"/><text fill="#C6D0F5" font-family="sans-serif" font-size="14" lengthAdjust="spacing" textLength="74.1836" x="29" y="286.0757">open_file()</text></g><path d="M150.79,219.22 L150.79,227.7864 L71.7383,264.9322 L150.79,235.7864 L150.79,244.3528 A0,0 0 0 0 150.79,244.3528 L335.8388,244.3528 A0,0 0 0 0 335.8388,244.3528 L335.8388,229.22 L325.8388,219.22 L150.79,219.22 A0,0 0 0 0 150.79,219.22 " fill="#232634" style="stroke:#EF9F76;stroke-width:0.5;"/><path d="M325.8388,219.22 L325.8388,229.22 L335.8388,229.22 L325.8388,219.22 " fill="#232634" style="stroke:#EF9F76;stroke-width:0.5;"/><text fill="#C6D0F5" font-family="sans-serif" font-size="13" lengthAdjust="spacing" textLength="164.0488" x="156.79" y="236.2869">Do nothing. Auth in files?</text><!--reverse link Reader to FileReader--><g id="link_Reader_FileReader"><path codeLine="40" d="M147.9917,124.2437 C141.1817,129.5637 139.35,131.44 133.31,137.19 C120.1,149.77 107.71,165.11 97.09,179.9 " fill="none" id="Reader-backto-FileReader" style="stroke:#B5BFE2;stroke-width:1.0;"/><polygon fill="#B5BFE2" points="152.72,120.55,143.1651,122.9384,148.7798,123.6281,148.0901,129.2428,152.72,120.55" style="stroke:#B5BFE2;stroke-width:1.0;"/></g><!--reverse link Reader to URLReader--><g id="link_Reader_URLReader"><path codeLine="41" d="M338.5141,124.2418 C345.3341,129.6118 347.21,131.48 353.31,137.19 C366.87,149.9 379.9,165.2 391.22,179.91 " fill="none" id="Reader-backto-URLReader" style="stroke:#B5BFE2;stroke-width:1.0;"/><polygon fill="#B5BFE2" points="333.8,120.53,338.3966,129.2404,337.7284,123.6232,343.3456,122.955,333.8,120.53" style="stroke:#B5BFE2;stroke-width:1.0;"/></g><!--SRC=[XP8nJyCm48Lt_ufZ0eIIx1r0IC02B4NCbUjSaYEERTbdG4BbjsCdeMrK8R8uzt9-tzDTpk4bRWCJHqRW3a6JwS4Qg36Gnpfh0uepCah76g5ZTc5LLLv-b2rn5xSne5VMC1ekbHsgP-exIVhHotVaK0rzRLNOk3Zega79qMCrUeRVGqbsBYf5fcgyT0xBt2o4JBcyL0nAon1WZR963ry2qdF_cNWv70MWnFQDL2c_1HgSJgw6OUppuwNnjIp7ushKBYx7uXjav2uLEo4coWDfN91o0KrIm_ykkIZ0EZIRV6FoTLBriaM8NclQpguJx7Nzj60TUDuE-UjUdR4dw1Fy527jmw3YMKiX5im5pNaCQLpXBroHWn_1tooPlUzE69l-6qzjns2Re-cjLZdKs7Pd8NLrPDeIRfEO5ZODz4Ra7MO78OxcNaHNNC_h5eSH7Si_]--></g></svg>
