<svg width="105" height="105" viewBox="0 0 105 105" fill="none" xmlns="http://www.w3.org/2000/svg">
<path d="M55 2.83019C55 1.26712 56.2671 0 57.8302 0H74.8113C91.4841 0 105 13.5159 105 30.1887V30.1887C105 31.189 104.189 32 103.189 32H58C56.3431 32 55 30.6569 55 29V2.83019Z" fill="#B475DB"/>
<rect x="55" y="36.5" width="50" height="32" rx="3" fill="#E18E8E"/>
<rect y="36.5" width="50" height="32" rx="3" fill="#5CB8AB"/>
<path d="M0 74.8113C0 73.811 0.810956 73 1.81132 73H47C48.6569 73 50 74.3431 50 76V102.17C50 103.733 48.7329 105 47.1698 105H30.1887C13.5159 105 0 91.4841 0 74.8113V74.8113Z" fill="#86CD6F"/>
<circle cx="80.5" cy="88.5" r="15.5" fill="#E2B55A"/>
<path d="M41 16.5C41 25.0604 34.0604 32 25.5 32C16.9396 32 10 25.0604 10 16.5C10 7.93959 16.9396 1 25.5 1C34.0604 1 41 7.93959 41 16.5Z" fill="#45ABD8"/>
</svg>
