<svg width="150" height="150" viewBox="0 0 150 150" fill="none" xmlns="http://www.w3.org/2000/svg">
<rect width="150" height="150" rx="10" fill="#11111B"/>
<path d="M125.17 78C126.733 78 128 79.2671 128 80.8302V97.8113C128 114.484 114.484 128 97.8113 128V128C96.811 128 96 127.189 96 126.189V81C96 79.3431 97.3431 78 99 78H125.17Z" fill="#B475DB"/>
<rect x="91.5" y="78" width="50" height="32" rx="3" transform="rotate(90 91.5 78)" fill="#E18E8E"/>
<rect x="91.5" y="23" width="50" height="32" rx="3" transform="rotate(90 91.5 23)" fill="#5CB8AB"/>
<path d="M53.1887 23C54.189 23 55 23.811 55 24.8113V70C55 71.6569 53.6569 73 52 73H25.8302C24.2671 73 23 71.7329 23 70.1698V53.1887C23 36.5159 36.5159 23 53.1887 23V23Z" fill="#86CD6F"/>
<circle cx="39.5" cy="103.5" r="15.5" transform="rotate(90 39.5 103.5)" fill="#E2B55A"/>
<path d="M111.5 64C102.94 64 96 57.0604 96 48.5C96 39.9396 102.94 33 111.5 33C120.06 33 127 39.9396 127 48.5C127 57.0604 120.06 64 111.5 64Z" fill="#45ABD8"/>
</svg>
