<svg width="105" height="105" viewBox="0 0 105 105" fill="none" xmlns="http://www.w3.org/2000/svg">
<path d="M102.17 55C103.733 55 105 56.2671 105 57.8302V74.8113C105 91.4841 91.4841 105 74.8113 105V105C73.811 105 73 104.189 73 103.189V58C73 56.3431 74.3431 55 76 55H102.17Z" fill="#B475DB"/>
<rect x="68.5" y="55" width="50" height="32" rx="3" transform="rotate(90 68.5 55)" fill="#E18E8E"/>
<rect x="68.5" width="50" height="32" rx="3" transform="rotate(90 68.5 0)" fill="#5CB8AB"/>
<path d="M30.1887 0C31.189 0 32 0.810956 32 1.81132V47C32 48.6569 30.6569 50 29 50H2.83019C1.26712 50 0 48.7329 0 47.1698V30.1887C0 13.5159 13.5159 0 30.1887 0V0Z" fill="#86CD6F"/>
<circle cx="16.5" cy="80.5" r="15.5" transform="rotate(90 16.5 80.5)" fill="#E2B55A"/>
<path d="M88.5 41C79.9396 41 73 34.0604 73 25.5C73 16.9396 79.9396 10 88.5 10C97.0604 10 104 16.9396 104 25.5C104 34.0604 97.0604 41 88.5 41Z" fill="#45ABD8"/>
</svg>
