<svg width="850" height="163" viewBox="0 0 850 163" fill="none" xmlns="http://www.w3.org/2000/svg">
<g clip-path="url(#clip0_129_117)">
<path d="M89 102V120.25C89 131.434 79.9338 140.5 68.75 140.5H50C48.8954 140.5 48 139.605 48 138.5V120.25C48 109.066 57.0662 100 68.25 100H87C88.1046 100 89 100.895 89 102Z" fill="#5CB8AB" fill-opacity="0.3" stroke="#5CB8AB" stroke-width="2"/>
<path d="M41.8571 120.25V138.5C41.8571 139.605 40.9617 140.5 39.8571 140.5H21.25C10.0662 140.5 1 131.434 1 120.25V102C1 100.895 1.89544 100 3 100H21.6072C32.7909 100 41.8571 109.066 41.8571 120.25Z" fill="#B475DB" fill-opacity="0.3" stroke="#B475DB" stroke-width="2"/>
<path d="M41.8571 55V73.25C41.8571 84.4338 32.7909 93.5 21.6071 93.5H3C1.89543 93.5 1 92.6046 1 91.5V73.25C1 62.0662 10.0662 53 21.25 53H39.8572C40.9617 53 41.8571 53.8954 41.8571 55Z" fill="#E18E8E" fill-opacity="0.3" stroke="#E18E8E" stroke-width="2"/>
<path d="M89 73.25V91.5C89 92.6046 88.1046 93.5 87 93.5H68.25C57.0662 93.5 48 84.4338 48 73.25V55C48 53.8954 48.8954 53 50 53H68.75C79.9338 53 89 62.0662 89 73.25Z" fill="#86CD6F" fill-opacity="0.3" stroke="#86CD6F" stroke-width="2"/>
<path d="M177.395 79.21C184.372 79.21 189.585 81.0117 193.035 84.615C196.485 88.1417 198.21 93.8917 198.21 101.865V142H188.205V102.325C188.205 97.495 187.17 93.8533 185.1 91.4C183.107 88.9467 179.963 87.72 175.67 87.72C169.69 87.72 165.397 89.445 162.79 92.895C160.26 96.345 158.995 101.367 158.995 107.96V142H148.99V102.325C148.99 99.105 148.53 96.4217 147.61 94.275C146.69 92.0517 145.31 90.4033 143.47 89.33C141.63 88.2567 139.253 87.72 136.34 87.72C132.2 87.72 128.942 88.6017 126.565 90.365C124.188 92.0517 122.463 94.5433 121.39 97.84C120.393 101.137 119.895 105.2 119.895 110.03V142H109.775V80.36H117.94L119.435 88.755H120.01C121.313 86.6083 122.885 84.845 124.725 83.465C126.642 82.0083 128.75 80.935 131.05 80.245C133.35 79.555 135.727 79.21 138.18 79.21C142.933 79.21 146.882 80.0533 150.025 81.74C153.245 83.4267 155.583 86.0333 157.04 89.56H157.615C159.685 86.0333 162.483 83.4267 166.01 81.74C169.613 80.0533 173.408 79.21 177.395 79.21ZM227.256 100.255C227.256 101.482 227.179 103.092 227.026 105.085C226.949 107.078 226.872 108.803 226.796 110.26H227.256C227.716 109.647 228.406 108.765 229.326 107.615C230.246 106.465 231.166 105.315 232.086 104.165C233.082 102.938 233.926 101.942 234.616 101.175L254.281 80.36H266.126L241.171 106.695L267.851 142H255.661L234.271 113.25L227.256 119.345V142H217.251V54.6H227.256V100.255ZM300.531 143.15C292.865 143.15 286.731 140.505 282.131 135.215C277.531 129.848 275.231 121.875 275.231 111.295C275.231 100.715 277.531 92.7417 282.131 87.375C286.808 81.9317 292.98 79.21 300.646 79.21C303.866 79.21 306.665 79.6317 309.041 80.475C311.418 81.2417 313.488 82.315 315.251 83.695C317.015 85.075 318.51 86.6083 319.736 88.295H320.426C320.35 87.2983 320.196 85.8417 319.966 83.925C319.813 81.9317 319.736 80.36 319.736 79.21V54.6H329.856V142H321.691L320.196 133.72H319.736C318.51 135.483 317.015 137.093 315.251 138.55C313.488 139.93 311.38 141.042 308.926 141.885C306.55 142.728 303.751 143.15 300.531 143.15ZM302.141 134.755C308.658 134.755 313.22 132.992 315.826 129.465C318.51 125.862 319.851 120.457 319.851 113.25V111.41C319.851 103.743 318.586 97.8783 316.056 93.815C313.526 89.675 308.85 87.605 302.026 87.605C296.583 87.605 292.481 89.79 289.721 94.16C287.038 98.4533 285.696 104.242 285.696 111.525C285.696 118.885 287.038 124.597 289.721 128.66C292.481 132.723 296.621 134.755 302.141 134.755ZM403.023 111.065C403.023 116.202 402.333 120.763 400.953 124.75C399.65 128.66 397.733 131.995 395.203 134.755C392.75 137.515 389.722 139.623 386.118 141.08C382.592 142.46 378.643 143.15 374.273 143.15C370.21 143.15 366.453 142.46 363.003 141.08C359.553 139.623 356.563 137.515 354.033 134.755C351.503 131.995 349.51 128.66 348.053 124.75C346.673 120.763 345.983 116.202 345.983 111.065C345.983 104.242 347.133 98.4917 349.433 93.815C351.733 89.0617 355.03 85.4583 359.323 83.005C363.617 80.475 368.715 79.21 374.618 79.21C380.215 79.21 385.122 80.475 389.338 83.005C393.632 85.4583 396.967 89.0617 399.343 93.815C401.797 98.4917 403.023 104.242 403.023 111.065ZM356.448 111.065C356.448 115.895 357.062 120.112 358.288 123.715C359.592 127.242 361.585 129.963 364.268 131.88C366.952 133.797 370.363 134.755 374.503 134.755C378.643 134.755 382.055 133.797 384.738 131.88C387.422 129.963 389.377 127.242 390.603 123.715C391.907 120.112 392.558 115.895 392.558 111.065C392.558 106.158 391.907 101.98 390.603 98.53C389.3 95.08 387.307 92.435 384.623 90.595C382.017 88.6783 378.605 87.72 374.388 87.72C368.102 87.72 363.54 89.79 360.703 93.93C357.867 98.07 356.448 103.782 356.448 111.065ZM443.787 143.15C438.344 143.15 433.475 142.038 429.182 139.815C424.965 137.592 421.63 134.142 419.177 129.465C416.8 124.788 415.612 118.808 415.612 111.525C415.612 103.935 416.877 97.7633 419.407 93.01C421.937 88.2567 425.349 84.7683 429.642 82.545C434.012 80.3217 438.957 79.21 444.477 79.21C447.62 79.21 450.649 79.555 453.562 80.245C456.475 80.8583 458.852 81.625 460.692 82.545L457.587 90.94C455.747 90.25 453.6 89.5983 451.147 88.985C448.694 88.3717 446.394 88.065 444.247 88.065C440.107 88.065 436.695 88.9467 434.012 90.71C431.329 92.4733 429.335 95.08 428.032 98.53C426.729 101.98 426.077 106.273 426.077 111.41C426.077 116.317 426.729 120.495 428.032 123.945C429.335 127.395 431.29 130.002 433.897 131.765C436.504 133.528 439.762 134.41 443.672 134.41C447.045 134.41 449.997 134.065 452.527 133.375C455.134 132.685 457.51 131.842 459.657 130.845V139.815C457.587 140.888 455.287 141.693 452.757 142.23C450.304 142.843 447.314 143.15 443.787 143.15ZM514.451 124.98C514.451 128.967 513.454 132.302 511.461 134.985C509.468 137.668 506.631 139.7 502.951 141.08C499.271 142.46 494.901 143.15 489.841 143.15C485.548 143.15 481.829 142.805 478.686 142.115C475.619 141.425 472.898 140.467 470.521 139.24V130.04C472.974 131.267 475.926 132.417 479.376 133.49C482.903 134.487 486.468 134.985 490.071 134.985C495.208 134.985 498.926 134.18 501.226 132.57C503.526 130.883 504.676 128.66 504.676 125.9C504.676 124.367 504.254 122.987 503.411 121.76C502.568 120.533 501.034 119.307 498.811 118.08C496.664 116.853 493.559 115.473 489.496 113.94C485.509 112.407 482.098 110.873 479.261 109.34C476.424 107.807 474.239 105.967 472.706 103.82C471.173 101.673 470.406 98.9133 470.406 95.54C470.406 90.3267 472.514 86.3017 476.731 83.465C481.024 80.6283 486.621 79.21 493.521 79.21C497.278 79.21 500.766 79.5933 503.986 80.36C507.283 81.05 510.349 82.0467 513.186 83.35L509.736 91.4C508.049 90.6333 506.248 89.9817 504.331 89.445C502.491 88.8317 500.613 88.3717 498.696 88.065C496.779 87.6817 494.824 87.49 492.831 87.49C488.691 87.49 485.509 88.18 483.286 89.56C481.139 90.8633 480.066 92.665 480.066 94.965C480.066 96.6517 480.564 98.1083 481.561 99.335C482.558 100.485 484.206 101.635 486.506 102.785C488.883 103.858 492.026 105.162 495.936 106.695C499.846 108.152 503.181 109.647 505.941 111.18C508.701 112.713 510.809 114.592 512.266 116.815C513.723 118.962 514.451 121.683 514.451 124.98ZM570.86 159.71H519.34V152.35H570.86V159.71ZM609.769 79.21C617.359 79.21 623.454 81.855 628.054 87.145C632.731 92.435 635.069 100.408 635.069 111.065C635.069 118.042 633.996 123.945 631.849 128.775C629.779 133.528 626.827 137.132 622.994 139.585C619.237 141.962 614.791 143.15 609.654 143.15C606.511 143.15 603.712 142.728 601.259 141.885C598.806 141.042 596.697 139.968 594.934 138.665C593.247 137.285 591.791 135.79 590.564 134.18H589.874C590.027 135.483 590.181 137.132 590.334 139.125C590.487 141.118 590.564 142.843 590.564 144.3V169.6H580.444V80.36H588.724L590.104 88.755H590.564C591.791 86.9917 593.247 85.3817 594.934 83.925C596.697 82.4683 598.767 81.3183 601.144 80.475C603.597 79.6317 606.472 79.21 609.769 79.21ZM607.929 87.72C603.789 87.72 600.454 88.525 597.924 90.135C595.394 91.6683 593.554 94.0067 592.404 97.15C591.254 100.293 590.641 104.28 590.564 109.11V111.065C590.564 116.125 591.101 120.418 592.174 123.945C593.247 127.472 595.049 130.155 597.579 131.995C600.186 133.835 603.712 134.755 608.159 134.755C611.916 134.755 614.982 133.72 617.359 131.65C619.812 129.58 621.614 126.782 622.764 123.255C623.991 119.652 624.604 115.55 624.604 110.95C624.604 103.897 623.224 98.2617 620.464 94.045C617.781 89.8283 613.602 87.72 607.929 87.72ZM702.716 80.36V142H694.436L692.941 133.835H692.481C691.178 135.982 689.491 137.745 687.421 139.125C685.351 140.505 683.089 141.502 680.636 142.115C678.183 142.805 675.614 143.15 672.931 143.15C668.024 143.15 663.884 142.383 660.511 140.85C657.214 139.24 654.723 136.787 653.036 133.49C651.349 130.193 650.506 125.938 650.506 120.725V80.36H660.741V120.035C660.741 124.942 661.853 128.622 664.076 131.075C666.299 133.528 669.749 134.755 674.426 134.755C679.026 134.755 682.629 133.912 685.236 132.225C687.919 130.462 689.798 127.932 690.871 124.635C692.021 121.262 692.596 117.198 692.596 112.445V80.36H702.716ZM789.905 79.21C796.881 79.21 802.095 81.0117 805.545 84.615C808.995 88.1417 810.72 93.8917 810.72 101.865V142H800.715V102.325C800.715 97.495 799.68 93.8533 797.61 91.4C795.616 88.9467 792.473 87.72 788.18 87.72C782.2 87.72 777.906 89.445 775.3 92.895C772.77 96.345 771.505 101.367 771.505 107.96V142H761.5V102.325C761.5 99.105 761.04 96.4217 760.12 94.275C759.2 92.0517 757.82 90.4033 755.98 89.33C754.14 88.2567 751.763 87.72 748.85 87.72C744.71 87.72 741.451 88.6017 739.075 90.365C736.698 92.0517 734.973 94.5433 733.9 97.84C732.903 101.137 732.405 105.2 732.405 110.03V142H722.285V80.36H730.45L731.945 88.755H732.52C733.823 86.6083 735.395 84.845 737.235 83.465C739.151 82.0083 741.26 80.935 743.56 80.245C745.86 79.555 748.236 79.21 750.69 79.21C755.443 79.21 759.391 80.0533 762.535 81.74C765.755 83.4267 768.093 86.0333 769.55 89.56H770.125C772.195 86.0333 774.993 83.4267 778.52 81.74C782.123 80.0533 785.918 79.21 789.905 79.21ZM839.88 142H829.76V54.6H839.88V142Z" fill="#9D3058"/>
<path d="M725.504 43.768C725.984 43.768 726.476 43.732 726.98 43.66C727.484 43.564 727.892 43.468 728.204 43.372V45.784C727.868 45.952 727.388 46.084 726.764 46.18C726.14 46.3 725.54 46.36 724.964 46.36C723.956 46.36 723.02 46.192 722.156 45.856C721.316 45.496 720.632 44.884 720.104 44.02C719.576 43.156 719.312 41.944 719.312 40.384V29.152H716.576V27.64L719.348 26.38L720.608 22.276H722.48V26.704H728.06V29.152H722.48V40.312C722.48 41.488 722.756 42.364 723.308 42.94C723.884 43.492 724.616 43.768 725.504 43.768ZM735.236 26.668C735.236 27.124 735.212 27.592 735.164 28.072C735.14 28.552 735.104 28.984 735.056 29.368H735.272C735.68 28.696 736.196 28.144 736.82 27.712C737.444 27.28 738.14 26.956 738.908 26.74C739.676 26.5 740.468 26.38 741.284 26.38C742.844 26.38 744.14 26.632 745.172 27.136C746.228 27.616 747.02 28.372 747.548 29.404C748.076 30.436 748.34 31.78 748.34 33.436V46H745.208V33.652C745.208 32.092 744.86 30.928 744.164 30.16C743.468 29.392 742.376 29.008 740.888 29.008C739.448 29.008 738.32 29.284 737.504 29.836C736.688 30.364 736.1 31.156 735.74 32.212C735.404 33.244 735.236 34.516 735.236 36.028V46H732.068V18.64H735.236V26.668ZM761.774 26.344C763.43 26.344 764.846 26.704 766.022 27.424C767.222 28.144 768.134 29.164 768.758 30.484C769.406 31.78 769.73 33.304 769.73 35.056V36.964H756.518C756.566 39.148 757.118 40.816 758.174 41.968C759.254 43.096 760.754 43.66 762.674 43.66C763.898 43.66 764.978 43.552 765.914 43.336C766.874 43.096 767.858 42.76 768.866 42.328V45.1C767.882 45.532 766.91 45.844 765.95 46.036C764.99 46.252 763.85 46.36 762.53 46.36C760.706 46.36 759.086 45.988 757.67 45.244C756.278 44.5 755.186 43.396 754.394 41.932C753.626 40.444 753.242 38.632 753.242 36.496C753.242 34.384 753.59 32.572 754.286 31.06C755.006 29.548 756.002 28.384 757.274 27.568C758.57 26.752 760.07 26.344 761.774 26.344ZM761.738 28.936C760.226 28.936 759.026 29.428 758.138 30.412C757.274 31.372 756.758 32.716 756.59 34.444H766.418C766.418 33.34 766.25 32.38 765.914 31.564C765.578 30.748 765.062 30.112 764.366 29.656C763.694 29.176 762.818 28.936 761.738 28.936ZM795.81 26.344C797.994 26.344 799.626 26.908 800.706 28.036C801.786 29.14 802.326 30.94 802.326 33.436V46H799.194V33.58C799.194 32.068 798.87 30.928 798.222 30.16C797.598 29.392 796.614 29.008 795.27 29.008C793.398 29.008 792.054 29.548 791.238 30.628C790.446 31.708 790.05 33.28 790.05 35.344V46H786.918V33.58C786.918 32.572 786.774 31.732 786.486 31.06C786.198 30.364 785.766 29.848 785.19 29.512C784.614 29.176 783.87 29.008 782.958 29.008C781.662 29.008 780.642 29.284 779.898 29.836C779.154 30.364 778.614 31.144 778.278 32.176C777.966 33.208 777.81 34.48 777.81 35.992V46H774.642V26.704H777.198L777.666 29.332H777.846C778.254 28.66 778.746 28.108 779.322 27.676C779.922 27.22 780.582 26.884 781.302 26.668C782.022 26.452 782.766 26.344 783.534 26.344C785.022 26.344 786.258 26.608 787.242 27.136C788.25 27.664 788.982 28.48 789.438 29.584H789.618C790.266 28.48 791.142 27.664 792.246 27.136C793.374 26.608 794.562 26.344 795.81 26.344ZM815.739 26.344C817.395 26.344 818.811 26.704 819.987 27.424C821.187 28.144 822.099 29.164 822.723 30.484C823.371 31.78 823.695 33.304 823.695 35.056V36.964H810.483C810.531 39.148 811.083 40.816 812.139 41.968C813.219 43.096 814.719 43.66 816.639 43.66C817.863 43.66 818.943 43.552 819.879 43.336C820.839 43.096 821.823 42.76 822.831 42.328V45.1C821.847 45.532 820.875 45.844 819.915 46.036C818.955 46.252 817.815 46.36 816.495 46.36C814.671 46.36 813.051 45.988 811.635 45.244C810.243 44.5 809.151 43.396 808.359 41.932C807.591 40.444 807.207 38.632 807.207 36.496C807.207 34.384 807.555 32.572 808.251 31.06C808.971 29.548 809.967 28.384 811.239 27.568C812.535 26.752 814.035 26.344 815.739 26.344ZM815.703 28.936C814.191 28.936 812.991 29.428 812.103 30.412C811.239 31.372 810.723 32.716 810.555 34.444H820.383C820.383 33.34 820.215 32.38 819.879 31.564C819.543 30.748 819.027 30.112 818.331 29.656C817.659 29.176 816.783 28.936 815.703 28.936ZM841.171 40.672C841.171 41.92 840.859 42.964 840.235 43.804C839.611 44.644 838.723 45.28 837.571 45.712C836.419 46.144 835.051 46.36 833.467 46.36C832.123 46.36 830.959 46.252 829.975 46.036C829.015 45.82 828.163 45.52 827.419 45.136V42.256C828.187 42.64 829.111 43 830.191 43.336C831.295 43.648 832.411 43.804 833.539 43.804C835.147 43.804 836.311 43.552 837.031 43.048C837.751 42.52 838.111 41.824 838.111 40.96C838.111 40.48 837.979 40.048 837.715 39.664C837.451 39.28 836.971 38.896 836.275 38.512C835.603 38.128 834.631 37.696 833.359 37.216C832.111 36.736 831.043 36.256 830.155 35.776C829.267 35.296 828.583 34.72 828.103 34.048C827.623 33.376 827.383 32.512 827.383 31.456C827.383 29.824 828.043 28.564 829.363 27.676C830.707 26.788 832.459 26.344 834.619 26.344C835.795 26.344 836.887 26.464 837.895 26.704C838.927 26.92 839.887 27.232 840.775 27.64L839.695 30.16C839.167 29.92 838.603 29.716 838.003 29.548C837.427 29.356 836.839 29.212 836.239 29.116C835.639 28.996 835.027 28.936 834.403 28.936C833.107 28.936 832.111 29.152 831.415 29.584C830.743 29.992 830.407 30.556 830.407 31.276C830.407 31.804 830.563 32.26 830.875 32.644C831.187 33.004 831.703 33.364 832.423 33.724C833.167 34.06 834.151 34.468 835.375 34.948C836.599 35.404 837.643 35.872 838.507 36.352C839.371 36.832 840.031 37.42 840.487 38.116C840.943 38.788 841.171 39.64 841.171 40.672Z" fill="#449C90"/>
</g>
<defs>
<clipPath id="clip0_129_117">
<rect width="850" height="163" fill="white"/>
</clipPath>
</defs>
</svg>
