<svg width="876" height="167" viewBox="0 0 876 167" fill="none" xmlns="http://www.w3.org/2000/svg">
<g clip-path="url(#clip0_102_20)">
<path d="M207.395 81.21C214.372 81.21 219.585 83.0117 223.035 86.615C226.485 90.1417 228.21 95.8917 228.21 103.865V144H218.205V104.325C218.205 99.495 217.17 95.8533 215.1 93.4C213.107 90.9467 209.963 89.72 205.67 89.72C199.69 89.72 195.397 91.445 192.79 94.895C190.26 98.345 188.995 103.367 188.995 109.96V144H178.99V104.325C178.99 101.105 178.53 98.4217 177.61 96.275C176.69 94.0517 175.31 92.4033 173.47 91.33C171.63 90.2567 169.253 89.72 166.34 89.72C162.2 89.72 158.942 90.6017 156.565 92.365C154.188 94.0517 152.463 96.5433 151.39 99.84C150.393 103.137 149.895 107.2 149.895 112.03V144H139.775V82.36H147.94L149.435 90.755H150.01C151.313 88.6083 152.885 86.845 154.725 85.465C156.642 84.0083 158.75 82.935 161.05 82.245C163.35 81.555 165.727 81.21 168.18 81.21C172.933 81.21 176.882 82.0533 180.025 83.74C183.245 85.4267 185.583 88.0333 187.04 91.56H187.615C189.685 88.0333 192.483 85.4267 196.01 83.74C199.613 82.0533 203.408 81.21 207.395 81.21ZM257.256 102.255C257.256 103.482 257.179 105.092 257.026 107.085C256.949 109.078 256.872 110.803 256.796 112.26H257.256C257.716 111.647 258.406 110.765 259.326 109.615C260.246 108.465 261.166 107.315 262.086 106.165C263.082 104.938 263.926 103.942 264.616 103.175L284.281 82.36H296.126L271.171 108.695L297.851 144H285.661L264.271 115.25L257.256 121.345V144H247.251V56.6H257.256V102.255ZM330.531 145.15C322.865 145.15 316.731 142.505 312.131 137.215C307.531 131.848 305.231 123.875 305.231 113.295C305.231 102.715 307.531 94.7417 312.131 89.375C316.808 83.9317 322.98 81.21 330.646 81.21C333.866 81.21 336.665 81.6317 339.041 82.475C341.418 83.2417 343.488 84.315 345.251 85.695C347.015 87.075 348.51 88.6083 349.736 90.295H350.426C350.35 89.2983 350.196 87.8417 349.966 85.925C349.813 83.9317 349.736 82.36 349.736 81.21V56.6H359.856V144H351.691L350.196 135.72H349.736C348.51 137.483 347.015 139.093 345.251 140.55C343.488 141.93 341.38 143.042 338.926 143.885C336.55 144.728 333.751 145.15 330.531 145.15ZM332.141 136.755C338.658 136.755 343.22 134.992 345.826 131.465C348.51 127.862 349.851 122.457 349.851 115.25V113.41C349.851 105.743 348.586 99.8783 346.056 95.815C343.526 91.675 338.85 89.605 332.026 89.605C326.583 89.605 322.481 91.79 319.721 96.16C317.038 100.453 315.696 106.242 315.696 113.525C315.696 120.885 317.038 126.597 319.721 130.66C322.481 134.723 326.621 136.755 332.141 136.755ZM433.023 113.065C433.023 118.202 432.333 122.763 430.953 126.75C429.65 130.66 427.733 133.995 425.203 136.755C422.75 139.515 419.722 141.623 416.118 143.08C412.592 144.46 408.643 145.15 404.273 145.15C400.21 145.15 396.453 144.46 393.003 143.08C389.553 141.623 386.563 139.515 384.033 136.755C381.503 133.995 379.51 130.66 378.053 126.75C376.673 122.763 375.983 118.202 375.983 113.065C375.983 106.242 377.133 100.492 379.433 95.815C381.733 91.0617 385.03 87.4583 389.323 85.005C393.617 82.475 398.715 81.21 404.618 81.21C410.215 81.21 415.122 82.475 419.338 85.005C423.632 87.4583 426.967 91.0617 429.343 95.815C431.797 100.492 433.023 106.242 433.023 113.065ZM386.448 113.065C386.448 117.895 387.062 122.112 388.288 125.715C389.592 129.242 391.585 131.963 394.268 133.88C396.952 135.797 400.363 136.755 404.503 136.755C408.643 136.755 412.055 135.797 414.738 133.88C417.422 131.963 419.377 129.242 420.603 125.715C421.907 122.112 422.558 117.895 422.558 113.065C422.558 108.158 421.907 103.98 420.603 100.53C419.3 97.08 417.307 94.435 414.623 92.595C412.017 90.6783 408.605 89.72 404.388 89.72C398.102 89.72 393.54 91.79 390.703 95.93C387.867 100.07 386.448 105.782 386.448 113.065ZM473.787 145.15C468.344 145.15 463.475 144.038 459.182 141.815C454.965 139.592 451.63 136.142 449.177 131.465C446.8 126.788 445.612 120.808 445.612 113.525C445.612 105.935 446.877 99.7633 449.407 95.01C451.937 90.2567 455.349 86.7683 459.642 84.545C464.012 82.3217 468.957 81.21 474.477 81.21C477.62 81.21 480.649 81.555 483.562 82.245C486.475 82.8583 488.852 83.625 490.692 84.545L487.587 92.94C485.747 92.25 483.6 91.5983 481.147 90.985C478.694 90.3717 476.394 90.065 474.247 90.065C470.107 90.065 466.695 90.9467 464.012 92.71C461.329 94.4733 459.335 97.08 458.032 100.53C456.729 103.98 456.077 108.273 456.077 113.41C456.077 118.317 456.729 122.495 458.032 125.945C459.335 129.395 461.29 132.002 463.897 133.765C466.504 135.528 469.762 136.41 473.672 136.41C477.045 136.41 479.997 136.065 482.527 135.375C485.134 134.685 487.51 133.842 489.657 132.845V141.815C487.587 142.888 485.287 143.693 482.757 144.23C480.304 144.843 477.314 145.15 473.787 145.15ZM544.451 126.98C544.451 130.967 543.454 134.302 541.461 136.985C539.468 139.668 536.631 141.7 532.951 143.08C529.271 144.46 524.901 145.15 519.841 145.15C515.548 145.15 511.829 144.805 508.686 144.115C505.619 143.425 502.898 142.467 500.521 141.24V132.04C502.974 133.267 505.926 134.417 509.376 135.49C512.903 136.487 516.468 136.985 520.071 136.985C525.208 136.985 528.926 136.18 531.226 134.57C533.526 132.883 534.676 130.66 534.676 127.9C534.676 126.367 534.254 124.987 533.411 123.76C532.568 122.533 531.034 121.307 528.811 120.08C526.664 118.853 523.559 117.473 519.496 115.94C515.509 114.407 512.098 112.873 509.261 111.34C506.424 109.807 504.239 107.967 502.706 105.82C501.173 103.673 500.406 100.913 500.406 97.54C500.406 92.3267 502.514 88.3017 506.731 85.465C511.024 82.6283 516.621 81.21 523.521 81.21C527.278 81.21 530.766 81.5933 533.986 82.36C537.283 83.05 540.349 84.0467 543.186 85.35L539.736 93.4C538.049 92.6333 536.248 91.9817 534.331 91.445C532.491 90.8317 530.613 90.3717 528.696 90.065C526.779 89.6817 524.824 89.49 522.831 89.49C518.691 89.49 515.509 90.18 513.286 91.56C511.139 92.8633 510.066 94.665 510.066 96.965C510.066 98.6517 510.564 100.108 511.561 101.335C512.558 102.485 514.206 103.635 516.506 104.785C518.883 105.858 522.026 107.162 525.936 108.695C529.846 110.152 533.181 111.647 535.941 113.18C538.701 114.713 540.809 116.592 542.266 118.815C543.723 120.962 544.451 123.683 544.451 126.98ZM600.86 161.71H549.34V154.35H600.86V161.71ZM639.769 81.21C647.359 81.21 653.454 83.855 658.054 89.145C662.731 94.435 665.069 102.408 665.069 113.065C665.069 120.042 663.996 125.945 661.849 130.775C659.779 135.528 656.827 139.132 652.994 141.585C649.237 143.962 644.791 145.15 639.654 145.15C636.511 145.15 633.712 144.728 631.259 143.885C628.806 143.042 626.697 141.968 624.934 140.665C623.247 139.285 621.791 137.79 620.564 136.18H619.874C620.027 137.483 620.181 139.132 620.334 141.125C620.487 143.118 620.564 144.843 620.564 146.3V171.6H610.444V82.36H618.724L620.104 90.755H620.564C621.791 88.9917 623.247 87.3817 624.934 85.925C626.697 84.4683 628.767 83.3183 631.144 82.475C633.597 81.6317 636.472 81.21 639.769 81.21ZM637.929 89.72C633.789 89.72 630.454 90.525 627.924 92.135C625.394 93.6683 623.554 96.0067 622.404 99.15C621.254 102.293 620.641 106.28 620.564 111.11V113.065C620.564 118.125 621.101 122.418 622.174 125.945C623.247 129.472 625.049 132.155 627.579 133.995C630.186 135.835 633.712 136.755 638.159 136.755C641.916 136.755 644.982 135.72 647.359 133.65C649.812 131.58 651.614 128.782 652.764 125.255C653.991 121.652 654.604 117.55 654.604 112.95C654.604 105.897 653.224 100.262 650.464 96.045C647.781 91.8283 643.602 89.72 637.929 89.72ZM732.716 82.36V144H724.436L722.941 135.835H722.481C721.178 137.982 719.491 139.745 717.421 141.125C715.351 142.505 713.089 143.502 710.636 144.115C708.183 144.805 705.614 145.15 702.931 145.15C698.024 145.15 693.884 144.383 690.511 142.85C687.214 141.24 684.723 138.787 683.036 135.49C681.349 132.193 680.506 127.938 680.506 122.725V82.36H690.741V122.035C690.741 126.942 691.853 130.622 694.076 133.075C696.299 135.528 699.749 136.755 704.426 136.755C709.026 136.755 712.629 135.912 715.236 134.225C717.919 132.462 719.798 129.932 720.871 126.635C722.021 123.262 722.596 119.198 722.596 114.445V82.36H732.716ZM819.905 81.21C826.881 81.21 832.095 83.0117 835.545 86.615C838.995 90.1417 840.72 95.8917 840.72 103.865V144H830.715V104.325C830.715 99.495 829.68 95.8533 827.61 93.4C825.616 90.9467 822.473 89.72 818.18 89.72C812.2 89.72 807.906 91.445 805.3 94.895C802.77 98.345 801.505 103.367 801.505 109.96V144H791.5V104.325C791.5 101.105 791.04 98.4217 790.12 96.275C789.2 94.0517 787.82 92.4033 785.98 91.33C784.14 90.2567 781.763 89.72 778.85 89.72C774.71 89.72 771.451 90.6017 769.075 92.365C766.698 94.0517 764.973 96.5433 763.9 99.84C762.903 103.137 762.405 107.2 762.405 112.03V144H752.285V82.36H760.45L761.945 90.755H762.52C763.823 88.6083 765.395 86.845 767.235 85.465C769.151 84.0083 771.26 82.935 773.56 82.245C775.86 81.555 778.236 81.21 780.69 81.21C785.443 81.21 789.391 82.0533 792.535 83.74C795.755 85.4267 798.093 88.0333 799.55 91.56H800.125C802.195 88.0333 804.993 85.4267 808.52 83.74C812.123 82.0533 815.918 81.21 819.905 81.21ZM869.88 144H859.76V56.6H869.88V144Z" fill="#9D3058"/>
<path d="M7.01752 122.76C9.2902 126.681 12.0868 130.332 15.3769 133.623C25.2935 143.539 38.477 149 52.5 149C66.5238 149 79.7073 143.539 89.6231 133.623C92.914 130.332 95.7098 126.681 97.9825 122.76C102.559 114.863 105 105.87 105 96.5C105 87.1297 102.559 78.1367 97.9825 70.2404C95.7098 66.3191 92.9132 62.6669 89.6231 59.3769C79.7073 49.461 66.5238 44 52.5 44C38.477 44 25.2927 49.461 15.3769 59.3769C12.086 62.6669 9.2894 66.3191 7.01752 70.2404C2.44091 78.1367 0 87.1305 0 96.5C0 105.87 2.44091 114.863 7.01752 122.76ZM39.1018 96.5C39.1018 94.0615 39.7595 91.776 40.9027 89.8037C43.2226 85.8015 47.5501 83.101 52.5 83.101C57.4499 83.101 61.7774 85.8015 64.0981 89.8037C65.2405 91.7752 65.899 94.0615 65.899 96.5C65.899 98.9385 65.2405 101.224 64.0981 103.195C61.7782 107.199 57.4499 109.898 52.5 109.898C47.5501 109.898 43.2226 107.199 40.9019 103.195C39.7595 101.224 39.1018 98.9385 39.1018 96.5Z" fill="#FF8398"/>
<path d="M52.5001 129.449V149C66.5239 149 79.7073 143.539 89.6232 133.623C92.9141 130.332 95.7098 126.681 97.9825 122.76L81.0388 112.977C75.3414 122.824 64.695 129.449 52.5001 129.449Z" fill="#54E360"/>
<path d="M85.4495 96.5C85.4495 102.503 83.8433 108.13 81.0387 112.977L97.9825 122.76C102.559 114.863 105 105.87 105 96.5C105 87.1297 102.559 78.1367 97.9825 70.2404L81.0387 80.0224C83.8433 84.8698 85.4495 90.4974 85.4495 96.5Z" fill="#008ADF"/>
<path d="M23.9613 112.977L7.01755 122.76C9.29023 126.681 12.0868 130.332 15.3769 133.623C25.2935 143.539 38.477 149 52.5 149V129.449C40.3051 129.449 29.6586 122.824 23.9613 112.977Z" fill="#FFD400"/>
<path d="M81.0387 80.0225L97.9825 70.2404C95.7098 66.3191 92.9132 62.6669 89.6232 59.3769C79.7073 49.461 66.5238 44 52.5 44V63.5505C64.695 63.5505 75.3414 70.1763 81.0387 80.0225Z" fill="#0065A3"/>
<path d="M7.01755 122.76L23.9613 112.977C21.1567 108.13 19.5513 102.503 19.5513 96.5C19.5513 90.4974 21.1567 84.8698 23.9613 80.0232L7.01755 70.2404C2.44094 78.1367 3.05176e-05 87.1305 3.05176e-05 96.5C3.05176e-05 105.869 2.44094 114.863 7.01755 122.76Z" fill="#FF9100"/>
<path d="M52.5 63.5505V44C38.477 44 25.2927 49.461 15.3769 59.3769C12.086 62.6669 9.28943 66.3191 7.01755 70.2404L23.9613 80.0233C29.6586 70.1763 40.3051 63.5505 52.5 63.5505Z" fill="#FF4949"/>
<path d="M65.899 96.5C65.899 98.9385 65.2405 101.224 64.0981 103.195L81.0387 112.977C83.8433 108.13 85.4495 102.503 85.4495 96.5C85.4495 90.4967 83.8433 84.8698 81.0387 80.0225L64.0981 89.8037C65.2405 91.7752 65.899 94.0615 65.899 96.5Z" fill="#0065A3"/>
<path d="M64.0982 89.8037L81.0388 80.0232C75.3414 70.1763 64.695 63.5505 52.5001 63.5505V83.101C57.45 83.101 61.7774 85.8015 64.0982 89.8037Z" fill="#005183"/>
<path d="M52.5001 109.898V129.449C64.695 129.449 75.3414 122.824 81.0388 112.977L64.0982 103.196C61.7782 107.199 57.45 109.898 52.5001 109.898Z" fill="#00AB5E"/>
<path d="M52.5 129.449V109.898C47.5501 109.898 43.2226 107.199 40.9019 103.195L23.9613 112.977C29.6586 122.824 40.3051 129.449 52.5 129.449Z" fill="#FF9F04"/>
<path d="M39.1018 96.5C39.1018 94.0615 39.7595 91.776 40.9027 89.8037L23.9613 80.0233C21.1567 84.8698 19.5513 90.4975 19.5513 96.5C19.5513 102.503 21.1567 108.13 23.9613 112.977L40.9019 103.195C39.7595 101.224 39.1018 98.9385 39.1018 96.5Z" fill="#FF4B00"/>
<path d="M52.5 83.101V63.5505C40.3051 63.5505 29.6586 70.1763 23.9613 80.0232L40.9027 89.8037C43.2226 85.8015 47.5501 83.101 52.5 83.101Z" fill="#E80048"/>
<path d="M754.504 46.768C754.984 46.768 755.476 46.732 755.98 46.66C756.484 46.564 756.892 46.468 757.204 46.372V48.784C756.868 48.952 756.388 49.084 755.764 49.18C755.14 49.3 754.54 49.36 753.964 49.36C752.956 49.36 752.02 49.192 751.156 48.856C750.316 48.496 749.632 47.884 749.104 47.02C748.576 46.156 748.312 44.944 748.312 43.384V32.152H745.576V30.64L748.348 29.38L749.608 25.276H751.48V29.704H757.06V32.152H751.48V43.312C751.48 44.488 751.756 45.364 752.308 45.94C752.884 46.492 753.616 46.768 754.504 46.768ZM764.236 29.668C764.236 30.124 764.212 30.592 764.164 31.072C764.14 31.552 764.104 31.984 764.056 32.368H764.272C764.68 31.696 765.196 31.144 765.82 30.712C766.444 30.28 767.14 29.956 767.908 29.74C768.676 29.5 769.468 29.38 770.284 29.38C771.844 29.38 773.14 29.632 774.172 30.136C775.228 30.616 776.02 31.372 776.548 32.404C777.076 33.436 777.34 34.78 777.34 36.436V49H774.208V36.652C774.208 35.092 773.86 33.928 773.164 33.16C772.468 32.392 771.376 32.008 769.888 32.008C768.448 32.008 767.32 32.284 766.504 32.836C765.688 33.364 765.1 34.156 764.74 35.212C764.404 36.244 764.236 37.516 764.236 39.028V49H761.068V21.64H764.236V29.668ZM790.774 29.344C792.43 29.344 793.846 29.704 795.022 30.424C796.222 31.144 797.134 32.164 797.758 33.484C798.406 34.78 798.73 36.304 798.73 38.056V39.964H785.518C785.566 42.148 786.118 43.816 787.174 44.968C788.254 46.096 789.754 46.66 791.674 46.66C792.898 46.66 793.978 46.552 794.914 46.336C795.874 46.096 796.858 45.76 797.866 45.328V48.1C796.882 48.532 795.91 48.844 794.95 49.036C793.99 49.252 792.85 49.36 791.53 49.36C789.706 49.36 788.086 48.988 786.67 48.244C785.278 47.5 784.186 46.396 783.394 44.932C782.626 43.444 782.242 41.632 782.242 39.496C782.242 37.384 782.59 35.572 783.286 34.06C784.006 32.548 785.002 31.384 786.274 30.568C787.57 29.752 789.07 29.344 790.774 29.344ZM790.738 31.936C789.226 31.936 788.026 32.428 787.138 33.412C786.274 34.372 785.758 35.716 785.59 37.444H795.418C795.418 36.34 795.25 35.38 794.914 34.564C794.578 33.748 794.062 33.112 793.366 32.656C792.694 32.176 791.818 31.936 790.738 31.936ZM824.81 29.344C826.994 29.344 828.626 29.908 829.706 31.036C830.786 32.14 831.326 33.94 831.326 36.436V49H828.194V36.58C828.194 35.068 827.87 33.928 827.222 33.16C826.598 32.392 825.614 32.008 824.27 32.008C822.398 32.008 821.054 32.548 820.238 33.628C819.446 34.708 819.05 36.28 819.05 38.344V49H815.918V36.58C815.918 35.572 815.774 34.732 815.486 34.06C815.198 33.364 814.766 32.848 814.19 32.512C813.614 32.176 812.87 32.008 811.958 32.008C810.662 32.008 809.642 32.284 808.898 32.836C808.154 33.364 807.614 34.144 807.278 35.176C806.966 36.208 806.81 37.48 806.81 38.992V49H803.642V29.704H806.198L806.666 32.332H806.846C807.254 31.66 807.746 31.108 808.322 30.676C808.922 30.22 809.582 29.884 810.302 29.668C811.022 29.452 811.766 29.344 812.534 29.344C814.022 29.344 815.258 29.608 816.242 30.136C817.25 30.664 817.982 31.48 818.438 32.584H818.618C819.266 31.48 820.142 30.664 821.246 30.136C822.374 29.608 823.562 29.344 824.81 29.344ZM844.739 29.344C846.395 29.344 847.811 29.704 848.987 30.424C850.187 31.144 851.099 32.164 851.723 33.484C852.371 34.78 852.695 36.304 852.695 38.056V39.964H839.483C839.531 42.148 840.083 43.816 841.139 44.968C842.219 46.096 843.719 46.66 845.639 46.66C846.863 46.66 847.943 46.552 848.879 46.336C849.839 46.096 850.823 45.76 851.831 45.328V48.1C850.847 48.532 849.875 48.844 848.915 49.036C847.955 49.252 846.815 49.36 845.495 49.36C843.671 49.36 842.051 48.988 840.635 48.244C839.243 47.5 838.151 46.396 837.359 44.932C836.591 43.444 836.207 41.632 836.207 39.496C836.207 37.384 836.555 35.572 837.251 34.06C837.971 32.548 838.967 31.384 840.239 30.568C841.535 29.752 843.035 29.344 844.739 29.344ZM844.703 31.936C843.191 31.936 841.991 32.428 841.103 33.412C840.239 34.372 839.723 35.716 839.555 37.444H849.383C849.383 36.34 849.215 35.38 848.879 34.564C848.543 33.748 848.027 33.112 847.331 32.656C846.659 32.176 845.783 31.936 844.703 31.936ZM870.171 43.672C870.171 44.92 869.859 45.964 869.235 46.804C868.611 47.644 867.723 48.28 866.571 48.712C865.419 49.144 864.051 49.36 862.467 49.36C861.123 49.36 859.959 49.252 858.975 49.036C858.015 48.82 857.163 48.52 856.419 48.136V45.256C857.187 45.64 858.111 46 859.191 46.336C860.295 46.648 861.411 46.804 862.539 46.804C864.147 46.804 865.311 46.552 866.031 46.048C866.751 45.52 867.111 44.824 867.111 43.96C867.111 43.48 866.979 43.048 866.715 42.664C866.451 42.28 865.971 41.896 865.275 41.512C864.603 41.128 863.631 40.696 862.359 40.216C861.111 39.736 860.043 39.256 859.155 38.776C858.267 38.296 857.583 37.72 857.103 37.048C856.623 36.376 856.383 35.512 856.383 34.456C856.383 32.824 857.043 31.564 858.363 30.676C859.707 29.788 861.459 29.344 863.619 29.344C864.795 29.344 865.887 29.464 866.895 29.704C867.927 29.92 868.887 30.232 869.775 30.64L868.695 33.16C868.167 32.92 867.603 32.716 867.003 32.548C866.427 32.356 865.839 32.212 865.239 32.116C864.639 31.996 864.027 31.936 863.403 31.936C862.107 31.936 861.111 32.152 860.415 32.584C859.743 32.992 859.407 33.556 859.407 34.276C859.407 34.804 859.563 35.26 859.875 35.644C860.187 36.004 860.703 36.364 861.423 36.724C862.167 37.06 863.151 37.468 864.375 37.948C865.599 38.404 866.643 38.872 867.507 39.352C868.371 39.832 869.031 40.42 869.487 41.116C869.943 41.788 870.171 42.64 870.171 43.672Z" fill="#00AB5E"/>
</g>
<defs>
<clipPath id="clip0_102_20">
<rect width="876" height="167" fill="white"/>
</clipPath>
</defs>
</svg>
