<svg width="1033" height="167" viewBox="0 0 1033 167" fill="none" xmlns="http://www.w3.org/2000/svg">
<g clip-path="url(#clip0_0_3)">
<path d="M207.395 79.21C214.372 79.21 219.585 81.0117 223.035 84.615C226.485 88.1417 228.21 93.8917 228.21 101.865V142H218.205V102.325C218.205 97.495 217.17 93.8533 215.1 91.4C213.107 88.9467 209.963 87.72 205.67 87.72C199.69 87.72 195.397 89.445 192.79 92.895C190.26 96.345 188.995 101.367 188.995 107.96V142H178.99V102.325C178.99 99.105 178.53 96.4217 177.61 94.275C176.69 92.0517 175.31 90.4033 173.47 89.33C171.63 88.2567 169.253 87.72 166.34 87.72C162.2 87.72 158.942 88.6017 156.565 90.365C154.188 92.0517 152.463 94.5433 151.39 97.84C150.393 101.137 149.895 105.2 149.895 110.03V142H139.775V80.36H147.94L149.435 88.755H150.01C151.313 86.6083 152.885 84.845 154.725 83.465C156.642 82.0083 158.75 80.935 161.05 80.245C163.35 79.555 165.727 79.21 168.18 79.21C172.933 79.21 176.882 80.0533 180.025 81.74C183.245 83.4267 185.583 86.0333 187.04 89.56H187.615C189.685 86.0333 192.483 83.4267 196.01 81.74C199.613 80.0533 203.408 79.21 207.395 79.21ZM257.256 100.255C257.256 101.482 257.179 103.092 257.026 105.085C256.949 107.078 256.872 108.803 256.796 110.26H257.256C257.716 109.647 258.406 108.765 259.326 107.615C260.246 106.465 261.166 105.315 262.086 104.165C263.082 102.938 263.926 101.942 264.616 101.175L284.281 80.36H296.126L271.171 106.695L297.851 142H285.661L264.271 113.25L257.256 119.345V142H247.251V54.6H257.256V100.255ZM330.531 143.15C322.865 143.15 316.731 140.505 312.131 135.215C307.531 129.848 305.231 121.875 305.231 111.295C305.231 100.715 307.531 92.7417 312.131 87.375C316.808 81.9317 322.98 79.21 330.646 79.21C333.866 79.21 336.665 79.6317 339.041 80.475C341.418 81.2417 343.488 82.315 345.251 83.695C347.015 85.075 348.51 86.6083 349.736 88.295H350.426C350.35 87.2983 350.196 85.8417 349.966 83.925C349.813 81.9317 349.736 80.36 349.736 79.21V54.6H359.856V142H351.691L350.196 133.72H349.736C348.51 135.483 347.015 137.093 345.251 138.55C343.488 139.93 341.38 141.042 338.926 141.885C336.55 142.728 333.751 143.15 330.531 143.15ZM332.141 134.755C338.658 134.755 343.22 132.992 345.826 129.465C348.51 125.862 349.851 120.457 349.851 113.25V111.41C349.851 103.743 348.586 97.8783 346.056 93.815C343.526 89.675 338.85 87.605 332.026 87.605C326.583 87.605 322.481 89.79 319.721 94.16C317.038 98.4533 315.696 104.242 315.696 111.525C315.696 118.885 317.038 124.597 319.721 128.66C322.481 132.723 326.621 134.755 332.141 134.755ZM433.023 111.065C433.023 116.202 432.333 120.763 430.953 124.75C429.65 128.66 427.733 131.995 425.203 134.755C422.75 137.515 419.722 139.623 416.118 141.08C412.592 142.46 408.643 143.15 404.273 143.15C400.21 143.15 396.453 142.46 393.003 141.08C389.553 139.623 386.563 137.515 384.033 134.755C381.503 131.995 379.51 128.66 378.053 124.75C376.673 120.763 375.983 116.202 375.983 111.065C375.983 104.242 377.133 98.4917 379.433 93.815C381.733 89.0617 385.03 85.4583 389.323 83.005C393.617 80.475 398.715 79.21 404.618 79.21C410.215 79.21 415.122 80.475 419.338 83.005C423.632 85.4583 426.967 89.0617 429.343 93.815C431.797 98.4917 433.023 104.242 433.023 111.065ZM386.448 111.065C386.448 115.895 387.062 120.112 388.288 123.715C389.592 127.242 391.585 129.963 394.268 131.88C396.952 133.797 400.363 134.755 404.503 134.755C408.643 134.755 412.055 133.797 414.738 131.88C417.422 129.963 419.377 127.242 420.603 123.715C421.907 120.112 422.558 115.895 422.558 111.065C422.558 106.158 421.907 101.98 420.603 98.53C419.3 95.08 417.307 92.435 414.623 90.595C412.017 88.6783 408.605 87.72 404.388 87.72C398.102 87.72 393.54 89.79 390.703 93.93C387.867 98.07 386.448 103.782 386.448 111.065ZM473.787 143.15C468.344 143.15 463.475 142.038 459.182 139.815C454.965 137.592 451.63 134.142 449.177 129.465C446.8 124.788 445.612 118.808 445.612 111.525C445.612 103.935 446.877 97.7633 449.407 93.01C451.937 88.2567 455.349 84.7683 459.642 82.545C464.012 80.3217 468.957 79.21 474.477 79.21C477.62 79.21 480.649 79.555 483.562 80.245C486.475 80.8583 488.852 81.625 490.692 82.545L487.587 90.94C485.747 90.25 483.6 89.5983 481.147 88.985C478.694 88.3717 476.394 88.065 474.247 88.065C470.107 88.065 466.695 88.9467 464.012 90.71C461.329 92.4733 459.335 95.08 458.032 98.53C456.729 101.98 456.077 106.273 456.077 111.41C456.077 116.317 456.729 120.495 458.032 123.945C459.335 127.395 461.29 130.002 463.897 131.765C466.504 133.528 469.762 134.41 473.672 134.41C477.045 134.41 479.997 134.065 482.527 133.375C485.134 132.685 487.51 131.842 489.657 130.845V139.815C487.587 140.888 485.287 141.693 482.757 142.23C480.304 142.843 477.314 143.15 473.787 143.15ZM544.451 124.98C544.451 128.967 543.454 132.302 541.461 134.985C539.468 137.668 536.631 139.7 532.951 141.08C529.271 142.46 524.901 143.15 519.841 143.15C515.548 143.15 511.829 142.805 508.686 142.115C505.619 141.425 502.898 140.467 500.521 139.24V130.04C502.974 131.267 505.926 132.417 509.376 133.49C512.903 134.487 516.468 134.985 520.071 134.985C525.208 134.985 528.926 134.18 531.226 132.57C533.526 130.883 534.676 128.66 534.676 125.9C534.676 124.367 534.254 122.987 533.411 121.76C532.568 120.533 531.034 119.307 528.811 118.08C526.664 116.853 523.559 115.473 519.496 113.94C515.509 112.407 512.098 110.873 509.261 109.34C506.424 107.807 504.239 105.967 502.706 103.82C501.173 101.673 500.406 98.9133 500.406 95.54C500.406 90.3267 502.514 86.3017 506.731 83.465C511.024 80.6283 516.621 79.21 523.521 79.21C527.278 79.21 530.766 79.5933 533.986 80.36C537.283 81.05 540.349 82.0467 543.186 83.35L539.736 91.4C538.049 90.6333 536.248 89.9817 534.331 89.445C532.491 88.8317 530.613 88.3717 528.696 88.065C526.779 87.6817 524.824 87.49 522.831 87.49C518.691 87.49 515.509 88.18 513.286 89.56C511.139 90.8633 510.066 92.665 510.066 94.965C510.066 96.6517 510.564 98.1083 511.561 99.335C512.558 100.485 514.206 101.635 516.506 102.785C518.883 103.858 522.026 105.162 525.936 106.695C529.846 108.152 533.181 109.647 535.941 111.18C538.701 112.713 540.809 114.592 542.266 116.815C543.723 118.962 544.451 121.683 544.451 124.98ZM600.86 159.71H549.34V152.35H600.86V159.71ZM639.769 79.21C647.359 79.21 653.454 81.855 658.054 87.145C662.731 92.435 665.069 100.408 665.069 111.065C665.069 118.042 663.996 123.945 661.849 128.775C659.779 133.528 656.827 137.132 652.994 139.585C649.237 141.962 644.791 143.15 639.654 143.15C636.511 143.15 633.712 142.728 631.259 141.885C628.806 141.042 626.697 139.968 624.934 138.665C623.247 137.285 621.791 135.79 620.564 134.18H619.874C620.027 135.483 620.181 137.132 620.334 139.125C620.487 141.118 620.564 142.843 620.564 144.3V169.6H610.444V80.36H618.724L620.104 88.755H620.564C621.791 86.9917 623.247 85.3817 624.934 83.925C626.697 82.4683 628.767 81.3183 631.144 80.475C633.597 79.6317 636.472 79.21 639.769 79.21ZM637.929 87.72C633.789 87.72 630.454 88.525 627.924 90.135C625.394 91.6683 623.554 94.0067 622.404 97.15C621.254 100.293 620.641 104.28 620.564 109.11V111.065C620.564 116.125 621.101 120.418 622.174 123.945C623.247 127.472 625.049 130.155 627.579 131.995C630.186 133.835 633.712 134.755 638.159 134.755C641.916 134.755 644.982 133.72 647.359 131.65C649.812 129.58 651.614 126.782 652.764 123.255C653.991 119.652 654.604 115.55 654.604 110.95C654.604 103.897 653.224 98.2617 650.464 94.045C647.781 89.8283 643.602 87.72 637.929 87.72ZM732.716 80.36V142H724.436L722.941 133.835H722.481C721.178 135.982 719.491 137.745 717.421 139.125C715.351 140.505 713.089 141.502 710.636 142.115C708.183 142.805 705.614 143.15 702.931 143.15C698.024 143.15 693.884 142.383 690.511 140.85C687.214 139.24 684.723 136.787 683.036 133.49C681.349 130.193 680.506 125.938 680.506 120.725V80.36H690.741V120.035C690.741 124.942 691.853 128.622 694.076 131.075C696.299 133.528 699.749 134.755 704.426 134.755C709.026 134.755 712.629 133.912 715.236 132.225C717.919 130.462 719.798 127.932 720.871 124.635C722.021 121.262 722.596 117.198 722.596 112.445V80.36H732.716ZM819.905 79.21C826.881 79.21 832.095 81.0117 835.545 84.615C838.995 88.1417 840.72 93.8917 840.72 101.865V142H830.715V102.325C830.715 97.495 829.68 93.8533 827.61 91.4C825.616 88.9467 822.473 87.72 818.18 87.72C812.2 87.72 807.906 89.445 805.3 92.895C802.77 96.345 801.505 101.367 801.505 107.96V142H791.5V102.325C791.5 99.105 791.04 96.4217 790.12 94.275C789.2 92.0517 787.82 90.4033 785.98 89.33C784.14 88.2567 781.763 87.72 778.85 87.72C774.71 87.72 771.451 88.6017 769.075 90.365C766.698 92.0517 764.973 94.5433 763.9 97.84C762.903 101.137 762.405 105.2 762.405 110.03V142H752.285V80.36H760.45L761.945 88.755H762.52C763.823 86.6083 765.395 84.845 767.235 83.465C769.151 82.0083 771.26 80.935 773.56 80.245C775.86 79.555 778.236 79.21 780.69 79.21C785.443 79.21 789.391 80.0533 792.535 81.74C795.755 83.4267 798.093 86.0333 799.55 89.56H800.125C802.195 86.0333 804.993 83.4267 808.52 81.74C812.123 80.0533 815.918 79.21 819.905 79.21ZM869.88 142H859.76V54.6H869.88V142Z" fill="#9D3058"/>
<path d="M102.17 90C103.733 90 105 91.2671 105 92.8302V109.811C105 126.484 91.4841 140 74.8113 140V140C73.811 140 73 139.189 73 138.189V93C73 91.3431 74.3431 90 76 90H102.17Z" fill="#B475DB"/>
<rect x="68.5" y="90" width="50" height="32" rx="3" transform="rotate(90 68.5 90)" fill="#E18E8E"/>
<rect x="68.5" y="35" width="50" height="32" rx="3" transform="rotate(90 68.5 35)" fill="#5CB8AB"/>
<path d="M30.1887 35C31.189 35 32 35.811 32 36.8113V82C32 83.6569 30.6569 85 29 85H2.83019C1.26712 85 0 83.7329 0 82.1698V65.1887C0 48.5159 13.5159 35 30.1887 35V35Z" fill="#86CD6F"/>
<circle cx="16.5" cy="115.5" r="15.5" transform="rotate(90 16.5 115.5)" fill="#E2B55A"/>
<path d="M88.5 76C79.9396 76 73 69.0604 73 60.5C73 51.9396 79.9396 45 88.5 45C97.0604 45 104 51.9396 104 60.5C104 69.0604 97.0604 76 88.5 76Z" fill="#45ABD8"/>
</g>
<defs>
<clipPath id="clip0_0_3">
<rect width="1033" height="167" fill="white"/>
</clipPath>
</defs>
</svg>
