<svg width="857" height="129" viewBox="0 0 857 129" fill="none" xmlns="http://www.w3.org/2000/svg">
<g clip-path="url(#clip0_129_65)">
<path d="M177.395 45.21C184.372 45.21 189.585 47.0117 193.035 50.615C196.485 54.1417 198.21 59.8917 198.21 67.865V108H188.205V68.325C188.205 63.495 187.17 59.8533 185.1 57.4C183.107 54.9467 179.963 53.72 175.67 53.72C169.69 53.72 165.397 55.445 162.79 58.895C160.26 62.345 158.995 67.3667 158.995 73.96V108H148.99V68.325C148.99 65.105 148.53 62.4217 147.61 60.275C146.69 58.0517 145.31 56.4033 143.47 55.33C141.63 54.2567 139.253 53.72 136.34 53.72C132.2 53.72 128.942 54.6017 126.565 56.365C124.188 58.0517 122.463 60.5433 121.39 63.84C120.393 67.1367 119.895 71.2 119.895 76.03V108H109.775V46.36H117.94L119.435 54.755H120.01C121.313 52.6083 122.885 50.845 124.725 49.465C126.642 48.0083 128.75 46.935 131.05 46.245C133.35 45.555 135.727 45.21 138.18 45.21C142.933 45.21 146.882 46.0533 150.025 47.74C153.245 49.4267 155.583 52.0333 157.04 55.56H157.615C159.685 52.0333 162.483 49.4267 166.01 47.74C169.613 46.0533 173.408 45.21 177.395 45.21ZM227.256 66.255C227.256 67.4817 227.179 69.0917 227.026 71.085C226.949 73.0783 226.872 74.8033 226.796 76.26H227.256C227.716 75.6467 228.406 74.765 229.326 73.615C230.246 72.465 231.166 71.315 232.086 70.165C233.082 68.9383 233.926 67.9417 234.616 67.175L254.281 46.36H266.126L241.171 72.695L267.851 108H255.661L234.271 79.25L227.256 85.345V108H217.251V20.6H227.256V66.255ZM300.531 109.15C292.865 109.15 286.731 106.505 282.131 101.215C277.531 95.8483 275.231 87.875 275.231 77.295C275.231 66.715 277.531 58.7417 282.131 53.375C286.808 47.9317 292.98 45.21 300.646 45.21C303.866 45.21 306.665 45.6317 309.041 46.475C311.418 47.2417 313.488 48.315 315.251 49.695C317.015 51.075 318.51 52.6083 319.736 54.295H320.426C320.35 53.2983 320.196 51.8417 319.966 49.925C319.813 47.9317 319.736 46.36 319.736 45.21V20.6H329.856V108H321.691L320.196 99.72H319.736C318.51 101.483 317.015 103.093 315.251 104.55C313.488 105.93 311.38 107.042 308.926 107.885C306.55 108.728 303.751 109.15 300.531 109.15ZM302.141 100.755C308.658 100.755 313.22 98.9917 315.826 95.465C318.51 91.8617 319.851 86.4567 319.851 79.25V77.41C319.851 69.7433 318.586 63.8783 316.056 59.815C313.526 55.675 308.85 53.605 302.026 53.605C296.583 53.605 292.481 55.79 289.721 60.16C287.038 64.4533 285.696 70.2417 285.696 77.525C285.696 84.885 287.038 90.5967 289.721 94.66C292.481 98.7233 296.621 100.755 302.141 100.755ZM403.023 77.065C403.023 82.2017 402.333 86.7633 400.953 90.75C399.65 94.66 397.733 97.995 395.203 100.755C392.75 103.515 389.722 105.623 386.118 107.08C382.592 108.46 378.643 109.15 374.273 109.15C370.21 109.15 366.453 108.46 363.003 107.08C359.553 105.623 356.563 103.515 354.033 100.755C351.503 97.995 349.51 94.66 348.053 90.75C346.673 86.7633 345.983 82.2017 345.983 77.065C345.983 70.2417 347.133 64.4917 349.433 59.815C351.733 55.0617 355.03 51.4583 359.323 49.005C363.617 46.475 368.715 45.21 374.618 45.21C380.215 45.21 385.122 46.475 389.338 49.005C393.632 51.4583 396.967 55.0617 399.343 59.815C401.797 64.4917 403.023 70.2417 403.023 77.065ZM356.448 77.065C356.448 81.895 357.062 86.1117 358.288 89.715C359.592 93.2417 361.585 95.9633 364.268 97.88C366.952 99.7967 370.363 100.755 374.503 100.755C378.643 100.755 382.055 99.7967 384.738 97.88C387.422 95.9633 389.377 93.2417 390.603 89.715C391.907 86.1117 392.558 81.895 392.558 77.065C392.558 72.1583 391.907 67.98 390.603 64.53C389.3 61.08 387.307 58.435 384.623 56.595C382.017 54.6783 378.605 53.72 374.388 53.72C368.102 53.72 363.54 55.79 360.703 59.93C357.867 64.07 356.448 69.7817 356.448 77.065ZM443.787 109.15C438.344 109.15 433.475 108.038 429.182 105.815C424.965 103.592 421.63 100.142 419.177 95.465C416.8 90.7883 415.612 84.8083 415.612 77.525C415.612 69.935 416.877 63.7633 419.407 59.01C421.937 54.2567 425.349 50.7683 429.642 48.545C434.012 46.3217 438.957 45.21 444.477 45.21C447.62 45.21 450.649 45.555 453.562 46.245C456.475 46.8583 458.852 47.625 460.692 48.545L457.587 56.94C455.747 56.25 453.6 55.5983 451.147 54.985C448.694 54.3717 446.394 54.065 444.247 54.065C440.107 54.065 436.695 54.9467 434.012 56.71C431.329 58.4733 429.335 61.08 428.032 64.53C426.729 67.98 426.077 72.2733 426.077 77.41C426.077 82.3167 426.729 86.495 428.032 89.945C429.335 93.395 431.29 96.0017 433.897 97.765C436.504 99.5283 439.762 100.41 443.672 100.41C447.045 100.41 449.997 100.065 452.527 99.375C455.134 98.685 457.51 97.8417 459.657 96.845V105.815C457.587 106.888 455.287 107.693 452.757 108.23C450.304 108.843 447.314 109.15 443.787 109.15ZM514.451 90.98C514.451 94.9667 513.454 98.3017 511.461 100.985C509.468 103.668 506.631 105.7 502.951 107.08C499.271 108.46 494.901 109.15 489.841 109.15C485.548 109.15 481.829 108.805 478.686 108.115C475.619 107.425 472.898 106.467 470.521 105.24V96.04C472.974 97.2667 475.926 98.4167 479.376 99.49C482.903 100.487 486.468 100.985 490.071 100.985C495.208 100.985 498.926 100.18 501.226 98.57C503.526 96.8833 504.676 94.66 504.676 91.9C504.676 90.3667 504.254 88.9867 503.411 87.76C502.568 86.5333 501.034 85.3067 498.811 84.08C496.664 82.8533 493.559 81.4733 489.496 79.94C485.509 78.4067 482.098 76.8733 479.261 75.34C476.424 73.8067 474.239 71.9667 472.706 69.82C471.173 67.6733 470.406 64.9133 470.406 61.54C470.406 56.3267 472.514 52.3017 476.731 49.465C481.024 46.6283 486.621 45.21 493.521 45.21C497.278 45.21 500.766 45.5933 503.986 46.36C507.283 47.05 510.349 48.0467 513.186 49.35L509.736 57.4C508.049 56.6333 506.248 55.9817 504.331 55.445C502.491 54.8317 500.613 54.3717 498.696 54.065C496.779 53.6817 494.824 53.49 492.831 53.49C488.691 53.49 485.509 54.18 483.286 55.56C481.139 56.8633 480.066 58.665 480.066 60.965C480.066 62.6517 480.564 64.1083 481.561 65.335C482.558 66.485 484.206 67.635 486.506 68.785C488.883 69.8583 492.026 71.1617 495.936 72.695C499.846 74.1517 503.181 75.6467 505.941 77.18C508.701 78.7133 510.809 80.5917 512.266 82.815C513.723 84.9617 514.451 87.6833 514.451 90.98ZM570.86 125.71H519.34V118.35H570.86V125.71ZM609.769 45.21C617.359 45.21 623.454 47.855 628.054 53.145C632.731 58.435 635.069 66.4083 635.069 77.065C635.069 84.0417 633.996 89.945 631.849 94.775C629.779 99.5283 626.827 103.132 622.994 105.585C619.237 107.962 614.791 109.15 609.654 109.15C606.511 109.15 603.712 108.728 601.259 107.885C598.806 107.042 596.697 105.968 594.934 104.665C593.247 103.285 591.791 101.79 590.564 100.18H589.874C590.027 101.483 590.181 103.132 590.334 105.125C590.487 107.118 590.564 108.843 590.564 110.3V135.6H580.444V46.36H588.724L590.104 54.755H590.564C591.791 52.9917 593.247 51.3817 594.934 49.925C596.697 48.4683 598.767 47.3183 601.144 46.475C603.597 45.6317 606.472 45.21 609.769 45.21ZM607.929 53.72C603.789 53.72 600.454 54.525 597.924 56.135C595.394 57.6683 593.554 60.0067 592.404 63.15C591.254 66.2933 590.641 70.28 590.564 75.11V77.065C590.564 82.125 591.101 86.4183 592.174 89.945C593.247 93.4717 595.049 96.155 597.579 97.995C600.186 99.835 603.712 100.755 608.159 100.755C611.916 100.755 614.982 99.72 617.359 97.65C619.812 95.58 621.614 92.7817 622.764 89.255C623.991 85.6517 624.604 81.55 624.604 76.95C624.604 69.8967 623.224 64.2617 620.464 60.045C617.781 55.8283 613.602 53.72 607.929 53.72ZM702.716 46.36V108H694.436L692.941 99.835H692.481C691.178 101.982 689.491 103.745 687.421 105.125C685.351 106.505 683.089 107.502 680.636 108.115C678.183 108.805 675.614 109.15 672.931 109.15C668.024 109.15 663.884 108.383 660.511 106.85C657.214 105.24 654.723 102.787 653.036 99.49C651.349 96.1933 650.506 91.9383 650.506 86.725V46.36H660.741V86.035C660.741 90.9417 661.853 94.6217 664.076 97.075C666.299 99.5283 669.749 100.755 674.426 100.755C679.026 100.755 682.629 99.9117 685.236 98.225C687.919 96.4617 689.798 93.9317 690.871 90.635C692.021 87.2617 692.596 83.1983 692.596 78.445V46.36H702.716ZM789.905 45.21C796.881 45.21 802.095 47.0117 805.545 50.615C808.995 54.1417 810.72 59.8917 810.72 67.865V108H800.715V68.325C800.715 63.495 799.68 59.8533 797.61 57.4C795.616 54.9467 792.473 53.72 788.18 53.72C782.2 53.72 777.906 55.445 775.3 58.895C772.77 62.345 771.505 67.3667 771.505 73.96V108H761.5V68.325C761.5 65.105 761.04 62.4217 760.12 60.275C759.2 58.0517 757.82 56.4033 755.98 55.33C754.14 54.2567 751.763 53.72 748.85 53.72C744.71 53.72 741.451 54.6017 739.075 56.365C736.698 58.0517 734.973 60.5433 733.9 63.84C732.903 67.1367 732.405 71.2 732.405 76.03V108H722.285V46.36H730.45L731.945 54.755H732.52C733.823 52.6083 735.395 50.845 737.235 49.465C739.151 48.0083 741.26 46.935 743.56 46.245C745.86 45.555 748.236 45.21 750.69 45.21C755.443 45.21 759.391 46.0533 762.535 47.74C765.755 49.4267 768.093 52.0333 769.55 55.56H770.125C772.195 52.0333 774.993 49.4267 778.52 47.74C782.123 46.0533 785.918 45.21 789.905 45.21ZM839.88 108H829.76V20.6H839.88V108Z" fill="#9D3058"/>
<path d="M89 68.1428V88C89 98.4934 80.4934 107 70 107H65.5714C64.4669 107 63.5714 106.105 63.5714 105V68.1428C63.5714 67.0383 64.4669 66.1428 65.5714 66.1428H87C88.1046 66.1428 89 67.0383 89 68.1428Z" fill="#B475DB" fill-opacity="0.3" stroke="#B475DB" stroke-width="2"/>
<rect x="57.7143" y="66.1428" width="40.8571" height="25.4286" rx="2" transform="rotate(90 57.7143 66.1428)" fill="#E18E8E" fill-opacity="0.3" stroke="#E18E8E" stroke-width="2"/>
<rect x="57.7143" y="19" width="40.8571" height="25.4286" rx="2" transform="rotate(90 57.7143 19)" fill="#5CB8AB" fill-opacity="0.3" stroke="#5CB8AB" stroke-width="2"/>
<path d="M26.4286 21L26.4286 57.8571C26.4286 58.9617 25.5331 59.8571 24.4286 59.8571H2.99998C1.89541 59.8571 0.999985 58.9617 0.999985 57.8571L0.999985 38C0.999985 27.5066 9.50657 19 20 19H24.4286C25.5331 19 26.4286 19.8954 26.4286 21Z" fill="#86CD6F" fill-opacity="0.3" stroke="#86CD6F" stroke-width="2"/>
<path d="M14.1428 99.2857C7.35763 99.2857 1.85713 93.7852 1.85713 86.9999C1.85713 80.2147 7.35763 74.7142 14.1428 74.7142C20.9281 74.7142 26.4286 80.2147 26.4286 86.9999C26.4286 93.7852 20.9281 99.2857 14.1428 99.2857Z" fill="#E2B55A" fill-opacity="0.3" stroke="#E2B55A" stroke-width="2"/>
<path d="M75.8571 52.1428C69.0719 52.1428 63.5714 46.6423 63.5714 39.8571C63.5714 33.0719 69.0719 27.5714 75.8571 27.5714C82.6424 27.5714 88.1429 33.0719 88.1429 39.8571C88.1429 46.6423 82.6424 52.1428 75.8571 52.1428Z" fill="#45ABD8" fill-opacity="0.3" stroke="#45ABD8" stroke-width="2"/>
</g>
<defs>
<clipPath id="clip0_129_65">
<rect width="857" height="129" fill="white"/>
</clipPath>
</defs>
</svg>
