<svg xmlns="http://www.w3.org/2000/svg" xmlns:xlink="http://www.w3.org/1999/xlink" contentStyleType="text/css" height="479px" preserveAspectRatio="none" style="width:788px;height:479px;background:#1B1B1B;" version="1.1" viewBox="0 0 788 479" width="788px" zoomAndPan="magnify"><title>Class Diagram</title><defs/><g><rect fill="#1B1B1B" height="479" style="stroke:none;stroke-width:1.0;" width="788" x="0" y="0"/><text fill="#FFFFFF" font-family="sans-serif" font-size="14" font-weight="bold" lengthAdjust="spacing" textLength="112.8887" x="330.6829" y="22.9951">Class Diagram</text><!--class Collection--><g id="elem_Collection"><rect codeLine="5" fill="#313139" height="48" id="Collection" rx="2.5" ry="2.5" style="stroke:#E7E7E7;stroke-width:0.5;" width="101.248" x="60.38" y="68.7469"/><ellipse cx="75.38" cy="84.7469" fill="#352866" rx="11" ry="11" style="stroke:#E7E7E7;stroke-width:1.0;"/><path d="M71.3019,80.5125 L71.3019,78.3562 L78.6925,78.3562 L78.6925,80.5125 L76.2238,80.5125 L76.2238,88.5906 L78.6925,88.5906 L78.6925,90.7469 L71.3019,90.7469 L71.3019,88.5906 L73.7706,88.5906 L73.7706,80.5125 L71.3019,80.5125 Z " fill="#FFFFFF"/><text fill="#FFFFFF" font-family="sans-serif" font-size="14" font-style="italic" lengthAdjust="spacing" textLength="69.248" x="89.38" y="89.5936">Collection</text><line style="stroke:#E7E7E7;stroke-width:0.5;" x1="61.38" x2="160.628" y1="100.7469" y2="100.7469"/><line style="stroke:#E7E7E7;stroke-width:0.5;" x1="61.38" x2="160.628" y1="108.7469" y2="108.7469"/></g><!--class List--><g id="elem_List"><rect fill="#313139" height="48" id="List" rx="2.5" ry="2.5" style="stroke:#E7E7E7;stroke-width:0.5;" width="56.4727" x="275.77" y="68.7469"/><ellipse cx="290.77" cy="84.7469" fill="#2E5233" rx="11" ry="11" style="stroke:#E7E7E7;stroke-width:1.0;"/><path d="M293.7388,90.3875 Q293.1606,90.6844 292.52,90.825 Q291.8794,90.9812 291.1763,90.9812 Q288.6763,90.9812 287.3481,89.3406 Q286.0356,87.6844 286.0356,84.5594 Q286.0356,81.4344 287.3481,79.7781 Q288.6763,78.1219 291.1763,78.1219 Q291.8794,78.1219 292.52,78.2781 Q293.1763,78.4344 293.7388,78.7312 L293.7388,81.45 Q293.1138,80.8719 292.52,80.6062 Q291.9263,80.325 291.3013,80.325 Q289.9575,80.325 289.27,81.4031 Q288.5825,82.4656 288.5825,84.5594 Q288.5825,86.6531 289.27,87.7312 Q289.9575,88.7937 291.3013,88.7937 Q291.9263,88.7937 292.52,88.5281 Q293.1138,88.2469 293.7388,87.6687 L293.7388,90.3875 Z " fill="#FFFFFF"/><text fill="#FFFFFF" font-family="sans-serif" font-size="14" lengthAdjust="spacing" textLength="24.4727" x="304.77" y="89.5936">List</text><line style="stroke:#E7E7E7;stroke-width:0.5;" x1="276.77" x2="331.2427" y1="100.7469" y2="100.7469"/><line style="stroke:#E7E7E7;stroke-width:0.5;" x1="276.77" x2="331.2427" y1="108.7469" y2="108.7469"/></g><!--class AbstractList--><g id="elem_AbstractList"><rect fill="#313139" height="48" id="AbstractList" rx="2.5" ry="2.5" style="stroke:#E7E7E7;stroke-width:0.5;" width="115.2412" x="289.39" y="242.6369"/><ellipse cx="304.39" cy="258.6369" fill="#2E5233" rx="11" ry="11" style="stroke:#E7E7E7;stroke-width:1.0;"/><path d="M307.3588,264.2775 Q306.7806,264.5744 306.14,264.715 Q305.4994,264.8713 304.7963,264.8713 Q302.2963,264.8713 300.9681,263.2306 Q299.6556,261.5744 299.6556,258.4494 Q299.6556,255.3244 300.9681,253.6681 Q302.2963,252.0119 304.7963,252.0119 Q305.4994,252.0119 306.14,252.1681 Q306.7963,252.3244 307.3588,252.6213 L307.3588,255.34 Q306.7338,254.7619 306.14,254.4963 Q305.5463,254.215 304.9213,254.215 Q303.5775,254.215 302.89,255.2931 Q302.2025,256.3556 302.2025,258.4494 Q302.2025,260.5431 302.89,261.6213 Q303.5775,262.6838 304.9213,262.6838 Q305.5463,262.6838 306.14,262.4181 Q306.7338,262.1369 307.3588,261.5588 L307.3588,264.2775 Z " fill="#FFFFFF"/><text fill="#FFFFFF" font-family="sans-serif" font-size="14" lengthAdjust="spacing" textLength="83.2412" x="318.39" y="263.4836">AbstractList</text><line style="stroke:#E7E7E7;stroke-width:0.5;" x1="290.39" x2="403.6312" y1="274.6369" y2="274.6369"/><line style="stroke:#E7E7E7;stroke-width:0.5;" x1="290.39" x2="403.6312" y1="282.6369" y2="282.6369"/></g><!--class AbstractCollection--><g id="elem_AbstractCollection"><rect fill="#313139" height="48" id="AbstractCollection" rx="2.5" ry="2.5" style="stroke:#E7E7E7;stroke-width:0.5;" width="160.0166" x="7" y="242.6369"/><ellipse cx="22" cy="258.6369" fill="#2E5233" rx="11" ry="11" style="stroke:#E7E7E7;stroke-width:1.0;"/><path d="M24.9688,264.2775 Q24.3906,264.5744 23.75,264.715 Q23.1094,264.8713 22.4063,264.8713 Q19.9063,264.8713 18.5781,263.2306 Q17.2656,261.5744 17.2656,258.4494 Q17.2656,255.3244 18.5781,253.6681 Q19.9063,252.0119 22.4063,252.0119 Q23.1094,252.0119 23.75,252.1681 Q24.4063,252.3244 24.9688,252.6213 L24.9688,255.34 Q24.3438,254.7619 23.75,254.4963 Q23.1563,254.215 22.5313,254.215 Q21.1875,254.215 20.5,255.2931 Q19.8125,256.3556 19.8125,258.4494 Q19.8125,260.5431 20.5,261.6213 Q21.1875,262.6838 22.5313,262.6838 Q23.1563,262.6838 23.75,262.4181 Q24.3438,262.1369 24.9688,261.5588 L24.9688,264.2775 Z " fill="#FFFFFF"/><text fill="#FFFFFF" font-family="sans-serif" font-size="14" lengthAdjust="spacing" textLength="128.0166" x="36" y="263.4836">AbstractCollection</text><line style="stroke:#E7E7E7;stroke-width:0.5;" x1="8" x2="166.0166" y1="274.6369" y2="274.6369"/><line style="stroke:#E7E7E7;stroke-width:0.5;" x1="8" x2="166.0166" y1="282.6369" y2="282.6369"/></g><!--class ArrayList--><g id="elem_ArrayList"><rect codeLine="14" fill="#313139" height="80.5938" id="ArrayList" rx="2.5" ry="2.5" style="stroke:#E7E7E7;stroke-width:0.5;" width="164.127" x="264.94" y="392.0869"/><ellipse cx="311.5406" cy="408.0869" fill="#2E5233" rx="11" ry="11" style="stroke:#E7E7E7;stroke-width:1.0;"/><path d="M314.5093,413.7275 Q313.9312,414.0244 313.2906,414.165 Q312.65,414.3212 311.9468,414.3212 Q309.4468,414.3212 308.1187,412.6806 Q306.8062,411.0244 306.8062,407.8994 Q306.8062,404.7744 308.1187,403.1181 Q309.4468,401.4619 311.9468,401.4619 Q312.65,401.4619 313.2906,401.6181 Q313.9468,401.7744 314.5093,402.0712 L314.5093,404.79 Q313.8843,404.2119 313.2906,403.9462 Q312.6968,403.665 312.0718,403.665 Q310.7281,403.665 310.0406,404.7431 Q309.3531,405.8056 309.3531,407.8994 Q309.3531,409.9931 310.0406,411.0712 Q310.7281,412.1337 312.0718,412.1337 Q312.6968,412.1337 313.2906,411.8681 Q313.8843,411.5869 314.5093,411.0087 L314.5093,413.7275 Z " fill="#FFFFFF"/><text fill="#FFFFFF" font-family="sans-serif" font-size="14" lengthAdjust="spacing" textLength="62.4258" x="332.0406" y="412.9336">ArrayList</text><line style="stroke:#E7E7E7;stroke-width:0.5;" x1="265.94" x2="428.067" y1="424.0869" y2="424.0869"/><text fill="#FFFFFF" font-family="sans-serif" font-size="14" lengthAdjust="spacing" textLength="152.127" x="270.94" y="441.082">Object[] elementData</text><line style="stroke:#E7E7E7;stroke-width:0.5;" x1="265.94" x2="428.067" y1="448.3837" y2="448.3837"/><text fill="#FFFFFF" font-family="sans-serif" font-size="14" lengthAdjust="spacing" textLength="38.0693" x="270.94" y="465.3789">size()</text></g><!--class TimeUnit--><g id="elem_TimeUnit"><rect codeLine="19" fill="#313139" height="96.8906" id="TimeUnit" rx="2.5" ry="2.5" style="stroke:#E7E7E7;stroke-width:0.5;" width="95.1914" x="488.41" y="44.2969"/><ellipse cx="503.41" cy="60.2969" fill="#852D19" rx="11" ry="11" style="stroke:#E7E7E7;stroke-width:1.0;"/><path d="M507.5194,66.2969 L499.8006,66.2969 L499.8006,53.9063 L507.5194,53.9063 L507.5194,56.0625 L502.2538,56.0625 L502.2538,58.7344 L507.0194,58.7344 L507.0194,60.8906 L502.2538,60.8906 L502.2538,64.1406 L507.5194,64.1406 L507.5194,66.2969 Z " fill="#FFFFFF"/><text fill="#FFFFFF" font-family="sans-serif" font-size="14" lengthAdjust="spacing" textLength="63.1914" x="517.41" y="65.1436">TimeUnit</text><line style="stroke:#E7E7E7;stroke-width:0.5;" x1="489.41" x2="582.6014" y1="76.2969" y2="76.2969"/><text fill="#FFFFFF" font-family="sans-serif" font-size="14" lengthAdjust="spacing" textLength="37.7959" x="494.41" y="93.292">DAYS</text><text fill="#FFFFFF" font-family="sans-serif" font-size="14" lengthAdjust="spacing" textLength="50.4082" x="494.41" y="109.5889">HOURS</text><text fill="#FFFFFF" font-family="sans-serif" font-size="14" lengthAdjust="spacing" textLength="63.2119" x="494.41" y="125.8857">MINUTES</text><line style="stroke:#E7E7E7;stroke-width:0.5;" x1="489.41" x2="582.6014" y1="133.1875" y2="133.1875"/></g><!--class SuppressWarnings--><g id="elem_SuppressWarnings"><rect codeLine="25" fill="#313139" height="48" id="SuppressWarnings" rx="2.5" ry="2.5" style="stroke:#E7E7E7;stroke-width:0.5;" width="162.4844" x="618.77" y="68.7469"/><ellipse cx="633.77" cy="84.7469" fill="#4A0000" rx="11" ry="11" style="stroke:#E7E7E7;stroke-width:1.0;"/><path d="M635.8481,85.2156 Q635.8481,84.2781 635.4263,83.7469 Q635.0044,83.2156 634.2544,83.2156 Q633.52,83.2156 633.0981,83.7469 Q632.6919,84.2781 632.6919,85.2156 Q632.6919,86.1687 633.0981,86.7 Q633.52,87.2312 634.2544,87.2312 Q635.0044,87.2312 635.4263,86.7 Q635.8481,86.1687 635.8481,85.2156 Z M637.395,88.6219 L635.77,88.6219 L635.77,87.95 Q635.4419,88.3875 635.02,88.5906 Q634.5981,88.7937 633.9888,88.7937 Q632.6294,88.7937 631.8013,87.825 Q630.9731,86.8406 630.9731,85.2156 Q630.9731,83.6219 631.8013,82.6531 Q632.6294,81.6687 633.9888,81.6687 Q634.5825,81.6687 635.0356,81.8719 Q635.4888,82.075 635.77,82.4656 L635.77,82.1219 Q635.77,80.9969 635.145,80.3875 Q634.52,79.7625 633.3794,79.7625 Q631.6606,79.7625 630.5669,81.2937 Q629.4731,82.8094 629.4731,85.2469 Q629.4731,87.7937 630.7231,89.2937 Q631.9888,90.7937 634.0981,90.7937 Q634.7544,90.7937 635.3794,90.6062 Q636.0044,90.4187 636.5825,90.0281 L637.3481,91.4812 Q636.6763,91.9344 635.8794,92.1531 Q635.0825,92.3875 634.1763,92.3875 Q631.27,92.3875 629.5356,90.45 Q627.8169,88.5281 627.8169,85.2469 Q627.8169,82.0281 629.3638,80.1062 Q630.9263,78.1687 633.4888,78.1687 Q635.2856,78.1687 636.3325,79.2625 Q637.395,80.3562 637.395,82.2312 L637.395,88.6219 Z " fill="#FFFFFF"/><text fill="#FFFFFF" font-family="sans-serif" font-size="14" lengthAdjust="spacing" textLength="130.4844" x="647.77" y="89.5936">SuppressWarnings</text><line style="stroke:#E7E7E7;stroke-width:0.5;" x1="619.77" x2="780.2544" y1="100.7469" y2="100.7469"/><line style="stroke:#E7E7E7;stroke-width:0.5;" x1="619.77" x2="780.2544" y1="108.7469" y2="108.7469"/></g><!--class Annotation--><g id="elem_Annotation"><rect codeLine="27" fill="#313139" height="96.8906" id="Annotation" rx="2.5" ry="2.5" style="stroke:#E7E7E7;stroke-width:0.5;" width="192.8174" x="439.6" y="218.1969"/><ellipse cx="493.3715" cy="234.1969" fill="#4A0000" rx="11" ry="11" style="stroke:#E7E7E7;stroke-width:1.0;"/><path d="M495.4496,234.6656 Q495.4496,233.7281 495.0277,233.1969 Q494.6059,232.6656 493.8559,232.6656 Q493.1215,232.6656 492.6996,233.1969 Q492.2934,233.7281 492.2934,234.6656 Q492.2934,235.6188 492.6996,236.15 Q493.1215,236.6813 493.8559,236.6813 Q494.6059,236.6813 495.0277,236.15 Q495.4496,235.6188 495.4496,234.6656 Z M496.9965,238.0719 L495.3715,238.0719 L495.3715,237.4 Q495.0434,237.8375 494.6215,238.0406 Q494.1996,238.2438 493.5902,238.2438 Q492.2309,238.2438 491.4027,237.275 Q490.5746,236.2906 490.5746,234.6656 Q490.5746,233.0719 491.4027,232.1031 Q492.2309,231.1188 493.5902,231.1188 Q494.184,231.1188 494.6371,231.3219 Q495.0902,231.525 495.3715,231.9156 L495.3715,231.5719 Q495.3715,230.4469 494.7465,229.8375 Q494.1215,229.2125 492.9809,229.2125 Q491.2621,229.2125 490.1684,230.7438 Q489.0746,232.2594 489.0746,234.6969 Q489.0746,237.2438 490.3246,238.7438 Q491.5902,240.2438 493.6996,240.2438 Q494.3559,240.2438 494.9809,240.0563 Q495.6059,239.8688 496.184,239.4781 L496.9496,240.9313 Q496.2777,241.3844 495.4809,241.6031 Q494.684,241.8375 493.7777,241.8375 Q490.8715,241.8375 489.1371,239.9 Q487.4184,237.9781 487.4184,234.6969 Q487.4184,231.4781 488.9652,229.5563 Q490.5277,227.6188 493.0902,227.6188 Q494.8871,227.6188 495.934,228.7125 Q496.9965,229.8063 496.9965,231.6813 L496.9965,238.0719 Z " fill="#FFFFFF"/><text fill="#FFFFFF" font-family="sans-serif" font-size="14" lengthAdjust="spacing" textLength="76.7744" x="513.8715" y="239.0436">Annotation</text><line style="stroke:#E7E7E7;stroke-width:0.5;" x1="440.6" x2="631.4174" y1="250.1969" y2="250.1969"/><text fill="#FFFFFF" font-family="sans-serif" font-size="14" lengthAdjust="spacing" textLength="180.8174" x="445.6" y="267.192">annotation with members</text><line style="stroke:#E7E7E7;stroke-width:0.5;" x1="440.6" x2="631.4174" y1="274.4938" y2="274.4938"/><text fill="#FFFFFF" font-family="sans-serif" font-size="14" lengthAdjust="spacing" textLength="79.2148" x="445.6" y="291.4889">String foo()</text><text fill="#FFFFFF" font-family="sans-serif" font-size="14" lengthAdjust="spacing" textLength="80.377" x="445.6" y="307.7857">String bar()</text></g><!--reverse link List to AbstractList--><g id="link_List_AbstractList"><path codeLine="7" d="M314.1744,134.3898 C322.3744,167.1998 332.93,209.3669 341.16,242.2769 " fill="none" id="List-backto-AbstractList" style="stroke:#E7E7E7;stroke-width:1.0;"/><polygon fill="none" points="309.81,116.9269,308.3534,135.8445,319.9953,132.935,309.81,116.9269" style="stroke:#E7E7E7;stroke-width:1.0;"/><text fill="#FFFFFF" font-family="sans-serif" font-size="13" lengthAdjust="spacing" textLength="75.6577" x="328.01" y="184.2638">AList to List</text></g><!--reverse link Collection to AbstractCollection--><g id="link_Collection_AbstractCollection"><path codeLine="8" d="M105.2815,134.754 C100.7015,167.564 94.86,209.3669 90.27,242.2769 " fill="none" id="Collection-backto-AbstractCollection" style="stroke:#E7E7E7;stroke-width:1.0;"/><polygon fill="none" points="107.77,116.9269,99.3391,133.9245,111.2239,135.5835,107.77,116.9269" style="stroke:#E7E7E7;stroke-width:1.0;"/><text fill="#FFFFFF" font-family="sans-serif" font-size="13" lengthAdjust="spacing" textLength="78.7173" x="101.01" y="184.2638">AColl to Coll</text></g><!--reverse link Collection to List--><g id="link_Collection_List"><path codeLine="10" d="M179.97,92.7469 C216.27,92.7469 245.71,92.7469 275.53,92.7469 " fill="none" id="Collection-backto-List" style="stroke:#E7E7E7;stroke-width:1.0;"/><polygon fill="none" points="161.97,92.7469,179.97,98.7469,179.97,86.7469,161.97,92.7469" style="stroke:#E7E7E7;stroke-width:1.0;"/><text fill="#FFFFFF" font-family="sans-serif" font-size="13" lengthAdjust="spacing" textLength="68.2944" x="184.7" y="85.8138">List to Coll</text></g><!--reverse link AbstractCollection to AbstractList--><g id="link_AbstractCollection_AbstractList"><path codeLine="11" d="M185.49,266.6369 C224.87,266.6369 253.36,266.6369 289.17,266.6369 " fill="none" id="AbstractCollection-backto-AbstractList" style="stroke:#E7E7E7;stroke-width:1.0;"/><polygon fill="none" points="167.49,266.6369,185.49,272.6369,185.49,260.6369,167.49,266.6369" style="stroke:#E7E7E7;stroke-width:1.0;"/><text fill="#FFFFFF" font-family="sans-serif" font-size="13" lengthAdjust="spacing" textLength="86.0806" x="185.2" y="259.7038">AList to AColl</text></g><!--reverse link AbstractList to ArrayList--><g id="link_AbstractList_ArrayList"><path codeLine="12" d="M347.01,309.0969 C347.01,335.3569 347.01,360.3569 347.01,391.8369 " fill="none" id="AbstractList-backto-ArrayList" style="stroke:#E7E7E7;stroke-width:1.0;"/><polygon fill="none" points="347.01,291.0969,341.01,309.0969,353.01,309.0969,347.01,291.0969" style="stroke:#E7E7E7;stroke-width:1.0;"/><text fill="#FFFFFF" font-family="sans-serif" font-size="13" lengthAdjust="spacing" textLength="89.8955" x="348.01" y="358.1538">ArList to AList</text></g><!--SRC=[TLBBJiCm4BpxAqnFSA2-LroY5Wa4fH9fXH12Q9Di6bC_elM6YjU_OmVwGd0Qx-xCx6Zb8-rAqrKe6-OsZ9GYM0-Ncfkkw09IwHsZus7fhPhgLGFQN16y80TbLvKlmrFRMQC8ww0QX2ge6e4xGiKDMWmRgB26ph2gW5R39162DHkKWx614EH4mvB03eJGSI7LKA8SUsEmPEsT4DSwi3pxE3sLMH6OeEI-Cv9PZ-nbGh6J79Bt-b6IgYH9A7vfv8_lnhRd_66JgFz5oGv4Uz69u7L3fYsxJoxA_WuxohkGSbOyntKFZn9DlABZ2J34Tj1lU7mYFeL0rravrnONJdzB9jbz7k5YjhXDEBsyMSpFyyG5vpn37pxlsfOmX3iWfzqo70optJCPxatMyLj8YxP02d6ICqMnhBsFORPb0PIoVG40]--></g></svg>
