<svg width="952" height="167" viewBox="0 0 952 167" fill="none" xmlns="http://www.w3.org/2000/svg">
<g clip-path="url(#clip0_0_3)">
<path d="M265.395 73.21C272.372 73.21 277.585 75.0117 281.035 78.615C284.485 82.1417 286.21 87.8917 286.21 95.865V136H276.205V96.325C276.205 91.495 275.17 87.8533 273.1 85.4C271.107 82.9467 267.963 81.72 263.67 81.72C257.69 81.72 253.397 83.445 250.79 86.895C248.26 90.345 246.995 95.3667 246.995 101.96V136H236.99V96.325C236.99 93.105 236.53 90.4217 235.61 88.275C234.69 86.0517 233.31 84.4033 231.47 83.33C229.63 82.2567 227.253 81.72 224.34 81.72C220.2 81.72 216.942 82.6017 214.565 84.365C212.188 86.0517 210.463 88.5433 209.39 91.84C208.393 95.1367 207.895 99.2 207.895 104.03V136H197.775V74.36H205.94L207.435 82.755H208.01C209.313 80.6083 210.885 78.845 212.725 77.465C214.642 76.0083 216.75 74.935 219.05 74.245C221.35 73.555 223.727 73.21 226.18 73.21C230.933 73.21 234.882 74.0533 238.025 75.74C241.245 77.4267 243.583 80.0333 245.04 83.56H245.615C247.685 80.0333 250.483 77.4267 254.01 75.74C257.613 74.0533 261.408 73.21 265.395 73.21ZM315.256 94.255C315.256 95.4817 315.179 97.0917 315.026 99.085C314.949 101.078 314.872 102.803 314.796 104.26H315.256C315.716 103.647 316.406 102.765 317.326 101.615C318.246 100.465 319.166 99.315 320.086 98.165C321.082 96.9383 321.926 95.9417 322.616 95.175L342.281 74.36H354.126L329.171 100.695L355.851 136H343.661L322.271 107.25L315.256 113.345V136H305.251V48.6H315.256V94.255ZM388.531 137.15C380.865 137.15 374.731 134.505 370.131 129.215C365.531 123.848 363.231 115.875 363.231 105.295C363.231 94.715 365.531 86.7417 370.131 81.375C374.808 75.9317 380.98 73.21 388.646 73.21C391.866 73.21 394.665 73.6317 397.041 74.475C399.418 75.2417 401.488 76.315 403.251 77.695C405.015 79.075 406.51 80.6083 407.736 82.295H408.426C408.35 81.2983 408.196 79.8417 407.966 77.925C407.813 75.9317 407.736 74.36 407.736 73.21V48.6H417.856V136H409.691L408.196 127.72H407.736C406.51 129.483 405.015 131.093 403.251 132.55C401.488 133.93 399.38 135.042 396.926 135.885C394.55 136.728 391.751 137.15 388.531 137.15ZM390.141 128.755C396.658 128.755 401.22 126.992 403.826 123.465C406.51 119.862 407.851 114.457 407.851 107.25V105.41C407.851 97.7433 406.586 91.8783 404.056 87.815C401.526 83.675 396.85 81.605 390.026 81.605C384.583 81.605 380.481 83.79 377.721 88.16C375.038 92.4533 373.696 98.2417 373.696 105.525C373.696 112.885 375.038 118.597 377.721 122.66C380.481 126.723 384.621 128.755 390.141 128.755ZM491.023 105.065C491.023 110.202 490.333 114.763 488.953 118.75C487.65 122.66 485.733 125.995 483.203 128.755C480.75 131.515 477.722 133.623 474.118 135.08C470.592 136.46 466.643 137.15 462.273 137.15C458.21 137.15 454.453 136.46 451.003 135.08C447.553 133.623 444.563 131.515 442.033 128.755C439.503 125.995 437.51 122.66 436.053 118.75C434.673 114.763 433.983 110.202 433.983 105.065C433.983 98.2417 435.133 92.4917 437.433 87.815C439.733 83.0617 443.03 79.4583 447.323 77.005C451.617 74.475 456.715 73.21 462.618 73.21C468.215 73.21 473.122 74.475 477.338 77.005C481.632 79.4583 484.967 83.0617 487.343 87.815C489.797 92.4917 491.023 98.2417 491.023 105.065ZM444.448 105.065C444.448 109.895 445.062 114.112 446.288 117.715C447.592 121.242 449.585 123.963 452.268 125.88C454.952 127.797 458.363 128.755 462.503 128.755C466.643 128.755 470.055 127.797 472.738 125.88C475.422 123.963 477.377 121.242 478.603 117.715C479.907 114.112 480.558 109.895 480.558 105.065C480.558 100.158 479.907 95.98 478.603 92.53C477.3 89.08 475.307 86.435 472.623 84.595C470.017 82.6783 466.605 81.72 462.388 81.72C456.102 81.72 451.54 83.79 448.703 87.93C445.867 92.07 444.448 97.7817 444.448 105.065ZM531.787 137.15C526.344 137.15 521.475 136.038 517.182 133.815C512.965 131.592 509.63 128.142 507.177 123.465C504.8 118.788 503.612 112.808 503.612 105.525C503.612 97.935 504.877 91.7633 507.407 87.01C509.937 82.2567 513.349 78.7683 517.642 76.545C522.012 74.3217 526.957 73.21 532.477 73.21C535.62 73.21 538.649 73.555 541.562 74.245C544.475 74.8583 546.852 75.625 548.692 76.545L545.587 84.94C543.747 84.25 541.6 83.5983 539.147 82.985C536.694 82.3717 534.394 82.065 532.247 82.065C528.107 82.065 524.695 82.9467 522.012 84.71C519.329 86.4733 517.335 89.08 516.032 92.53C514.729 95.98 514.077 100.273 514.077 105.41C514.077 110.317 514.729 114.495 516.032 117.945C517.335 121.395 519.29 124.002 521.897 125.765C524.504 127.528 527.762 128.41 531.672 128.41C535.045 128.41 537.997 128.065 540.527 127.375C543.134 126.685 545.51 125.842 547.657 124.845V133.815C545.587 134.888 543.287 135.693 540.757 136.23C538.304 136.843 535.314 137.15 531.787 137.15ZM602.451 118.98C602.451 122.967 601.454 126.302 599.461 128.985C597.468 131.668 594.631 133.7 590.951 135.08C587.271 136.46 582.901 137.15 577.841 137.15C573.548 137.15 569.829 136.805 566.686 136.115C563.619 135.425 560.898 134.467 558.521 133.24V124.04C560.974 125.267 563.926 126.417 567.376 127.49C570.903 128.487 574.468 128.985 578.071 128.985C583.208 128.985 586.926 128.18 589.226 126.57C591.526 124.883 592.676 122.66 592.676 119.9C592.676 118.367 592.254 116.987 591.411 115.76C590.568 114.533 589.034 113.307 586.811 112.08C584.664 110.853 581.559 109.473 577.496 107.94C573.509 106.407 570.098 104.873 567.261 103.34C564.424 101.807 562.239 99.9667 560.706 97.82C559.173 95.6733 558.406 92.9133 558.406 89.54C558.406 84.3267 560.514 80.3017 564.731 77.465C569.024 74.6283 574.621 73.21 581.521 73.21C585.278 73.21 588.766 73.5933 591.986 74.36C595.283 75.05 598.349 76.0467 601.186 77.35L597.736 85.4C596.049 84.6333 594.248 83.9817 592.331 83.445C590.491 82.8317 588.613 82.3717 586.696 82.065C584.779 81.6817 582.824 81.49 580.831 81.49C576.691 81.49 573.509 82.18 571.286 83.56C569.139 84.8633 568.066 86.665 568.066 88.965C568.066 90.6517 568.564 92.1083 569.561 93.335C570.558 94.485 572.206 95.635 574.506 96.785C576.883 97.8583 580.026 99.1617 583.936 100.695C587.846 102.152 591.181 103.647 593.941 105.18C596.701 106.713 598.809 108.592 600.266 110.815C601.723 112.962 602.451 115.683 602.451 118.98ZM658.86 153.71H607.34V146.35H658.86V153.71ZM697.769 73.21C705.359 73.21 711.454 75.855 716.054 81.145C720.731 86.435 723.069 94.4083 723.069 105.065C723.069 112.042 721.996 117.945 719.849 122.775C717.779 127.528 714.827 131.132 710.994 133.585C707.237 135.962 702.791 137.15 697.654 137.15C694.511 137.15 691.712 136.728 689.259 135.885C686.806 135.042 684.697 133.968 682.934 132.665C681.247 131.285 679.791 129.79 678.564 128.18H677.874C678.027 129.483 678.181 131.132 678.334 133.125C678.487 135.118 678.564 136.843 678.564 138.3V163.6H668.444V74.36H676.724L678.104 82.755H678.564C679.791 80.9917 681.247 79.3817 682.934 77.925C684.697 76.4683 686.767 75.3183 689.144 74.475C691.597 73.6317 694.472 73.21 697.769 73.21ZM695.929 81.72C691.789 81.72 688.454 82.525 685.924 84.135C683.394 85.6683 681.554 88.0067 680.404 91.15C679.254 94.2933 678.641 98.28 678.564 103.11V105.065C678.564 110.125 679.101 114.418 680.174 117.945C681.247 121.472 683.049 124.155 685.579 125.995C688.186 127.835 691.712 128.755 696.159 128.755C699.916 128.755 702.982 127.72 705.359 125.65C707.812 123.58 709.614 120.782 710.764 117.255C711.991 113.652 712.604 109.55 712.604 104.95C712.604 97.8967 711.224 92.2617 708.464 88.045C705.781 83.8283 701.602 81.72 695.929 81.72ZM790.716 74.36V136H782.436L780.941 127.835H780.481C779.178 129.982 777.491 131.745 775.421 133.125C773.351 134.505 771.089 135.502 768.636 136.115C766.183 136.805 763.614 137.15 760.931 137.15C756.024 137.15 751.884 136.383 748.511 134.85C745.214 133.24 742.723 130.787 741.036 127.49C739.349 124.193 738.506 119.938 738.506 114.725V74.36H748.741V114.035C748.741 118.942 749.853 122.622 752.076 125.075C754.299 127.528 757.749 128.755 762.426 128.755C767.026 128.755 770.629 127.912 773.236 126.225C775.919 124.462 777.798 121.932 778.871 118.635C780.021 115.262 780.596 111.198 780.596 106.445V74.36H790.716ZM877.905 73.21C884.881 73.21 890.095 75.0117 893.545 78.615C896.995 82.1417 898.72 87.8917 898.72 95.865V136H888.715V96.325C888.715 91.495 887.68 87.8533 885.61 85.4C883.616 82.9467 880.473 81.72 876.18 81.72C870.2 81.72 865.906 83.445 863.3 86.895C860.77 90.345 859.505 95.3667 859.505 101.96V136H849.5V96.325C849.5 93.105 849.04 90.4217 848.12 88.275C847.2 86.0517 845.82 84.4033 843.98 83.33C842.14 82.2567 839.763 81.72 836.85 81.72C832.71 81.72 829.451 82.6017 827.075 84.365C824.698 86.0517 822.973 88.5433 821.9 91.84C820.903 95.1367 820.405 99.2 820.405 104.03V136H810.285V74.36H818.45L819.945 82.755H820.52C821.823 80.6083 823.395 78.845 825.235 77.465C827.151 76.0083 829.26 74.935 831.56 74.245C833.86 73.555 836.236 73.21 838.69 73.21C843.443 73.21 847.391 74.0533 850.535 75.74C853.755 77.4267 856.093 80.0333 857.55 83.56H858.125C860.195 80.0333 862.993 77.4267 866.52 75.74C870.123 74.0533 873.918 73.21 877.905 73.21ZM927.88 136H917.76V48.6H927.88V136Z" fill="#9D3058"/>
<path d="M101 30C101 28.3431 102.343 27 104 27H133.586C149.831 27 163 40.1693 163 56.4144V56.4144C163 57.3892 162.21 58.1793 161.235 58.1793H104C102.343 58.1793 101 56.8362 101 55.1793V30Z" fill="#B475DB"/>
<rect x="101" y="68.1793" width="62" height="31.1793" rx="3" fill="#E18E8E"/>
<rect x="29" y="68" width="62" height="31.1793" rx="3" fill="#5CB8AB"/>
<path d="M29 110.765C29 109.79 29.7902 109 30.7649 109H88C89.6569 109 91 110.343 91 112V137.179C91 138.836 89.6569 140.179 88 140.179H58.4145C42.1693 140.179 29 127.01 29 110.765V110.765Z" fill="#86CD6F"/>
<circle cx="132.5" cy="124.5" r="15.5" fill="#E2B55A"/>
<circle cx="60.5" cy="42.5" r="15.5" fill="#45ABD8"/>
</g>
<defs>
<clipPath id="clip0_0_3">
<rect width="952" height="167" fill="white"/>
</clipPath>
</defs>
</svg>
