<svg width="952" height="167" viewBox="0 0 952 167" fill="none" xmlns="http://www.w3.org/2000/svg">
<g clip-path="url(#clip0_0_3)">
<path d="M261.395 73.21C268.372 73.21 273.585 75.0117 277.035 78.615C280.485 82.1417 282.21 87.8917 282.21 95.865V136H272.205V96.325C272.205 91.495 271.17 87.8533 269.1 85.4C267.107 82.9467 263.963 81.72 259.67 81.72C253.69 81.72 249.397 83.445 246.79 86.895C244.26 90.345 242.995 95.3667 242.995 101.96V136H232.99V96.325C232.99 93.105 232.53 90.4217 231.61 88.275C230.69 86.0517 229.31 84.4033 227.47 83.33C225.63 82.2567 223.253 81.72 220.34 81.72C216.2 81.72 212.942 82.6017 210.565 84.365C208.188 86.0517 206.463 88.5433 205.39 91.84C204.393 95.1367 203.895 99.2 203.895 104.03V136H193.775V74.36H201.94L203.435 82.755H204.01C205.313 80.6083 206.885 78.845 208.725 77.465C210.642 76.0083 212.75 74.935 215.05 74.245C217.35 73.555 219.727 73.21 222.18 73.21C226.933 73.21 230.882 74.0533 234.025 75.74C237.245 77.4267 239.583 80.0333 241.04 83.56H241.615C243.685 80.0333 246.483 77.4267 250.01 75.74C253.613 74.0533 257.408 73.21 261.395 73.21ZM311.256 94.255C311.256 95.4817 311.179 97.0917 311.026 99.085C310.949 101.078 310.872 102.803 310.796 104.26H311.256C311.716 103.647 312.406 102.765 313.326 101.615C314.246 100.465 315.166 99.315 316.086 98.165C317.082 96.9383 317.926 95.9417 318.616 95.175L338.281 74.36H350.126L325.171 100.695L351.851 136H339.661L318.271 107.25L311.256 113.345V136H301.251V48.6H311.256V94.255ZM384.531 137.15C376.865 137.15 370.731 134.505 366.131 129.215C361.531 123.848 359.231 115.875 359.231 105.295C359.231 94.715 361.531 86.7417 366.131 81.375C370.808 75.9317 376.98 73.21 384.646 73.21C387.866 73.21 390.665 73.6317 393.041 74.475C395.418 75.2417 397.488 76.315 399.251 77.695C401.015 79.075 402.51 80.6083 403.736 82.295H404.426C404.35 81.2983 404.196 79.8417 403.966 77.925C403.813 75.9317 403.736 74.36 403.736 73.21V48.6H413.856V136H405.691L404.196 127.72H403.736C402.51 129.483 401.015 131.093 399.251 132.55C397.488 133.93 395.38 135.042 392.926 135.885C390.55 136.728 387.751 137.15 384.531 137.15ZM386.141 128.755C392.658 128.755 397.22 126.992 399.826 123.465C402.51 119.862 403.851 114.457 403.851 107.25V105.41C403.851 97.7433 402.586 91.8783 400.056 87.815C397.526 83.675 392.85 81.605 386.026 81.605C380.583 81.605 376.481 83.79 373.721 88.16C371.038 92.4533 369.696 98.2417 369.696 105.525C369.696 112.885 371.038 118.597 373.721 122.66C376.481 126.723 380.621 128.755 386.141 128.755ZM487.023 105.065C487.023 110.202 486.333 114.763 484.953 118.75C483.65 122.66 481.733 125.995 479.203 128.755C476.75 131.515 473.722 133.623 470.118 135.08C466.592 136.46 462.643 137.15 458.273 137.15C454.21 137.15 450.453 136.46 447.003 135.08C443.553 133.623 440.563 131.515 438.033 128.755C435.503 125.995 433.51 122.66 432.053 118.75C430.673 114.763 429.983 110.202 429.983 105.065C429.983 98.2417 431.133 92.4917 433.433 87.815C435.733 83.0617 439.03 79.4583 443.323 77.005C447.617 74.475 452.715 73.21 458.618 73.21C464.215 73.21 469.122 74.475 473.338 77.005C477.632 79.4583 480.967 83.0617 483.343 87.815C485.797 92.4917 487.023 98.2417 487.023 105.065ZM440.448 105.065C440.448 109.895 441.062 114.112 442.288 117.715C443.592 121.242 445.585 123.963 448.268 125.88C450.952 127.797 454.363 128.755 458.503 128.755C462.643 128.755 466.055 127.797 468.738 125.88C471.422 123.963 473.377 121.242 474.603 117.715C475.907 114.112 476.558 109.895 476.558 105.065C476.558 100.158 475.907 95.98 474.603 92.53C473.3 89.08 471.307 86.435 468.623 84.595C466.017 82.6783 462.605 81.72 458.388 81.72C452.102 81.72 447.54 83.79 444.703 87.93C441.867 92.07 440.448 97.7817 440.448 105.065ZM527.787 137.15C522.344 137.15 517.475 136.038 513.182 133.815C508.965 131.592 505.63 128.142 503.177 123.465C500.8 118.788 499.612 112.808 499.612 105.525C499.612 97.935 500.877 91.7633 503.407 87.01C505.937 82.2567 509.349 78.7683 513.642 76.545C518.012 74.3217 522.957 73.21 528.477 73.21C531.62 73.21 534.649 73.555 537.562 74.245C540.475 74.8583 542.852 75.625 544.692 76.545L541.587 84.94C539.747 84.25 537.6 83.5983 535.147 82.985C532.694 82.3717 530.394 82.065 528.247 82.065C524.107 82.065 520.695 82.9467 518.012 84.71C515.329 86.4733 513.335 89.08 512.032 92.53C510.729 95.98 510.077 100.273 510.077 105.41C510.077 110.317 510.729 114.495 512.032 117.945C513.335 121.395 515.29 124.002 517.897 125.765C520.504 127.528 523.762 128.41 527.672 128.41C531.045 128.41 533.997 128.065 536.527 127.375C539.134 126.685 541.51 125.842 543.657 124.845V133.815C541.587 134.888 539.287 135.693 536.757 136.23C534.304 136.843 531.314 137.15 527.787 137.15ZM598.451 118.98C598.451 122.967 597.454 126.302 595.461 128.985C593.468 131.668 590.631 133.7 586.951 135.08C583.271 136.46 578.901 137.15 573.841 137.15C569.548 137.15 565.829 136.805 562.686 136.115C559.619 135.425 556.898 134.467 554.521 133.24V124.04C556.974 125.267 559.926 126.417 563.376 127.49C566.903 128.487 570.468 128.985 574.071 128.985C579.208 128.985 582.926 128.18 585.226 126.57C587.526 124.883 588.676 122.66 588.676 119.9C588.676 118.367 588.254 116.987 587.411 115.76C586.568 114.533 585.034 113.307 582.811 112.08C580.664 110.853 577.559 109.473 573.496 107.94C569.509 106.407 566.098 104.873 563.261 103.34C560.424 101.807 558.239 99.9667 556.706 97.82C555.173 95.6733 554.406 92.9133 554.406 89.54C554.406 84.3267 556.514 80.3017 560.731 77.465C565.024 74.6283 570.621 73.21 577.521 73.21C581.278 73.21 584.766 73.5933 587.986 74.36C591.283 75.05 594.349 76.0467 597.186 77.35L593.736 85.4C592.049 84.6333 590.248 83.9817 588.331 83.445C586.491 82.8317 584.613 82.3717 582.696 82.065C580.779 81.6817 578.824 81.49 576.831 81.49C572.691 81.49 569.509 82.18 567.286 83.56C565.139 84.8633 564.066 86.665 564.066 88.965C564.066 90.6517 564.564 92.1083 565.561 93.335C566.558 94.485 568.206 95.635 570.506 96.785C572.883 97.8583 576.026 99.1617 579.936 100.695C583.846 102.152 587.181 103.647 589.941 105.18C592.701 106.713 594.809 108.592 596.266 110.815C597.723 112.962 598.451 115.683 598.451 118.98ZM654.86 153.71H603.34V146.35H654.86V153.71ZM693.769 73.21C701.359 73.21 707.454 75.855 712.054 81.145C716.731 86.435 719.069 94.4083 719.069 105.065C719.069 112.042 717.996 117.945 715.849 122.775C713.779 127.528 710.827 131.132 706.994 133.585C703.237 135.962 698.791 137.15 693.654 137.15C690.511 137.15 687.712 136.728 685.259 135.885C682.806 135.042 680.697 133.968 678.934 132.665C677.247 131.285 675.791 129.79 674.564 128.18H673.874C674.027 129.483 674.181 131.132 674.334 133.125C674.487 135.118 674.564 136.843 674.564 138.3V163.6H664.444V74.36H672.724L674.104 82.755H674.564C675.791 80.9917 677.247 79.3817 678.934 77.925C680.697 76.4683 682.767 75.3183 685.144 74.475C687.597 73.6317 690.472 73.21 693.769 73.21ZM691.929 81.72C687.789 81.72 684.454 82.525 681.924 84.135C679.394 85.6683 677.554 88.0067 676.404 91.15C675.254 94.2933 674.641 98.28 674.564 103.11V105.065C674.564 110.125 675.101 114.418 676.174 117.945C677.247 121.472 679.049 124.155 681.579 125.995C684.186 127.835 687.712 128.755 692.159 128.755C695.916 128.755 698.982 127.72 701.359 125.65C703.812 123.58 705.614 120.782 706.764 117.255C707.991 113.652 708.604 109.55 708.604 104.95C708.604 97.8967 707.224 92.2617 704.464 88.045C701.781 83.8283 697.602 81.72 691.929 81.72ZM786.716 74.36V136H778.436L776.941 127.835H776.481C775.178 129.982 773.491 131.745 771.421 133.125C769.351 134.505 767.089 135.502 764.636 136.115C762.183 136.805 759.614 137.15 756.931 137.15C752.024 137.15 747.884 136.383 744.511 134.85C741.214 133.24 738.723 130.787 737.036 127.49C735.349 124.193 734.506 119.938 734.506 114.725V74.36H744.741V114.035C744.741 118.942 745.853 122.622 748.076 125.075C750.299 127.528 753.749 128.755 758.426 128.755C763.026 128.755 766.629 127.912 769.236 126.225C771.919 124.462 773.798 121.932 774.871 118.635C776.021 115.262 776.596 111.198 776.596 106.445V74.36H786.716ZM873.905 73.21C880.881 73.21 886.095 75.0117 889.545 78.615C892.995 82.1417 894.72 87.8917 894.72 95.865V136H884.715V96.325C884.715 91.495 883.68 87.8533 881.61 85.4C879.616 82.9467 876.473 81.72 872.18 81.72C866.2 81.72 861.906 83.445 859.3 86.895C856.77 90.345 855.505 95.3667 855.505 101.96V136H845.5V96.325C845.5 93.105 845.04 90.4217 844.12 88.275C843.2 86.0517 841.82 84.4033 839.98 83.33C838.14 82.2567 835.763 81.72 832.85 81.72C828.71 81.72 825.451 82.6017 823.075 84.365C820.698 86.0517 818.973 88.5433 817.9 91.84C816.903 95.1367 816.405 99.2 816.405 104.03V136H806.285V74.36H814.45L815.945 82.755H816.52C817.823 80.6083 819.395 78.845 821.235 77.465C823.151 76.0083 825.26 74.935 827.56 74.245C829.86 73.555 832.236 73.21 834.69 73.21C839.443 73.21 843.391 74.0533 846.535 75.74C849.755 77.4267 852.093 80.0333 853.55 83.56H854.125C856.195 80.0333 858.993 77.4267 862.52 75.74C866.123 74.0533 869.918 73.21 873.905 73.21ZM923.88 136H913.76V48.6H923.88V136Z" fill="#9D3058"/>
<path d="M131.097 28L44 28" stroke="#17419E" stroke-width="10" stroke-linecap="round"/>
<path d="M134 33C136.761 33 139 30.7614 139 28C139 25.2386 136.761 23 134 23V33ZM134 23L90.4516 23V33L134 33V23Z" fill="#113178"/>
<path d="M131.097 138H44" stroke="#17419E" stroke-width="10" stroke-linecap="round"/>
<path d="M134 133C136.761 133 139 135.239 139 138C139 140.761 136.761 143 134 143V133ZM134 143H90.4516V133H134V143Z" fill="#113178"/>
<path d="M44 28L44 138" stroke="#17419E" stroke-width="10" stroke-linecap="round"/>
<path d="M134 138V83" stroke="#113178" stroke-width="10" stroke-linecap="round"/>
<rect x="100" y="11" width="68" height="33" rx="5" fill="#CA9EE6"/>
<rect x="100" y="68" width="68" height="33" rx="5" fill="#EEBEBE"/>
<rect x="12" y="68" width="68" height="33" rx="5" fill="#81C8BE"/>
<rect x="12" y="123" width="68" height="33" rx="5" fill="#F7CE40"/>
<circle cx="134" cy="138" r="19" fill="#BABBF1"/>
</g>
<defs>
<clipPath id="clip0_0_3">
<rect width="952" height="167" fill="white"/>
</clipPath>
</defs>
</svg>
