<svg width="952" height="167" viewBox="0 0 952 167" fill="none" xmlns="http://www.w3.org/2000/svg">
<g clip-path="url(#clip0_102_20)">
<path d="M261.395 73.21C268.372 73.21 273.585 75.0117 277.035 78.615C280.485 82.1417 282.21 87.8917 282.21 95.865V136H272.205V96.325C272.205 91.495 271.17 87.8533 269.1 85.4C267.107 82.9467 263.963 81.72 259.67 81.72C253.69 81.72 249.397 83.445 246.79 86.895C244.26 90.345 242.995 95.3667 242.995 101.96V136H232.99V96.325C232.99 93.105 232.53 90.4217 231.61 88.275C230.69 86.0517 229.31 84.4033 227.47 83.33C225.63 82.2567 223.253 81.72 220.34 81.72C216.2 81.72 212.942 82.6017 210.565 84.365C208.188 86.0517 206.463 88.5433 205.39 91.84C204.393 95.1367 203.895 99.2 203.895 104.03V136H193.775V74.36H201.94L203.435 82.755H204.01C205.313 80.6083 206.885 78.845 208.725 77.465C210.642 76.0083 212.75 74.935 215.05 74.245C217.35 73.555 219.727 73.21 222.18 73.21C226.933 73.21 230.882 74.0533 234.025 75.74C237.245 77.4267 239.583 80.0333 241.04 83.56H241.615C243.685 80.0333 246.483 77.4267 250.01 75.74C253.613 74.0533 257.408 73.21 261.395 73.21ZM311.256 94.255C311.256 95.4817 311.179 97.0917 311.026 99.085C310.949 101.078 310.872 102.803 310.796 104.26H311.256C311.716 103.647 312.406 102.765 313.326 101.615C314.246 100.465 315.166 99.315 316.086 98.165C317.082 96.9383 317.926 95.9417 318.616 95.175L338.281 74.36H350.126L325.171 100.695L351.851 136H339.661L318.271 107.25L311.256 113.345V136H301.251V48.6H311.256V94.255ZM384.531 137.15C376.865 137.15 370.731 134.505 366.131 129.215C361.531 123.848 359.231 115.875 359.231 105.295C359.231 94.715 361.531 86.7417 366.131 81.375C370.808 75.9317 376.98 73.21 384.646 73.21C387.866 73.21 390.665 73.6317 393.041 74.475C395.418 75.2417 397.488 76.315 399.251 77.695C401.015 79.075 402.51 80.6083 403.736 82.295H404.426C404.35 81.2983 404.196 79.8417 403.966 77.925C403.813 75.9317 403.736 74.36 403.736 73.21V48.6H413.856V136H405.691L404.196 127.72H403.736C402.51 129.483 401.015 131.093 399.251 132.55C397.488 133.93 395.38 135.042 392.926 135.885C390.55 136.728 387.751 137.15 384.531 137.15ZM386.141 128.755C392.658 128.755 397.22 126.992 399.826 123.465C402.51 119.862 403.851 114.457 403.851 107.25V105.41C403.851 97.7433 402.586 91.8783 400.056 87.815C397.526 83.675 392.85 81.605 386.026 81.605C380.583 81.605 376.481 83.79 373.721 88.16C371.038 92.4533 369.696 98.2417 369.696 105.525C369.696 112.885 371.038 118.597 373.721 122.66C376.481 126.723 380.621 128.755 386.141 128.755ZM487.023 105.065C487.023 110.202 486.333 114.763 484.953 118.75C483.65 122.66 481.733 125.995 479.203 128.755C476.75 131.515 473.722 133.623 470.118 135.08C466.592 136.46 462.643 137.15 458.273 137.15C454.21 137.15 450.453 136.46 447.003 135.08C443.553 133.623 440.563 131.515 438.033 128.755C435.503 125.995 433.51 122.66 432.053 118.75C430.673 114.763 429.983 110.202 429.983 105.065C429.983 98.2417 431.133 92.4917 433.433 87.815C435.733 83.0617 439.03 79.4583 443.323 77.005C447.617 74.475 452.715 73.21 458.618 73.21C464.215 73.21 469.122 74.475 473.338 77.005C477.632 79.4583 480.967 83.0617 483.343 87.815C485.797 92.4917 487.023 98.2417 487.023 105.065ZM440.448 105.065C440.448 109.895 441.062 114.112 442.288 117.715C443.592 121.242 445.585 123.963 448.268 125.88C450.952 127.797 454.363 128.755 458.503 128.755C462.643 128.755 466.055 127.797 468.738 125.88C471.422 123.963 473.377 121.242 474.603 117.715C475.907 114.112 476.558 109.895 476.558 105.065C476.558 100.158 475.907 95.98 474.603 92.53C473.3 89.08 471.307 86.435 468.623 84.595C466.017 82.6783 462.605 81.72 458.388 81.72C452.102 81.72 447.54 83.79 444.703 87.93C441.867 92.07 440.448 97.7817 440.448 105.065ZM527.787 137.15C522.344 137.15 517.475 136.038 513.182 133.815C508.965 131.592 505.63 128.142 503.177 123.465C500.8 118.788 499.612 112.808 499.612 105.525C499.612 97.935 500.877 91.7633 503.407 87.01C505.937 82.2567 509.349 78.7683 513.642 76.545C518.012 74.3217 522.957 73.21 528.477 73.21C531.62 73.21 534.649 73.555 537.562 74.245C540.475 74.8583 542.852 75.625 544.692 76.545L541.587 84.94C539.747 84.25 537.6 83.5983 535.147 82.985C532.694 82.3717 530.394 82.065 528.247 82.065C524.107 82.065 520.695 82.9467 518.012 84.71C515.329 86.4733 513.335 89.08 512.032 92.53C510.729 95.98 510.077 100.273 510.077 105.41C510.077 110.317 510.729 114.495 512.032 117.945C513.335 121.395 515.29 124.002 517.897 125.765C520.504 127.528 523.762 128.41 527.672 128.41C531.045 128.41 533.997 128.065 536.527 127.375C539.134 126.685 541.51 125.842 543.657 124.845V133.815C541.587 134.888 539.287 135.693 536.757 136.23C534.304 136.843 531.314 137.15 527.787 137.15ZM598.451 118.98C598.451 122.967 597.454 126.302 595.461 128.985C593.468 131.668 590.631 133.7 586.951 135.08C583.271 136.46 578.901 137.15 573.841 137.15C569.548 137.15 565.829 136.805 562.686 136.115C559.619 135.425 556.898 134.467 554.521 133.24V124.04C556.974 125.267 559.926 126.417 563.376 127.49C566.903 128.487 570.468 128.985 574.071 128.985C579.208 128.985 582.926 128.18 585.226 126.57C587.526 124.883 588.676 122.66 588.676 119.9C588.676 118.367 588.254 116.987 587.411 115.76C586.568 114.533 585.034 113.307 582.811 112.08C580.664 110.853 577.559 109.473 573.496 107.94C569.509 106.407 566.098 104.873 563.261 103.34C560.424 101.807 558.239 99.9667 556.706 97.82C555.173 95.6733 554.406 92.9133 554.406 89.54C554.406 84.3267 556.514 80.3017 560.731 77.465C565.024 74.6283 570.621 73.21 577.521 73.21C581.278 73.21 584.766 73.5933 587.986 74.36C591.283 75.05 594.349 76.0467 597.186 77.35L593.736 85.4C592.049 84.6333 590.248 83.9817 588.331 83.445C586.491 82.8317 584.613 82.3717 582.696 82.065C580.779 81.6817 578.824 81.49 576.831 81.49C572.691 81.49 569.509 82.18 567.286 83.56C565.139 84.8633 564.066 86.665 564.066 88.965C564.066 90.6517 564.564 92.1083 565.561 93.335C566.558 94.485 568.206 95.635 570.506 96.785C572.883 97.8583 576.026 99.1617 579.936 100.695C583.846 102.152 587.181 103.647 589.941 105.18C592.701 106.713 594.809 108.592 596.266 110.815C597.723 112.962 598.451 115.683 598.451 118.98ZM654.86 153.71H603.34V146.35H654.86V153.71ZM693.769 73.21C701.359 73.21 707.454 75.855 712.054 81.145C716.731 86.435 719.069 94.4083 719.069 105.065C719.069 112.042 717.996 117.945 715.849 122.775C713.779 127.528 710.827 131.132 706.994 133.585C703.237 135.962 698.791 137.15 693.654 137.15C690.511 137.15 687.712 136.728 685.259 135.885C682.806 135.042 680.697 133.968 678.934 132.665C677.247 131.285 675.791 129.79 674.564 128.18H673.874C674.027 129.483 674.181 131.132 674.334 133.125C674.487 135.118 674.564 136.843 674.564 138.3V163.6H664.444V74.36H672.724L674.104 82.755H674.564C675.791 80.9917 677.247 79.3817 678.934 77.925C680.697 76.4683 682.767 75.3183 685.144 74.475C687.597 73.6317 690.472 73.21 693.769 73.21ZM691.929 81.72C687.789 81.72 684.454 82.525 681.924 84.135C679.394 85.6683 677.554 88.0067 676.404 91.15C675.254 94.2933 674.641 98.28 674.564 103.11V105.065C674.564 110.125 675.101 114.418 676.174 117.945C677.247 121.472 679.049 124.155 681.579 125.995C684.186 127.835 687.712 128.755 692.159 128.755C695.916 128.755 698.982 127.72 701.359 125.65C703.812 123.58 705.614 120.782 706.764 117.255C707.991 113.652 708.604 109.55 708.604 104.95C708.604 97.8967 707.224 92.2617 704.464 88.045C701.781 83.8283 697.602 81.72 691.929 81.72ZM786.716 74.36V136H778.436L776.941 127.835H776.481C775.178 129.982 773.491 131.745 771.421 133.125C769.351 134.505 767.089 135.502 764.636 136.115C762.183 136.805 759.614 137.15 756.931 137.15C752.024 137.15 747.884 136.383 744.511 134.85C741.214 133.24 738.723 130.787 737.036 127.49C735.349 124.193 734.506 119.938 734.506 114.725V74.36H744.741V114.035C744.741 118.942 745.853 122.622 748.076 125.075C750.299 127.528 753.749 128.755 758.426 128.755C763.026 128.755 766.629 127.912 769.236 126.225C771.919 124.462 773.798 121.932 774.871 118.635C776.021 115.262 776.596 111.198 776.596 106.445V74.36H786.716ZM873.905 73.21C880.881 73.21 886.095 75.0117 889.545 78.615C892.995 82.1417 894.72 87.8917 894.72 95.865V136H884.715V96.325C884.715 91.495 883.68 87.8533 881.61 85.4C879.616 82.9467 876.473 81.72 872.18 81.72C866.2 81.72 861.906 83.445 859.3 86.895C856.77 90.345 855.505 95.3667 855.505 101.96V136H845.5V96.325C845.5 93.105 845.04 90.4217 844.12 88.275C843.2 86.0517 841.82 84.4033 839.98 83.33C838.14 82.2567 835.763 81.72 832.85 81.72C828.71 81.72 825.451 82.6017 823.075 84.365C820.698 86.0517 818.973 88.5433 817.9 91.84C816.903 95.1367 816.405 99.2 816.405 104.03V136H806.285V74.36H814.45L815.945 82.755H816.52C817.823 80.6083 819.395 78.845 821.235 77.465C823.151 76.0083 825.26 74.935 827.56 74.245C829.86 73.555 832.236 73.21 834.69 73.21C839.443 73.21 843.391 74.0533 846.535 75.74C849.755 77.4267 852.093 80.0333 853.55 83.56H854.125C856.195 80.0333 858.993 77.4267 862.52 75.74C866.123 74.0533 869.918 73.21 873.905 73.21ZM923.88 136H913.76V48.6H923.88V136Z" fill="#9D3058"/>
<path d="M27.3658 119.116C30.3991 124.349 34.1315 129.222 38.5225 133.614C51.7577 146.849 69.3528 154.137 88.0685 154.137C106.785 154.137 124.38 146.849 137.614 133.614C142.007 129.222 145.738 124.349 148.771 119.116C154.879 108.577 158.137 96.5745 158.137 84.0685C158.137 71.5625 154.879 59.5601 148.771 49.0214C145.738 43.7879 142.005 38.9136 137.614 34.5225C124.38 21.2885 106.785 14 88.0685 14C69.3528 14 51.7566 21.2885 38.5225 34.5225C34.1304 38.9136 30.398 43.7879 27.3658 49.0214C21.2577 59.5601 18 71.5636 18 84.0685C18 96.5734 21.2577 108.577 27.3658 119.116ZM70.1868 84.0685C70.1868 80.814 71.0646 77.7637 72.5903 75.1314C75.6865 69.7899 81.4621 66.1857 88.0685 66.1857C94.6748 66.1857 100.45 69.7899 103.548 75.1314C105.072 77.7626 105.951 80.814 105.951 84.0685C105.951 87.323 105.072 90.3733 103.548 93.0045C100.452 98.3471 94.6748 101.95 88.0685 101.95C81.4621 101.95 75.6865 98.3471 72.5892 93.0045C71.0646 90.3733 70.1868 87.323 70.1868 84.0685Z" fill="#FF8398"/>
<path d="M88.0685 128.043V154.137C106.785 154.137 124.38 146.848 137.614 133.614C142.007 129.222 145.738 124.349 148.771 119.116L126.157 106.059C118.554 119.201 104.344 128.043 88.0685 128.043Z" fill="#54E360"/>
<path d="M132.044 84.0685C132.044 92.0797 129.901 99.5906 126.157 106.059L148.771 119.116C154.879 108.577 158.137 96.5745 158.137 84.0685C158.137 71.5625 154.879 59.5601 148.771 49.0214L126.157 62.0769C129.901 68.5464 132.044 76.0573 132.044 84.0685Z" fill="#008ADF"/>
<path d="M49.9797 106.059L27.3659 119.116C30.3991 124.349 34.1315 129.222 38.5226 133.614C51.7577 146.848 69.3529 154.137 88.0685 154.137V128.043C71.7927 128.043 57.5836 119.201 49.9797 106.059Z" fill="#FFD400"/>
<path d="M126.157 62.0769L148.771 49.0214C145.738 43.7879 142.006 38.9136 137.614 34.5225C124.38 21.2885 106.785 14 88.0685 14V40.0929C104.344 40.0929 118.554 48.9359 126.157 62.0769Z" fill="#0065A3"/>
<path d="M27.3659 119.116L49.9797 106.059C46.2366 99.5906 44.094 92.0797 44.094 84.0685C44.094 76.0573 46.2366 68.5464 49.9797 62.078L27.3659 49.0214C21.2578 59.5601 18 71.5636 18 84.0685C18 96.5734 21.2578 108.577 27.3659 119.116Z" fill="#FF9100"/>
<path d="M88.0685 40.0929V14C69.3529 14 51.7566 21.2885 38.5226 34.5225C34.1305 38.9136 30.398 43.7879 27.3659 49.0214L49.9797 62.078C57.5836 48.9359 71.7927 40.0929 88.0685 40.0929Z" fill="#FF4949"/>
<path d="M105.951 84.0685C105.951 87.323 105.072 90.3733 103.548 93.0045L126.157 106.059C129.9 99.5905 132.044 92.0797 132.044 84.0685C132.044 76.0562 129.9 68.5464 126.157 62.0769L103.548 75.1314C105.072 77.7626 105.951 80.8139 105.951 84.0685Z" fill="#0065A3"/>
<path d="M103.548 75.1314L126.157 62.078C118.554 48.9359 104.344 40.0928 88.0685 40.0928V66.1857C94.6749 66.1857 100.45 69.7898 103.548 75.1314Z" fill="#005183"/>
<path d="M88.0685 101.95V128.043C104.344 128.043 118.554 119.201 126.157 106.059L103.548 93.0056C100.452 98.3471 94.6749 101.95 88.0685 101.95Z" fill="#00AB5E"/>
<path d="M88.0685 128.043V101.95C81.4622 101.95 75.6866 98.3471 72.5892 93.0045L49.9797 106.059C57.5835 119.201 71.7927 128.043 88.0685 128.043Z" fill="#FF9F04"/>
<path d="M70.1868 84.0685C70.1868 80.814 71.0646 77.7637 72.5903 75.1314L49.9797 62.078C46.2366 68.5464 44.094 76.0573 44.094 84.0685C44.094 92.0797 46.2366 99.5906 49.9797 106.059L72.5892 93.0045C71.0646 90.3733 70.1868 87.323 70.1868 84.0685Z" fill="#FF4B00"/>
<path d="M88.0685 66.1857V40.0928C71.7927 40.0928 57.5835 48.9359 49.9797 62.078L72.5903 75.1314C75.6866 69.7898 81.4622 66.1857 88.0685 66.1857Z" fill="#E80048"/>
<path d="M808.504 33.768C808.984 33.768 809.476 33.732 809.98 33.66C810.484 33.564 810.892 33.468 811.204 33.372V35.784C810.868 35.952 810.388 36.084 809.764 36.18C809.14 36.3 808.54 36.36 807.964 36.36C806.956 36.36 806.02 36.192 805.156 35.856C804.316 35.496 803.632 34.884 803.104 34.02C802.576 33.156 802.312 31.944 802.312 30.384V19.152H799.576V17.64L802.348 16.38L803.608 12.276H805.48V16.704H811.06V19.152H805.48V30.312C805.48 31.488 805.756 32.364 806.308 32.94C806.884 33.492 807.616 33.768 808.504 33.768ZM818.236 16.668C818.236 17.124 818.212 17.592 818.164 18.072C818.14 18.552 818.104 18.984 818.056 19.368H818.272C818.68 18.696 819.196 18.144 819.82 17.712C820.444 17.28 821.14 16.956 821.908 16.74C822.676 16.5 823.468 16.38 824.284 16.38C825.844 16.38 827.14 16.632 828.172 17.136C829.228 17.616 830.02 18.372 830.548 19.404C831.076 20.436 831.34 21.78 831.34 23.436V36H828.208V23.652C828.208 22.092 827.86 20.928 827.164 20.16C826.468 19.392 825.376 19.008 823.888 19.008C822.448 19.008 821.32 19.284 820.504 19.836C819.688 20.364 819.1 21.156 818.74 22.212C818.404 23.244 818.236 24.516 818.236 26.028V36H815.068V8.64H818.236V16.668ZM844.774 16.344C846.43 16.344 847.846 16.704 849.022 17.424C850.222 18.144 851.134 19.164 851.758 20.484C852.406 21.78 852.73 23.304 852.73 25.056V26.964H839.518C839.566 29.148 840.118 30.816 841.174 31.968C842.254 33.096 843.754 33.66 845.674 33.66C846.898 33.66 847.978 33.552 848.914 33.336C849.874 33.096 850.858 32.76 851.866 32.328V35.1C850.882 35.532 849.91 35.844 848.95 36.036C847.99 36.252 846.85 36.36 845.53 36.36C843.706 36.36 842.086 35.988 840.67 35.244C839.278 34.5 838.186 33.396 837.394 31.932C836.626 30.444 836.242 28.632 836.242 26.496C836.242 24.384 836.59 22.572 837.286 21.06C838.006 19.548 839.002 18.384 840.274 17.568C841.57 16.752 843.07 16.344 844.774 16.344ZM844.738 18.936C843.226 18.936 842.026 19.428 841.138 20.412C840.274 21.372 839.758 22.716 839.59 24.444H849.418C849.418 23.34 849.25 22.38 848.914 21.564C848.578 20.748 848.062 20.112 847.366 19.656C846.694 19.176 845.818 18.936 844.738 18.936ZM878.81 16.344C880.994 16.344 882.626 16.908 883.706 18.036C884.786 19.14 885.326 20.94 885.326 23.436V36H882.194V23.58C882.194 22.068 881.87 20.928 881.222 20.16C880.598 19.392 879.614 19.008 878.27 19.008C876.398 19.008 875.054 19.548 874.238 20.628C873.446 21.708 873.05 23.28 873.05 25.344V36H869.918V23.58C869.918 22.572 869.774 21.732 869.486 21.06C869.198 20.364 868.766 19.848 868.19 19.512C867.614 19.176 866.87 19.008 865.958 19.008C864.662 19.008 863.642 19.284 862.898 19.836C862.154 20.364 861.614 21.144 861.278 22.176C860.966 23.208 860.81 24.48 860.81 25.992V36H857.642V16.704H860.198L860.666 19.332H860.846C861.254 18.66 861.746 18.108 862.322 17.676C862.922 17.22 863.582 16.884 864.302 16.668C865.022 16.452 865.766 16.344 866.534 16.344C868.022 16.344 869.258 16.608 870.242 17.136C871.25 17.664 871.982 18.48 872.438 19.584H872.618C873.266 18.48 874.142 17.664 875.246 17.136C876.374 16.608 877.562 16.344 878.81 16.344ZM898.739 16.344C900.395 16.344 901.811 16.704 902.987 17.424C904.187 18.144 905.099 19.164 905.723 20.484C906.371 21.78 906.695 23.304 906.695 25.056V26.964H893.483C893.531 29.148 894.083 30.816 895.139 31.968C896.219 33.096 897.719 33.66 899.639 33.66C900.863 33.66 901.943 33.552 902.879 33.336C903.839 33.096 904.823 32.76 905.831 32.328V35.1C904.847 35.532 903.875 35.844 902.915 36.036C901.955 36.252 900.815 36.36 899.495 36.36C897.671 36.36 896.051 35.988 894.635 35.244C893.243 34.5 892.151 33.396 891.359 31.932C890.591 30.444 890.207 28.632 890.207 26.496C890.207 24.384 890.555 22.572 891.251 21.06C891.971 19.548 892.967 18.384 894.239 17.568C895.535 16.752 897.035 16.344 898.739 16.344ZM898.703 18.936C897.191 18.936 895.991 19.428 895.103 20.412C894.239 21.372 893.723 22.716 893.555 24.444H903.383C903.383 23.34 903.215 22.38 902.879 21.564C902.543 20.748 902.027 20.112 901.331 19.656C900.659 19.176 899.783 18.936 898.703 18.936ZM924.171 30.672C924.171 31.92 923.859 32.964 923.235 33.804C922.611 34.644 921.723 35.28 920.571 35.712C919.419 36.144 918.051 36.36 916.467 36.36C915.123 36.36 913.959 36.252 912.975 36.036C912.015 35.82 911.163 35.52 910.419 35.136V32.256C911.187 32.64 912.111 33 913.191 33.336C914.295 33.648 915.411 33.804 916.539 33.804C918.147 33.804 919.311 33.552 920.031 33.048C920.751 32.52 921.111 31.824 921.111 30.96C921.111 30.48 920.979 30.048 920.715 29.664C920.451 29.28 919.971 28.896 919.275 28.512C918.603 28.128 917.631 27.696 916.359 27.216C915.111 26.736 914.043 26.256 913.155 25.776C912.267 25.296 911.583 24.72 911.103 24.048C910.623 23.376 910.383 22.512 910.383 21.456C910.383 19.824 911.043 18.564 912.363 17.676C913.707 16.788 915.459 16.344 917.619 16.344C918.795 16.344 919.887 16.464 920.895 16.704C921.927 16.92 922.887 17.232 923.775 17.64L922.695 20.16C922.167 19.92 921.603 19.716 921.003 19.548C920.427 19.356 919.839 19.212 919.239 19.116C918.639 18.996 918.027 18.936 917.403 18.936C916.107 18.936 915.111 19.152 914.415 19.584C913.743 19.992 913.407 20.556 913.407 21.276C913.407 21.804 913.563 22.26 913.875 22.644C914.187 23.004 914.703 23.364 915.423 23.724C916.167 24.06 917.151 24.468 918.375 24.948C919.599 25.404 920.643 25.872 921.507 26.352C922.371 26.832 923.031 27.42 923.487 28.116C923.943 28.788 924.171 29.64 924.171 30.672Z" fill="#00AB5E"/>
</g>
<defs>
<clipPath id="clip0_102_20">
<rect width="952" height="167" fill="white"/>
</clipPath>
</defs>
</svg>
