<svg width="952" height="167" viewBox="0 0 952 167" fill="none" xmlns="http://www.w3.org/2000/svg">
<g clip-path="url(#clip0_102_20)">
<path d="M259.532 73.21C266.509 73.21 271.722 75.0117 275.172 78.615C278.622 82.1417 280.347 87.8917 280.347 95.865V136H270.342V96.325C270.342 91.495 269.307 87.8533 267.237 85.4C265.244 82.9467 262.1 81.72 257.807 81.72C251.827 81.72 247.534 83.445 244.927 86.895C242.397 90.345 241.132 95.3667 241.132 101.96V136H231.127V96.325C231.127 93.105 230.667 90.4217 229.747 88.275C228.827 86.0517 227.447 84.4033 225.607 83.33C223.767 82.2567 221.39 81.72 218.477 81.72C214.337 81.72 211.079 82.6017 208.702 84.365C206.325 86.0517 204.6 88.5433 203.527 91.84C202.53 95.1367 202.032 99.2 202.032 104.03V136H191.912V74.36H200.077L201.572 82.755H202.147C203.45 80.6083 205.022 78.845 206.862 77.465C208.779 76.0083 210.887 74.935 213.187 74.245C215.487 73.555 217.864 73.21 220.317 73.21C225.07 73.21 229.019 74.0533 232.162 75.74C235.382 77.4267 237.72 80.0333 239.177 83.56H239.752C241.822 80.0333 244.62 77.4267 248.147 75.74C251.75 74.0533 255.545 73.21 259.532 73.21ZM309.393 94.255C309.393 95.4817 309.316 97.0917 309.163 99.085C309.086 101.078 309.009 102.803 308.933 104.26H309.393C309.853 103.647 310.543 102.765 311.463 101.615C312.383 100.465 313.303 99.315 314.223 98.165C315.219 96.9383 316.063 95.9417 316.753 95.175L336.418 74.36H348.263L323.308 100.695L349.988 136H337.798L316.408 107.25L309.393 113.345V136H299.388V48.6H309.393V94.255ZM382.668 137.15C375.002 137.15 368.868 134.505 364.268 129.215C359.668 123.848 357.368 115.875 357.368 105.295C357.368 94.715 359.668 86.7417 364.268 81.375C368.945 75.9317 375.117 73.21 382.783 73.21C386.003 73.21 388.802 73.6317 391.178 74.475C393.555 75.2417 395.625 76.315 397.388 77.695C399.152 79.075 400.647 80.6083 401.873 82.295H402.563C402.487 81.2983 402.333 79.8417 402.103 77.925C401.95 75.9317 401.873 74.36 401.873 73.21V48.6H411.993V136H403.828L402.333 127.72H401.873C400.647 129.483 399.152 131.093 397.388 132.55C395.625 133.93 393.517 135.042 391.063 135.885C388.687 136.728 385.888 137.15 382.668 137.15ZM384.278 128.755C390.795 128.755 395.357 126.992 397.963 123.465C400.647 119.862 401.988 114.457 401.988 107.25V105.41C401.988 97.7433 400.723 91.8783 398.193 87.815C395.663 83.675 390.987 81.605 384.163 81.605C378.72 81.605 374.618 83.79 371.858 88.16C369.175 92.4533 367.833 98.2417 367.833 105.525C367.833 112.885 369.175 118.597 371.858 122.66C374.618 126.723 378.758 128.755 384.278 128.755ZM485.16 105.065C485.16 110.202 484.47 114.763 483.09 118.75C481.787 122.66 479.87 125.995 477.34 128.755C474.887 131.515 471.859 133.623 468.255 135.08C464.729 136.46 460.78 137.15 456.41 137.15C452.347 137.15 448.59 136.46 445.14 135.08C441.69 133.623 438.7 131.515 436.17 128.755C433.64 125.995 431.647 122.66 430.19 118.75C428.81 114.763 428.12 110.202 428.12 105.065C428.12 98.2417 429.27 92.4917 431.57 87.815C433.87 83.0617 437.167 79.4583 441.46 77.005C445.754 74.475 450.852 73.21 456.755 73.21C462.352 73.21 467.259 74.475 471.475 77.005C475.769 79.4583 479.104 83.0617 481.48 87.815C483.934 92.4917 485.16 98.2417 485.16 105.065ZM438.585 105.065C438.585 109.895 439.199 114.112 440.425 117.715C441.729 121.242 443.722 123.963 446.405 125.88C449.089 127.797 452.5 128.755 456.64 128.755C460.78 128.755 464.192 127.797 466.875 125.88C469.559 123.963 471.514 121.242 472.74 117.715C474.044 114.112 474.695 109.895 474.695 105.065C474.695 100.158 474.044 95.98 472.74 92.53C471.437 89.08 469.444 86.435 466.76 84.595C464.154 82.6783 460.742 81.72 456.525 81.72C450.239 81.72 445.677 83.79 442.84 87.93C440.004 92.07 438.585 97.7817 438.585 105.065ZM525.924 137.15C520.481 137.15 515.612 136.038 511.319 133.815C507.102 131.592 503.767 128.142 501.314 123.465C498.937 118.788 497.749 112.808 497.749 105.525C497.749 97.935 499.014 91.7633 501.544 87.01C504.074 82.2567 507.486 78.7683 511.779 76.545C516.149 74.3217 521.094 73.21 526.614 73.21C529.757 73.21 532.786 73.555 535.699 74.245C538.612 74.8583 540.989 75.625 542.829 76.545L539.724 84.94C537.884 84.25 535.737 83.5983 533.284 82.985C530.831 82.3717 528.531 82.065 526.384 82.065C522.244 82.065 518.832 82.9467 516.149 84.71C513.466 86.4733 511.472 89.08 510.169 92.53C508.866 95.98 508.214 100.273 508.214 105.41C508.214 110.317 508.866 114.495 510.169 117.945C511.472 121.395 513.427 124.002 516.034 125.765C518.641 127.528 521.899 128.41 525.809 128.41C529.182 128.41 532.134 128.065 534.664 127.375C537.271 126.685 539.647 125.842 541.794 124.845V133.815C539.724 134.888 537.424 135.693 534.894 136.23C532.441 136.843 529.451 137.15 525.924 137.15ZM596.588 118.98C596.588 122.967 595.591 126.302 593.598 128.985C591.605 131.668 588.768 133.7 585.088 135.08C581.408 136.46 577.038 137.15 571.978 137.15C567.685 137.15 563.966 136.805 560.823 136.115C557.756 135.425 555.035 134.467 552.658 133.24V124.04C555.111 125.267 558.063 126.417 561.513 127.49C565.04 128.487 568.605 128.985 572.208 128.985C577.345 128.985 581.063 128.18 583.363 126.57C585.663 124.883 586.813 122.66 586.813 119.9C586.813 118.367 586.391 116.987 585.548 115.76C584.705 114.533 583.171 113.307 580.948 112.08C578.801 110.853 575.696 109.473 571.633 107.94C567.646 106.407 564.235 104.873 561.398 103.34C558.561 101.807 556.376 99.9667 554.843 97.82C553.31 95.6733 552.543 92.9133 552.543 89.54C552.543 84.3267 554.651 80.3017 558.868 77.465C563.161 74.6283 568.758 73.21 575.658 73.21C579.415 73.21 582.903 73.5933 586.123 74.36C589.42 75.05 592.486 76.0467 595.323 77.35L591.873 85.4C590.186 84.6333 588.385 83.9817 586.468 83.445C584.628 82.8317 582.75 82.3717 580.833 82.065C578.916 81.6817 576.961 81.49 574.968 81.49C570.828 81.49 567.646 82.18 565.423 83.56C563.276 84.8633 562.203 86.665 562.203 88.965C562.203 90.6517 562.701 92.1083 563.698 93.335C564.695 94.485 566.343 95.635 568.643 96.785C571.02 97.8583 574.163 99.1617 578.073 100.695C581.983 102.152 585.318 103.647 588.078 105.18C590.838 106.713 592.946 108.592 594.403 110.815C595.86 112.962 596.588 115.683 596.588 118.98ZM652.997 153.71H601.477V146.35H652.997V153.71ZM691.906 73.21C699.496 73.21 705.591 75.855 710.191 81.145C714.868 86.435 717.206 94.4083 717.206 105.065C717.206 112.042 716.133 117.945 713.986 122.775C711.916 127.528 708.964 131.132 705.131 133.585C701.374 135.962 696.928 137.15 691.791 137.15C688.648 137.15 685.849 136.728 683.396 135.885C680.943 135.042 678.834 133.968 677.071 132.665C675.384 131.285 673.928 129.79 672.701 128.18H672.011C672.164 129.483 672.318 131.132 672.471 133.125C672.624 135.118 672.701 136.843 672.701 138.3V163.6H662.581V74.36H670.861L672.241 82.755H672.701C673.928 80.9917 675.384 79.3817 677.071 77.925C678.834 76.4683 680.904 75.3183 683.281 74.475C685.734 73.6317 688.609 73.21 691.906 73.21ZM690.066 81.72C685.926 81.72 682.591 82.525 680.061 84.135C677.531 85.6683 675.691 88.0067 674.541 91.15C673.391 94.2933 672.778 98.28 672.701 103.11V105.065C672.701 110.125 673.238 114.418 674.311 117.945C675.384 121.472 677.186 124.155 679.716 125.995C682.323 127.835 685.849 128.755 690.296 128.755C694.053 128.755 697.119 127.72 699.496 125.65C701.949 123.58 703.751 120.782 704.901 117.255C706.128 113.652 706.741 109.55 706.741 104.95C706.741 97.8967 705.361 92.2617 702.601 88.045C699.918 83.8283 695.739 81.72 690.066 81.72ZM784.853 74.36V136H776.573L775.078 127.835H774.618C773.315 129.982 771.628 131.745 769.558 133.125C767.488 134.505 765.226 135.502 762.773 136.115C760.32 136.805 757.751 137.15 755.068 137.15C750.161 137.15 746.021 136.383 742.648 134.85C739.351 133.24 736.86 130.787 735.173 127.49C733.486 124.193 732.643 119.938 732.643 114.725V74.36H742.878V114.035C742.878 118.942 743.99 122.622 746.213 125.075C748.436 127.528 751.886 128.755 756.563 128.755C761.163 128.755 764.766 127.912 767.373 126.225C770.056 124.462 771.935 121.932 773.008 118.635C774.158 115.262 774.733 111.198 774.733 106.445V74.36H784.853ZM872.042 73.21C879.018 73.21 884.232 75.0117 887.682 78.615C891.132 82.1417 892.857 87.8917 892.857 95.865V136H882.852V96.325C882.852 91.495 881.817 87.8533 879.747 85.4C877.753 82.9467 874.61 81.72 870.317 81.72C864.337 81.72 860.043 83.445 857.437 86.895C854.907 90.345 853.642 95.3667 853.642 101.96V136H843.637V96.325C843.637 93.105 843.177 90.4217 842.257 88.275C841.337 86.0517 839.957 84.4033 838.117 83.33C836.277 82.2567 833.9 81.72 830.987 81.72C826.847 81.72 823.588 82.6017 821.212 84.365C818.835 86.0517 817.11 88.5433 816.037 91.84C815.04 95.1367 814.542 99.2 814.542 104.03V136H804.422V74.36H812.587L814.082 82.755H814.657C815.96 80.6083 817.532 78.845 819.372 77.465C821.288 76.0083 823.397 74.935 825.697 74.245C827.997 73.555 830.373 73.21 832.827 73.21C837.58 73.21 841.528 74.0533 844.672 75.74C847.892 77.4267 850.23 80.0333 851.687 83.56H852.262C854.332 80.0333 857.13 77.4267 860.657 75.74C864.26 74.0533 868.055 73.21 872.042 73.21ZM922.017 136H911.897V48.6H922.017V136Z" fill="#9D3058"/>
<path d="M808.504 33.768C808.984 33.768 809.476 33.732 809.98 33.66C810.484 33.564 810.892 33.468 811.204 33.372V35.784C810.868 35.952 810.388 36.084 809.764 36.18C809.14 36.3 808.54 36.36 807.964 36.36C806.956 36.36 806.02 36.192 805.156 35.856C804.316 35.496 803.632 34.884 803.104 34.02C802.576 33.156 802.312 31.944 802.312 30.384V19.152H799.576V17.64L802.348 16.38L803.608 12.276H805.48V16.704H811.06V19.152H805.48V30.312C805.48 31.488 805.756 32.364 806.308 32.94C806.884 33.492 807.616 33.768 808.504 33.768ZM818.236 16.668C818.236 17.124 818.212 17.592 818.164 18.072C818.14 18.552 818.104 18.984 818.056 19.368H818.272C818.68 18.696 819.196 18.144 819.82 17.712C820.444 17.28 821.14 16.956 821.908 16.74C822.676 16.5 823.468 16.38 824.284 16.38C825.844 16.38 827.14 16.632 828.172 17.136C829.228 17.616 830.02 18.372 830.548 19.404C831.076 20.436 831.34 21.78 831.34 23.436V36H828.208V23.652C828.208 22.092 827.86 20.928 827.164 20.16C826.468 19.392 825.376 19.008 823.888 19.008C822.448 19.008 821.32 19.284 820.504 19.836C819.688 20.364 819.1 21.156 818.74 22.212C818.404 23.244 818.236 24.516 818.236 26.028V36H815.068V8.64H818.236V16.668ZM844.774 16.344C846.43 16.344 847.846 16.704 849.022 17.424C850.222 18.144 851.134 19.164 851.758 20.484C852.406 21.78 852.73 23.304 852.73 25.056V26.964H839.518C839.566 29.148 840.118 30.816 841.174 31.968C842.254 33.096 843.754 33.66 845.674 33.66C846.898 33.66 847.978 33.552 848.914 33.336C849.874 33.096 850.858 32.76 851.866 32.328V35.1C850.882 35.532 849.91 35.844 848.95 36.036C847.99 36.252 846.85 36.36 845.53 36.36C843.706 36.36 842.086 35.988 840.67 35.244C839.278 34.5 838.186 33.396 837.394 31.932C836.626 30.444 836.242 28.632 836.242 26.496C836.242 24.384 836.59 22.572 837.286 21.06C838.006 19.548 839.002 18.384 840.274 17.568C841.57 16.752 843.07 16.344 844.774 16.344ZM844.738 18.936C843.226 18.936 842.026 19.428 841.138 20.412C840.274 21.372 839.758 22.716 839.59 24.444H849.418C849.418 23.34 849.25 22.38 848.914 21.564C848.578 20.748 848.062 20.112 847.366 19.656C846.694 19.176 845.818 18.936 844.738 18.936ZM878.81 16.344C880.994 16.344 882.626 16.908 883.706 18.036C884.786 19.14 885.326 20.94 885.326 23.436V36H882.194V23.58C882.194 22.068 881.87 20.928 881.222 20.16C880.598 19.392 879.614 19.008 878.27 19.008C876.398 19.008 875.054 19.548 874.238 20.628C873.446 21.708 873.05 23.28 873.05 25.344V36H869.918V23.58C869.918 22.572 869.774 21.732 869.486 21.06C869.198 20.364 868.766 19.848 868.19 19.512C867.614 19.176 866.87 19.008 865.958 19.008C864.662 19.008 863.642 19.284 862.898 19.836C862.154 20.364 861.614 21.144 861.278 22.176C860.966 23.208 860.81 24.48 860.81 25.992V36H857.642V16.704H860.198L860.666 19.332H860.846C861.254 18.66 861.746 18.108 862.322 17.676C862.922 17.22 863.582 16.884 864.302 16.668C865.022 16.452 865.766 16.344 866.534 16.344C868.022 16.344 869.258 16.608 870.242 17.136C871.25 17.664 871.982 18.48 872.438 19.584H872.618C873.266 18.48 874.142 17.664 875.246 17.136C876.374 16.608 877.562 16.344 878.81 16.344ZM898.739 16.344C900.395 16.344 901.811 16.704 902.987 17.424C904.187 18.144 905.099 19.164 905.723 20.484C906.371 21.78 906.695 23.304 906.695 25.056V26.964H893.483C893.531 29.148 894.083 30.816 895.139 31.968C896.219 33.096 897.719 33.66 899.639 33.66C900.863 33.66 901.943 33.552 902.879 33.336C903.839 33.096 904.823 32.76 905.831 32.328V35.1C904.847 35.532 903.875 35.844 902.915 36.036C901.955 36.252 900.815 36.36 899.495 36.36C897.671 36.36 896.051 35.988 894.635 35.244C893.243 34.5 892.151 33.396 891.359 31.932C890.591 30.444 890.207 28.632 890.207 26.496C890.207 24.384 890.555 22.572 891.251 21.06C891.971 19.548 892.967 18.384 894.239 17.568C895.535 16.752 897.035 16.344 898.739 16.344ZM898.703 18.936C897.191 18.936 895.991 19.428 895.103 20.412C894.239 21.372 893.723 22.716 893.555 24.444H903.383C903.383 23.34 903.215 22.38 902.879 21.564C902.543 20.748 902.027 20.112 901.331 19.656C900.659 19.176 899.783 18.936 898.703 18.936ZM924.171 30.672C924.171 31.92 923.859 32.964 923.235 33.804C922.611 34.644 921.723 35.28 920.571 35.712C919.419 36.144 918.051 36.36 916.467 36.36C915.123 36.36 913.959 36.252 912.975 36.036C912.015 35.82 911.163 35.52 910.419 35.136V32.256C911.187 32.64 912.111 33 913.191 33.336C914.295 33.648 915.411 33.804 916.539 33.804C918.147 33.804 919.311 33.552 920.031 33.048C920.751 32.52 921.111 31.824 921.111 30.96C921.111 30.48 920.979 30.048 920.715 29.664C920.451 29.28 919.971 28.896 919.275 28.512C918.603 28.128 917.631 27.696 916.359 27.216C915.111 26.736 914.043 26.256 913.155 25.776C912.267 25.296 911.583 24.72 911.103 24.048C910.623 23.376 910.383 22.512 910.383 21.456C910.383 19.824 911.043 18.564 912.363 17.676C913.707 16.788 915.459 16.344 917.619 16.344C918.795 16.344 919.887 16.464 920.895 16.704C921.927 16.92 922.887 17.232 923.775 17.64L922.695 20.16C922.167 19.92 921.603 19.716 921.003 19.548C920.427 19.356 919.839 19.212 919.239 19.116C918.639 18.996 918.027 18.936 917.403 18.936C916.107 18.936 915.111 19.152 914.415 19.584C913.743 19.992 913.407 20.556 913.407 21.276C913.407 21.804 913.563 22.26 913.875 22.644C914.187 23.004 914.703 23.364 915.423 23.724C916.167 24.06 917.151 24.468 918.375 24.948C919.599 25.404 920.643 25.872 921.507 26.352C922.371 26.832 923.031 27.42 923.487 28.116C923.943 28.788 924.171 29.64 924.171 30.672Z" fill="#00AB5E"/>
<path d="M26.3658 122.116C29.3991 127.349 33.1315 132.222 37.5225 136.614C50.7577 149.849 68.3528 157.137 87.0685 157.137C105.785 157.137 123.38 149.849 136.614 136.614C141.007 132.222 144.738 127.349 147.771 122.116C153.879 111.577 157.137 99.5745 157.137 87.0685C157.137 74.5625 153.879 62.5601 147.771 52.0214C144.738 46.7879 141.005 41.9136 136.614 37.5225C123.38 24.2885 105.785 17 87.0685 17C68.3528 17 50.7566 24.2885 37.5225 37.5225C33.1304 41.9136 29.398 46.7879 26.3658 52.0214C20.2577 62.5601 17 74.5636 17 87.0685C17 99.5734 20.2577 111.577 26.3658 122.116ZM69.1868 87.0685C69.1868 83.814 70.0646 80.7637 71.5903 78.1314C74.6865 72.7899 80.4621 69.1857 87.0685 69.1857C93.6748 69.1857 99.4504 72.7899 102.548 78.1314C104.072 80.7626 104.951 83.814 104.951 87.0685C104.951 90.323 104.072 93.3733 102.548 96.0045C99.4515 101.347 93.6748 104.95 87.0685 104.95C80.4621 104.95 74.6865 101.347 71.5892 96.0045C70.0646 93.3733 69.1868 90.323 69.1868 87.0685Z" fill="#FF8398"/>
<path d="M87.0685 131.043V157.137C105.785 157.137 123.38 149.848 136.614 136.614C141.007 132.222 144.738 127.349 147.771 122.116L125.157 109.059C117.554 122.201 103.344 131.043 87.0685 131.043Z" fill="#54E360"/>
<path d="M131.044 87.0685C131.044 95.0797 128.901 102.591 125.157 109.059L147.771 122.116C153.879 111.577 157.137 99.5745 157.137 87.0685C157.137 74.5625 153.879 62.5601 147.771 52.0214L125.157 65.0769C128.901 71.5464 131.044 79.0573 131.044 87.0685Z" fill="#008ADF"/>
<path d="M48.9797 109.059L26.3659 122.116C29.3991 127.349 33.1315 132.222 37.5226 136.614C50.7577 149.848 68.3529 157.137 87.0685 157.137V131.043C70.7927 131.043 56.5836 122.201 48.9797 109.059Z" fill="#FFD400"/>
<path d="M125.157 65.0769L147.771 52.0214C144.738 46.7879 141.006 41.9136 136.614 37.5225C123.38 24.2885 105.785 17 87.0685 17V43.0929C103.344 43.0929 117.554 51.9359 125.157 65.0769Z" fill="#0065A3"/>
<path d="M26.3659 122.116L48.9797 109.059C45.2366 102.591 43.094 95.0797 43.094 87.0685C43.094 79.0573 45.2366 71.5464 48.9797 65.078L26.3659 52.0214C20.2578 62.5601 17 74.5636 17 87.0685C17 99.5734 20.2578 111.577 26.3659 122.116Z" fill="#FF9100"/>
<path d="M87.0685 43.0929V17C68.3529 17 50.7566 24.2885 37.5226 37.5225C33.1305 41.9136 29.398 46.7879 26.3659 52.0214L48.9797 65.078C56.5836 51.9359 70.7927 43.0929 87.0685 43.0929Z" fill="#FF4949"/>
<path d="M104.951 87.0685C104.951 90.323 104.072 93.3733 102.548 96.0045L125.157 109.059C128.9 102.591 131.044 95.0797 131.044 87.0685C131.044 79.0562 128.9 71.5464 125.157 65.0769L102.548 78.1314C104.072 80.7626 104.951 83.8139 104.951 87.0685Z" fill="#0065A3"/>
<path d="M102.548 78.1314L125.157 65.078C117.554 51.9359 103.344 43.0928 87.0685 43.0928V69.1857C93.6749 69.1857 99.4505 72.7898 102.548 78.1314Z" fill="#005183"/>
<path d="M87.0685 104.95V131.043C103.344 131.043 117.554 122.201 125.157 109.059L102.548 96.0056C99.4516 101.347 93.6749 104.95 87.0685 104.95Z" fill="#00AB5E"/>
<path d="M87.0685 131.043V104.95C80.4622 104.95 74.6866 101.347 71.5892 96.0045L48.9797 109.059C56.5835 122.201 70.7927 131.043 87.0685 131.043Z" fill="#FF9F04"/>
<path d="M69.1868 87.0685C69.1868 83.814 70.0646 80.7637 71.5903 78.1314L48.9797 65.078C45.2366 71.5464 43.094 79.0573 43.094 87.0685C43.094 95.0797 45.2366 102.591 48.9797 109.059L71.5892 96.0045C70.0646 93.3733 69.1868 90.323 69.1868 87.0685Z" fill="#FF4B00"/>
<path d="M87.0685 69.1857V43.0928C70.7927 43.0928 56.5835 51.9359 48.9797 65.078L71.5903 78.1314C74.6866 72.7898 80.4622 69.1857 87.0685 69.1857Z" fill="#E80048"/>
</g>
<defs>
<clipPath id="clip0_102_20">
<rect width="952" height="167" fill="white"/>
</clipPath>
</defs>
</svg>
