<svg width="952" height="167" viewBox="0 0 952 167" fill="none" xmlns="http://www.w3.org/2000/svg">
<g clip-path="url(#clip0_0_3)">
<path d="M263.395 73.21C270.372 73.21 275.585 75.0117 279.035 78.615C282.485 82.1417 284.21 87.8917 284.21 95.865V136H274.205V96.325C274.205 91.495 273.17 87.8533 271.1 85.4C269.107 82.9467 265.963 81.72 261.67 81.72C255.69 81.72 251.397 83.445 248.79 86.895C246.26 90.345 244.995 95.3667 244.995 101.96V136H234.99V96.325C234.99 93.105 234.53 90.4217 233.61 88.275C232.69 86.0517 231.31 84.4033 229.47 83.33C227.63 82.2567 225.253 81.72 222.34 81.72C218.2 81.72 214.942 82.6017 212.565 84.365C210.188 86.0517 208.463 88.5433 207.39 91.84C206.393 95.1367 205.895 99.2 205.895 104.03V136H195.775V74.36H203.94L205.435 82.755H206.01C207.313 80.6083 208.885 78.845 210.725 77.465C212.642 76.0083 214.75 74.935 217.05 74.245C219.35 73.555 221.727 73.21 224.18 73.21C228.933 73.21 232.882 74.0533 236.025 75.74C239.245 77.4267 241.583 80.0333 243.04 83.56H243.615C245.685 80.0333 248.483 77.4267 252.01 75.74C255.613 74.0533 259.408 73.21 263.395 73.21ZM313.256 94.255C313.256 95.4817 313.179 97.0917 313.026 99.085C312.949 101.078 312.872 102.803 312.796 104.26H313.256C313.716 103.647 314.406 102.765 315.326 101.615C316.246 100.465 317.166 99.315 318.086 98.165C319.082 96.9383 319.926 95.9417 320.616 95.175L340.281 74.36H352.126L327.171 100.695L353.851 136H341.661L320.271 107.25L313.256 113.345V136H303.251V48.6H313.256V94.255ZM386.531 137.15C378.865 137.15 372.731 134.505 368.131 129.215C363.531 123.848 361.231 115.875 361.231 105.295C361.231 94.715 363.531 86.7417 368.131 81.375C372.808 75.9317 378.98 73.21 386.646 73.21C389.866 73.21 392.665 73.6317 395.041 74.475C397.418 75.2417 399.488 76.315 401.251 77.695C403.015 79.075 404.51 80.6083 405.736 82.295H406.426C406.35 81.2983 406.196 79.8417 405.966 77.925C405.813 75.9317 405.736 74.36 405.736 73.21V48.6H415.856V136H407.691L406.196 127.72H405.736C404.51 129.483 403.015 131.093 401.251 132.55C399.488 133.93 397.38 135.042 394.926 135.885C392.55 136.728 389.751 137.15 386.531 137.15ZM388.141 128.755C394.658 128.755 399.22 126.992 401.826 123.465C404.51 119.862 405.851 114.457 405.851 107.25V105.41C405.851 97.7433 404.586 91.8783 402.056 87.815C399.526 83.675 394.85 81.605 388.026 81.605C382.583 81.605 378.481 83.79 375.721 88.16C373.038 92.4533 371.696 98.2417 371.696 105.525C371.696 112.885 373.038 118.597 375.721 122.66C378.481 126.723 382.621 128.755 388.141 128.755ZM489.023 105.065C489.023 110.202 488.333 114.763 486.953 118.75C485.65 122.66 483.733 125.995 481.203 128.755C478.75 131.515 475.722 133.623 472.118 135.08C468.592 136.46 464.643 137.15 460.273 137.15C456.21 137.15 452.453 136.46 449.003 135.08C445.553 133.623 442.563 131.515 440.033 128.755C437.503 125.995 435.51 122.66 434.053 118.75C432.673 114.763 431.983 110.202 431.983 105.065C431.983 98.2417 433.133 92.4917 435.433 87.815C437.733 83.0617 441.03 79.4583 445.323 77.005C449.617 74.475 454.715 73.21 460.618 73.21C466.215 73.21 471.122 74.475 475.338 77.005C479.632 79.4583 482.967 83.0617 485.343 87.815C487.797 92.4917 489.023 98.2417 489.023 105.065ZM442.448 105.065C442.448 109.895 443.062 114.112 444.288 117.715C445.592 121.242 447.585 123.963 450.268 125.88C452.952 127.797 456.363 128.755 460.503 128.755C464.643 128.755 468.055 127.797 470.738 125.88C473.422 123.963 475.377 121.242 476.603 117.715C477.907 114.112 478.558 109.895 478.558 105.065C478.558 100.158 477.907 95.98 476.603 92.53C475.3 89.08 473.307 86.435 470.623 84.595C468.017 82.6783 464.605 81.72 460.388 81.72C454.102 81.72 449.54 83.79 446.703 87.93C443.867 92.07 442.448 97.7817 442.448 105.065ZM529.787 137.15C524.344 137.15 519.475 136.038 515.182 133.815C510.965 131.592 507.63 128.142 505.177 123.465C502.8 118.788 501.612 112.808 501.612 105.525C501.612 97.935 502.877 91.7633 505.407 87.01C507.937 82.2567 511.349 78.7683 515.642 76.545C520.012 74.3217 524.957 73.21 530.477 73.21C533.62 73.21 536.649 73.555 539.562 74.245C542.475 74.8583 544.852 75.625 546.692 76.545L543.587 84.94C541.747 84.25 539.6 83.5983 537.147 82.985C534.694 82.3717 532.394 82.065 530.247 82.065C526.107 82.065 522.695 82.9467 520.012 84.71C517.329 86.4733 515.335 89.08 514.032 92.53C512.729 95.98 512.077 100.273 512.077 105.41C512.077 110.317 512.729 114.495 514.032 117.945C515.335 121.395 517.29 124.002 519.897 125.765C522.504 127.528 525.762 128.41 529.672 128.41C533.045 128.41 535.997 128.065 538.527 127.375C541.134 126.685 543.51 125.842 545.657 124.845V133.815C543.587 134.888 541.287 135.693 538.757 136.23C536.304 136.843 533.314 137.15 529.787 137.15ZM600.451 118.98C600.451 122.967 599.454 126.302 597.461 128.985C595.468 131.668 592.631 133.7 588.951 135.08C585.271 136.46 580.901 137.15 575.841 137.15C571.548 137.15 567.829 136.805 564.686 136.115C561.619 135.425 558.898 134.467 556.521 133.24V124.04C558.974 125.267 561.926 126.417 565.376 127.49C568.903 128.487 572.468 128.985 576.071 128.985C581.208 128.985 584.926 128.18 587.226 126.57C589.526 124.883 590.676 122.66 590.676 119.9C590.676 118.367 590.254 116.987 589.411 115.76C588.568 114.533 587.034 113.307 584.811 112.08C582.664 110.853 579.559 109.473 575.496 107.94C571.509 106.407 568.098 104.873 565.261 103.34C562.424 101.807 560.239 99.9667 558.706 97.82C557.173 95.6733 556.406 92.9133 556.406 89.54C556.406 84.3267 558.514 80.3017 562.731 77.465C567.024 74.6283 572.621 73.21 579.521 73.21C583.278 73.21 586.766 73.5933 589.986 74.36C593.283 75.05 596.349 76.0467 599.186 77.35L595.736 85.4C594.049 84.6333 592.248 83.9817 590.331 83.445C588.491 82.8317 586.613 82.3717 584.696 82.065C582.779 81.6817 580.824 81.49 578.831 81.49C574.691 81.49 571.509 82.18 569.286 83.56C567.139 84.8633 566.066 86.665 566.066 88.965C566.066 90.6517 566.564 92.1083 567.561 93.335C568.558 94.485 570.206 95.635 572.506 96.785C574.883 97.8583 578.026 99.1617 581.936 100.695C585.846 102.152 589.181 103.647 591.941 105.18C594.701 106.713 596.809 108.592 598.266 110.815C599.723 112.962 600.451 115.683 600.451 118.98ZM656.86 153.71H605.34V146.35H656.86V153.71ZM695.769 73.21C703.359 73.21 709.454 75.855 714.054 81.145C718.731 86.435 721.069 94.4083 721.069 105.065C721.069 112.042 719.996 117.945 717.849 122.775C715.779 127.528 712.827 131.132 708.994 133.585C705.237 135.962 700.791 137.15 695.654 137.15C692.511 137.15 689.712 136.728 687.259 135.885C684.806 135.042 682.697 133.968 680.934 132.665C679.247 131.285 677.791 129.79 676.564 128.18H675.874C676.027 129.483 676.181 131.132 676.334 133.125C676.487 135.118 676.564 136.843 676.564 138.3V163.6H666.444V74.36H674.724L676.104 82.755H676.564C677.791 80.9917 679.247 79.3817 680.934 77.925C682.697 76.4683 684.767 75.3183 687.144 74.475C689.597 73.6317 692.472 73.21 695.769 73.21ZM693.929 81.72C689.789 81.72 686.454 82.525 683.924 84.135C681.394 85.6683 679.554 88.0067 678.404 91.15C677.254 94.2933 676.641 98.28 676.564 103.11V105.065C676.564 110.125 677.101 114.418 678.174 117.945C679.247 121.472 681.049 124.155 683.579 125.995C686.186 127.835 689.712 128.755 694.159 128.755C697.916 128.755 700.982 127.72 703.359 125.65C705.812 123.58 707.614 120.782 708.764 117.255C709.991 113.652 710.604 109.55 710.604 104.95C710.604 97.8967 709.224 92.2617 706.464 88.045C703.781 83.8283 699.602 81.72 693.929 81.72ZM788.716 74.36V136H780.436L778.941 127.835H778.481C777.178 129.982 775.491 131.745 773.421 133.125C771.351 134.505 769.089 135.502 766.636 136.115C764.183 136.805 761.614 137.15 758.931 137.15C754.024 137.15 749.884 136.383 746.511 134.85C743.214 133.24 740.723 130.787 739.036 127.49C737.349 124.193 736.506 119.938 736.506 114.725V74.36H746.741V114.035C746.741 118.942 747.853 122.622 750.076 125.075C752.299 127.528 755.749 128.755 760.426 128.755C765.026 128.755 768.629 127.912 771.236 126.225C773.919 124.462 775.798 121.932 776.871 118.635C778.021 115.262 778.596 111.198 778.596 106.445V74.36H788.716ZM875.905 73.21C882.881 73.21 888.095 75.0117 891.545 78.615C894.995 82.1417 896.72 87.8917 896.72 95.865V136H886.715V96.325C886.715 91.495 885.68 87.8533 883.61 85.4C881.616 82.9467 878.473 81.72 874.18 81.72C868.2 81.72 863.906 83.445 861.3 86.895C858.77 90.345 857.505 95.3667 857.505 101.96V136H847.5V96.325C847.5 93.105 847.04 90.4217 846.12 88.275C845.2 86.0517 843.82 84.4033 841.98 83.33C840.14 82.2567 837.763 81.72 834.85 81.72C830.71 81.72 827.451 82.6017 825.075 84.365C822.698 86.0517 820.973 88.5433 819.9 91.84C818.903 95.1367 818.405 99.2 818.405 104.03V136H808.285V74.36H816.45L817.945 82.755H818.52C819.823 80.6083 821.395 78.845 823.235 77.465C825.151 76.0083 827.26 74.935 829.56 74.245C831.86 73.555 834.236 73.21 836.69 73.21C841.443 73.21 845.391 74.0533 848.535 75.74C851.755 77.4267 854.093 80.0333 855.55 83.56H856.125C858.195 80.0333 860.993 77.4267 864.52 75.74C868.123 74.0533 871.918 73.21 875.905 73.21ZM925.88 136H915.76V48.6H925.88V136Z" fill="#9D3058"/>
<path d="M99 12C99 10.3431 100.343 9 102 9H146C154.284 9 161 15.7157 161 24V37.1793C161 38.8362 159.657 40.1793 158 40.1793H102C100.343 40.1793 99 38.8362 99 37.1793V12Z" fill="#CA9EE6"/>
<rect x="99" y="60.1793" width="62" height="31.1793" rx="3" fill="#EEBEBE"/>
<rect x="17" y="60" width="62" height="31.1793" rx="3" fill="#81C8BE"/>
<path d="M17 114.179C17 112.522 18.3431 111.179 20 111.179H76C77.6569 111.179 79 112.522 79 114.179V139.359C79 141.015 77.6569 142.359 76 142.359H32C23.7157 142.359 17 135.643 17 127.359V114.179Z" fill="#A6DA95"/>
<circle cx="130.5" cy="126.859" r="15.5" fill="#EED49F"/>
<circle cx="48.5" cy="24.5" r="15.5" fill="#7DC4E4"/>
</g>
<defs>
<clipPath id="clip0_0_3">
<rect width="952" height="167" fill="white"/>
</clipPath>
</defs>
</svg>
