<svg xmlns="http://www.w3.org/2000/svg" xmlns:xlink="http://www.w3.org/1999/xlink" contentStyleType="text/css" height="376px" preserveAspectRatio="none" style="width:424px;height:376px;background:#FFFFFF;" version="1.1" viewBox="0 0 424 376" width="424px" zoomAndPan="magnify"><defs/><g><rect fill="none" height="192.4063" style="stroke:#957FB8;stroke-width:1.5;" width="297.9619" x="110" y="131.5625"/><line style="stroke:#658594;stroke-width:0.3;stroke-dasharray:5.0,5.0;" x1="143" x2="143" y1="36.2969" y2="340.9688"/><line style="stroke:#658594;stroke-width:0.3;stroke-dasharray:5.0,5.0;" x1="327.6533" x2="327.6533" y1="36.2969" y2="340.9688"/><line style="stroke:#658594;stroke-width:0.3;stroke-dasharray:5.0,5.0;" x1="377.71" x2="377.71" y1="36.2969" y2="340.9688"/><rect fill="#F5F3E0" height="30.2969" rx="2.5" ry="2.5" style="stroke:#54546D;stroke-width:0.3;" width="47.667" x="120" y="5"/><text fill="#16161D" font-family="sans-serif" font-size="14" lengthAdjust="spacing" textLength="33.667" x="127" y="24.9951">Alice</text><rect fill="#F5F3E0" height="30.2969" rx="2.5" ry="2.5" style="stroke:#54546D;stroke-width:0.3;" width="47.667" x="120" y="339.9688"/><text fill="#16161D" font-family="sans-serif" font-size="14" lengthAdjust="spacing" textLength="33.667" x="127" y="359.9639">Alice</text><rect fill="#F5F3E0" height="30.2969" rx="2.5" ry="2.5" style="stroke:#54546D;stroke-width:0.3;" width="41.0566" x="307.6533" y="5"/><text fill="#16161D" font-family="sans-serif" font-size="14" lengthAdjust="spacing" textLength="27.0566" x="314.6533" y="24.9951">Bob</text><rect fill="#F5F3E0" height="30.2969" rx="2.5" ry="2.5" style="stroke:#54546D;stroke-width:0.3;" width="41.0566" x="307.6533" y="339.9688"/><text fill="#16161D" font-family="sans-serif" font-size="14" lengthAdjust="spacing" textLength="27.0566" x="314.6533" y="359.9639">Bob</text><rect fill="#F5F3E0" height="30.2969" rx="2.5" ry="2.5" style="stroke:#54546D;stroke-width:0.3;" width="39.252" x="358.71" y="5"/><text fill="#16161D" font-family="sans-serif" font-size="14" lengthAdjust="spacing" textLength="25.252" x="365.71" y="24.9951">Log</text><rect fill="#F5F3E0" height="30.2969" rx="2.5" ry="2.5" style="stroke:#54546D;stroke-width:0.3;" width="39.252" x="358.71" y="339.9688"/><text fill="#16161D" font-family="sans-serif" font-size="14" lengthAdjust="spacing" textLength="25.252" x="365.71" y="359.9639">Log</text><polygon fill="#54546D" points="316.1816,66.4297,326.1816,70.4297,316.1816,74.4297,320.1816,70.4297" style="stroke:#54546D;stroke-width:1.0;"/><line style="stroke:#54546D;stroke-width:1.0;" x1="143.8335" x2="322.1816" y1="70.4297" y2="70.4297"/><text fill="#54546D" font-family="sans-serif" font-size="13" lengthAdjust="spacing" textLength="152.9531" x="150.8335" y="65.3638">Authentication Request</text><path d="M5,51.2969 L5,76.2969 L139,76.2969 L139,61.2969 L129,51.2969 L5,51.2969 " fill="#F0EED2" style="stroke:#D27E99;stroke-width:1.0;"/><path d="M129,51.2969 L129,61.2969 L139,61.2969 L129,51.2969 " fill="#F0EED2" style="stroke:#D27E99;stroke-width:1.0;"/><text fill="#16161D" font-family="sans-serif" font-size="13" lengthAdjust="spacing" textLength="113.293" x="11" y="68.3638">this is a first note</text><rect fill="#F0EED2" height="3" style="stroke:#F0EED2;stroke-width:1.0;" width="417.9619" x="0" y="101.9961"/><line style="stroke:#D27E99;stroke-width:0.75;" x1="0" x2="417.9619" y1="101.9961" y2="101.9961"/><line style="stroke:#D27E99;stroke-width:0.75;" x1="0" x2="417.9619" y1="104.9961" y2="104.9961"/><rect fill="#F0EED2" height="23.1328" style="stroke:#D27E99;stroke-width:1.5;" width="97.4082" x="160.2769" y="91.4297"/><text fill="#16161D" font-family="sans-serif" font-size="13" lengthAdjust="spacing" textLength="79.2759" x="166.2769" y="107.4966">Initialization</text><path d="M110,131.5625 L174.4429,131.5625 L174.4429,138.6953 L164.4429,148.6953 L110,148.6953 L110,131.5625 " fill="#957FB8" style="stroke:#957FB8;stroke-width:2.0;"/><rect fill="none" height="192.4063" style="stroke:#957FB8;stroke-width:1.5;" width="297.9619" x="110" y="131.5625"/><text fill="#F5F3E0" font-family="sans-serif" font-size="13" font-weight="bold" lengthAdjust="spacing" textLength="19.4429" x="125" y="144.6294">alt</text><text fill="#16161D" font-family="sans-serif" font-size="11" font-weight="bold" lengthAdjust="spacing" textLength="106.1973" x="189.4429" y="143.7729">[successful case]</text><polygon fill="#54546D" points="154.8335,165.8281,144.8335,169.8281,154.8335,173.8281,150.8335,169.8281" style="stroke:#54546D;stroke-width:1.0;"/><line style="stroke:#54546D;stroke-width:1.0;" x1="148.8335" x2="327.1816" y1="169.8281" y2="169.8281"/><text fill="#54546D" font-family="sans-serif" font-size="13" lengthAdjust="spacing" textLength="160.3481" x="160.8335" y="164.7622">Authentication Accepted</text><line style="stroke:#957FB8;stroke-width:1.0;stroke-dasharray:2.0,2.0;" x1="110" x2="407.9619" y1="178.8281" y2="178.8281"/><text fill="#16161D" font-family="sans-serif" font-size="11" font-weight="bold" lengthAdjust="spacing" textLength="134.1699" x="115" y="189.0386">[some kind of failure]</text><polygon fill="#54546D" points="154.8335,209.7656,144.8335,213.7656,154.8335,217.7656,150.8335,213.7656" style="stroke:#54546D;stroke-width:1.0;"/><line style="stroke:#54546D;stroke-width:1.0;" x1="148.8335" x2="327.1816" y1="213.7656" y2="213.7656"/><text fill="#54546D" font-family="sans-serif" font-size="13" lengthAdjust="spacing" textLength="143.8125" x="160.8335" y="208.6997">Authentication Failure</text><polygon fill="#54546D" points="366.3359,238.8984,376.3359,242.8984,366.3359,246.8984,370.3359,242.8984" style="stroke:#54546D;stroke-width:1.0;"/><line style="stroke:#54546D;stroke-width:1.0;" x1="143.8335" x2="372.3359" y1="242.8984" y2="242.8984"/><text fill="#54546D" font-family="sans-serif" font-size="13" lengthAdjust="spacing" textLength="102.7939" x="150.8335" y="237.8325">Log attack start</text><polygon fill="#54546D" points="366.3359,268.0313,376.3359,272.0313,366.3359,276.0313,370.3359,272.0313" style="stroke:#54546D;stroke-width:1.0;"/><line style="stroke:#54546D;stroke-width:1.0;" x1="143.8335" x2="372.3359" y1="272.0313" y2="272.0313"/><text fill="#54546D" font-family="sans-serif" font-size="13" lengthAdjust="spacing" textLength="97.0049" x="150.8335" y="266.9653">Log attack end</text><line style="stroke:#957FB8;stroke-width:1.0;stroke-dasharray:2.0,2.0;" x1="110" x2="407.9619" y1="281.0313" y2="281.0313"/><text fill="#16161D" font-family="sans-serif" font-size="11" font-weight="bold" lengthAdjust="spacing" textLength="151.9912" x="115" y="291.2417">[Another type of failure]</text><polygon fill="#54546D" points="154.8335,311.9688,144.8335,315.9688,154.8335,319.9688,150.8335,315.9688" style="stroke:#54546D;stroke-width:1.0;"/><line style="stroke:#54546D;stroke-width:1.0;" x1="148.8335" x2="327.1816" y1="315.9688" y2="315.9688"/><text fill="#54546D" font-family="sans-serif" font-size="13" lengthAdjust="spacing" textLength="88.9751" x="160.8335" y="310.9028">Please repeat</text><!--SRC=[ZL3TIiKm3BxlKyGhhpox7qoO5uAe8Fe0adNP5jUriqazwDER7VzGBxIKGfAltq-EuQvqegn52NGY21ndI15w4ixKRxs5t1577qfFCAckKbTLnlrkP9rALuIoJr4fwiwdfRhcUK8EbncVIALQvZvvkL_B4ge3LpLZn17t-5RALpsK1zvjGETavhXYnWKwzFEOKuczJo5bs4-iv5mRs1ESdC9PwcfeYt55PO_AvlsM7Wk9EjSqS15P6GE_l8sQnhcOB6kWGMjBnm9s4GREeh2DdCEW8CLx4XbA08zYJR1ZOflcGVoNQciVLgNUEGf286aXi1Wzf046sqZ9_s4vVqTkmC-GLsc4-l2YgYq4H37h7nYA7rPQYpLH1drUwQURxsPk0bbOoBGIslwCuXK0]--></g></svg>
