<svg xmlns="http://www.w3.org/2000/svg" xmlns:xlink="http://www.w3.org/1999/xlink" contentStyleType="text/css" height="675px" preserveAspectRatio="none" style="width:928px;height:675px;background:#303446;" version="1.1" viewBox="0 0 928 675" width="928px" zoomAndPan="magnify"><title>Database Entities</title><defs/><g><rect fill="#303446" height="675" style="stroke:none;stroke-width:1.0;" width="928" x="0" y="0"/><text fill="#C6D0F5" font-family="sans-serif" font-size="14" font-weight="bold" lengthAdjust="spacing" textLength="139.7197" x="386.6401" y="22.9951">Database Entities</text><!--cluster auth_models--><g id="cluster_auth_models"><path d="M238.5,437.2569 L407.5215,437.2569 A11.25,11.25 0 0 1 415.0215,444.7569 L422.0215,459.5538 L591.5,459.5538 A7.5,7.5 0 0 1 599,467.0538 L599,659.1369 A7.5,7.5 0 0 1 591.5,666.6369 L238.5,666.6369 A7.5,7.5 0 0 1 231,659.1369 L231,444.7569 A7.5,7.5 0 0 1 238.5,437.2569 " fill="#303446" style="stroke:#EA999C;stroke-width:1.0;"/><line style="stroke:#EA999C;stroke-width:1.0;" x1="231" x2="422.0215" y1="459.5538" y2="459.5538"/><text fill="#EA999C" font-family="sans-serif" font-size="14" font-weight="bold" lengthAdjust="spacing" textLength="178.0215" x="235" y="452.252">authentication.models</text></g><!--cluster projects--><g id="cluster_projects"><path d="M13.5,43.2969 L130.835,43.2969 A11.25,11.25 0 0 1 138.335,50.7969 L145.335,65.5938 L258.5,65.5938 A7.5,7.5 0 0 1 266,73.0938 L266,397.6169 A7.5,7.5 0 0 1 258.5,405.1169 L13.5,405.1169 A7.5,7.5 0 0 1 6,397.6169 L6,50.7969 A7.5,7.5 0 0 1 13.5,43.2969 " fill="#303446" style="stroke:#EA999C;stroke-width:1.0;"/><line style="stroke:#EA999C;stroke-width:1.0;" x1="6" x2="145.335" y1="65.5938" y2="65.5938"/><text fill="#EA999C" font-family="sans-serif" font-size="14" font-weight="bold" lengthAdjust="spacing" textLength="126.335" x="10" y="58.292">projects.models</text></g><!--cluster user_cards--><g id="cluster_user_cards"><path d="M297.5,216.4769 L435.377,216.4769 A11.25,11.25 0 0 1 442.877,223.9769 L449.877,238.7738 L532.5,238.7738 A7.5,7.5 0 0 1 540,246.2738 L540,405.7569 A7.5,7.5 0 0 1 532.5,413.2569 L297.5,413.2569 A7.5,7.5 0 0 1 290,405.7569 L290,223.9769 A7.5,7.5 0 0 1 297.5,216.4769 " fill="#303446" style="stroke:#EA999C;stroke-width:1.0;"/><line style="stroke:#EA999C;stroke-width:1.0;" x1="290" x2="449.877" y1="238.7738" y2="238.7738"/><text fill="#EA999C" font-family="sans-serif" font-size="14" font-weight="bold" lengthAdjust="spacing" textLength="146.877" x="294" y="231.472">user_cards.models</text></g><!--cluster user_devices--><g id="cluster_user_devices"><path d="M571.5,232.7769 L725.9404,232.7769 A11.25,11.25 0 0 1 733.4404,240.2769 L740.4404,255.0738 L912.5,255.0738 A7.5,7.5 0 0 1 920,262.5738 L920,389.4669 A7.5,7.5 0 0 1 912.5,396.9669 L571.5,396.9669 A7.5,7.5 0 0 1 564,389.4669 L564,240.2769 A7.5,7.5 0 0 1 571.5,232.7769 " fill="#303446" style="stroke:#EA999C;stroke-width:1.0;"/><line style="stroke:#EA999C;stroke-width:1.0;" x1="564" x2="740.4404" y1="255.0738" y2="255.0738"/><text fill="#EA999C" font-family="sans-serif" font-size="14" font-weight="bold" lengthAdjust="spacing" textLength="163.4404" x="568" y="247.772">user_devices.models</text></g><!--class User--><g id="elem_User"><rect codeLine="9" fill="#292C3C" height="178.375" id="User" rx="7.5" ry="7.5" style="stroke:#B5BFE2;stroke-width:0.5;" width="336.8232" x="246.59" y="472.2569"/><ellipse cx="394.7965" cy="488.2569" fill="#E5C890" rx="11" ry="11" style="stroke:#B5BFE2;stroke-width:1.0;"/><path d="M398.9059,494.2569 L391.1872,494.2569 L391.1872,481.8663 L398.9059,481.8663 L398.9059,484.0225 L393.6403,484.0225 L393.6403,486.6944 L398.4059,486.6944 L398.4059,488.8506 L393.6403,488.8506 L393.6403,492.1006 L398.9059,492.1006 L398.9059,494.2569 Z " fill="#05091A"/><text fill="#C6D0F5" font-family="sans-serif" font-size="14" lengthAdjust="spacing" textLength="31.9102" x="415.2965" y="493.1036">User</text><line style="stroke:#B5BFE2;stroke-width:0.5;" x1="247.59" x2="582.4132" y1="504.2569" y2="504.2569"/><ellipse cx="257.59" cy="517.9053" fill="#EEBEBE" rx="3" ry="3" style="stroke:#EEBEBE;stroke-width:1.0;"/><text fill="#C6D0F5" font-family="sans-serif" font-size="14" lengthAdjust="spacing" textLength="86.1807" x="266.59" y="521.252">id: INT&lt;PK&gt;</text><line style="stroke:#B5BFE2;stroke-width:1.0;stroke-dasharray:1.0,2.0;" x1="247.59" x2="582.4132" y1="528.5538" y2="528.5538"/><ellipse cx="257.59" cy="542.2022" fill="#EEBEBE" rx="3" ry="3" style="stroke:#EEBEBE;stroke-width:1.0;"/><text fill="#C6D0F5" font-family="sans-serif" font-size="14" lengthAdjust="spacing" textLength="310.8232" x="266.59" y="545.5489">email: VARCHAR&lt;unique, case_insensitive&gt;</text><ellipse cx="257.59" cy="558.4991" fill="#EEBEBE" rx="3" ry="3" style="stroke:#EEBEBE;stroke-width:1.0;"/><text fill="#C6D0F5" font-family="sans-serif" font-size="14" lengthAdjust="spacing" textLength="217.3965" x="266.59" y="561.8457">password: VARCHAR&lt;argon2&gt;</text><ellipse cx="257.59" cy="574.7959" fill="#EEBEBE" rx="3" ry="3" style="stroke:#EEBEBE;stroke-width:1.0;"/><text fill="#C6D0F5" font-family="sans-serif" font-size="14" lengthAdjust="spacing" textLength="126.9092" x="266.59" y="578.1426">is_staff: BOOLEAN</text><ellipse cx="257.59" cy="591.0928" fill="#EEBEBE" rx="3" ry="3" style="stroke:#EEBEBE;stroke-width:1.0;"/><text fill="#C6D0F5" font-family="sans-serif" font-size="14" lengthAdjust="spacing" textLength="165.6484" x="266.59" y="594.4395">is_superuser: BOOLEAN</text><ellipse cx="257.59" cy="607.3897" fill="#EEBEBE" rx="3" ry="3" style="stroke:#EEBEBE;stroke-width:1.0;"/><text fill="#C6D0F5" font-family="sans-serif" font-size="14" lengthAdjust="spacing" textLength="138.2432" x="266.59" y="610.7364">is_active: BOOLEAN</text><ellipse cx="257.59" cy="623.6866" fill="#EEBEBE" rx="3" ry="3" style="stroke:#EEBEBE;stroke-width:1.0;"/><text fill="#C6D0F5" font-family="sans-serif" font-size="14" lengthAdjust="spacing" textLength="177.7344" x="266.59" y="627.0332">last_login_at: TIMESTAMP</text><ellipse cx="257.59" cy="639.9834" fill="#EEBEBE" rx="3" ry="3" style="stroke:#EEBEBE;stroke-width:1.0;"/><text fill="#C6D0F5" font-family="sans-serif" font-size="14" lengthAdjust="spacing" textLength="165.0127" x="266.59" y="643.3301">created_at: TIMESTAMP</text></g><!--class Project--><g id="elem_Project"><rect codeLine="23" fill="#292C3C" height="129.4844" id="Project" rx="7.5" ry="7.5" style="stroke:#B5BFE2;stroke-width:0.5;" width="227.8447" x="22.08" y="259.6269"/><ellipse cx="107.5258" cy="275.6269" fill="#E5C890" rx="11" ry="11" style="stroke:#B5BFE2;stroke-width:1.0;"/><path d="M111.6352,281.6269 L103.9164,281.6269 L103.9164,269.2363 L111.6352,269.2363 L111.6352,271.3925 L106.3696,271.3925 L106.3696,274.0644 L111.1352,274.0644 L111.1352,276.2206 L106.3696,276.2206 L106.3696,279.4706 L111.6352,279.4706 L111.6352,281.6269 Z " fill="#05091A"/><text fill="#C6D0F5" font-family="sans-serif" font-size="14" lengthAdjust="spacing" textLength="48.4531" x="128.0258" y="280.4736">Project</text><line style="stroke:#B5BFE2;stroke-width:0.5;" x1="23.08" x2="248.9247" y1="291.6269" y2="291.6269"/><ellipse cx="33.08" cy="305.2753" fill="#EEBEBE" rx="3" ry="3" style="stroke:#EEBEBE;stroke-width:1.0;"/><text fill="#C6D0F5" font-family="sans-serif" font-size="14" lengthAdjust="spacing" textLength="86.1807" x="42.08" y="308.622">id: INT&lt;PK&gt;</text><line style="stroke:#B5BFE2;stroke-width:1.0;stroke-dasharray:1.0,2.0;" x1="23.08" x2="248.9247" y1="315.9238" y2="315.9238"/><ellipse cx="33.08" cy="329.5722" fill="#EEBEBE" rx="3" ry="3" style="stroke:#EEBEBE;stroke-width:1.0;"/><text fill="#C6D0F5" font-family="sans-serif" font-size="14" lengthAdjust="spacing" textLength="103.5508" x="42.08" y="332.9189">user: INT&lt;FK&gt;</text><ellipse cx="33.08" cy="345.8691" fill="#EEBEBE" rx="3" ry="3" style="stroke:#EEBEBE;stroke-width:1.0;"/><text fill="#C6D0F5" font-family="sans-serif" font-size="14" lengthAdjust="spacing" textLength="117.3594" x="42.08" y="349.2157">name: VARCHAR</text><ellipse cx="33.08" cy="362.1659" fill="#EEBEBE" rx="3" ry="3" style="stroke:#EEBEBE;stroke-width:1.0;"/><text fill="#C6D0F5" font-family="sans-serif" font-size="14" lengthAdjust="spacing" textLength="201.8447" x="42.08" y="365.5126">last_updated_at: TIMESTAMP</text><ellipse cx="33.08" cy="378.4628" fill="#EEBEBE" rx="3" ry="3" style="stroke:#EEBEBE;stroke-width:1.0;"/><text fill="#C6D0F5" font-family="sans-serif" font-size="14" lengthAdjust="spacing" textLength="165.0127" x="42.08" y="381.8095">created_at: TIMESTAMP</text></g><!--class UML--><g id="elem_UML"><rect codeLine="31" fill="#292C3C" height="113.1875" id="UML" rx="7.5" ry="7.5" style="stroke:#B5BFE2;stroke-width:0.5;" width="147.9121" x="62.04" y="78.2969"/><ellipse cx="116.6831" cy="94.2969" fill="#E5C890" rx="11" ry="11" style="stroke:#B5BFE2;stroke-width:1.0;"/><path d="M120.7924,100.2969 L113.0737,100.2969 L113.0737,87.9063 L120.7924,87.9063 L120.7924,90.0625 L115.5268,90.0625 L115.5268,92.7344 L120.2924,92.7344 L120.2924,94.8906 L115.5268,94.8906 L115.5268,98.1406 L120.7924,98.1406 L120.7924,100.2969 Z " fill="#05091A"/><text fill="#C6D0F5" font-family="sans-serif" font-size="14" lengthAdjust="spacing" textLength="30.126" x="137.1831" y="99.1436">UML</text><line style="stroke:#B5BFE2;stroke-width:0.5;" x1="63.04" x2="208.9521" y1="110.2969" y2="110.2969"/><ellipse cx="73.04" cy="123.9453" fill="#EEBEBE" rx="3" ry="3" style="stroke:#EEBEBE;stroke-width:1.0;"/><text fill="#C6D0F5" font-family="sans-serif" font-size="14" lengthAdjust="spacing" textLength="86.1807" x="82.04" y="127.292">id: INT&lt;PK&gt;</text><line style="stroke:#B5BFE2;stroke-width:1.0;stroke-dasharray:1.0,2.0;" x1="63.04" x2="208.9521" y1="134.5938" y2="134.5938"/><ellipse cx="73.04" cy="148.2422" fill="#EEBEBE" rx="3" ry="3" style="stroke:#EEBEBE;stroke-width:1.0;"/><text fill="#C6D0F5" font-family="sans-serif" font-size="14" lengthAdjust="spacing" textLength="121.9121" x="82.04" y="151.5889">project: INT&lt;FK&gt;</text><ellipse cx="73.04" cy="164.5391" fill="#EEBEBE" rx="3" ry="3" style="stroke:#EEBEBE;stroke-width:1.0;"/><text fill="#C6D0F5" font-family="sans-serif" font-size="14" lengthAdjust="spacing" textLength="105.6904" x="82.04" y="167.8857">c4_type: ENUM</text><ellipse cx="73.04" cy="180.8359" fill="#EEBEBE" rx="3" ry="3" style="stroke:#EEBEBE;stroke-width:1.0;"/><text fill="#C6D0F5" font-family="sans-serif" font-size="14" lengthAdjust="spacing" textLength="102.9219" x="82.04" y="184.1826">diagram: TEXT</text></g><!--class Card--><g id="elem_Card"><rect codeLine="43" fill="#292C3C" height="145.7813" id="Card" rx="7.5" ry="7.5" style="stroke:#B5BFE2;stroke-width:0.5;" width="217.6729" x="306.16" y="251.4769"/><ellipse cx="394.2479" cy="267.4769" fill="#E5C890" rx="11" ry="11" style="stroke:#B5BFE2;stroke-width:1.0;"/><path d="M398.3573,273.4769 L390.6385,273.4769 L390.6385,261.0863 L398.3573,261.0863 L398.3573,263.2425 L393.0916,263.2425 L393.0916,265.9144 L397.8573,265.9144 L397.8573,268.0706 L393.0916,268.0706 L393.0916,271.3206 L398.3573,271.3206 L398.3573,273.4769 Z " fill="#05091A"/><text fill="#C6D0F5" font-family="sans-serif" font-size="14" lengthAdjust="spacing" textLength="32.9971" x="414.7479" y="272.3236">Card</text><line style="stroke:#B5BFE2;stroke-width:0.5;" x1="307.16" x2="522.8329" y1="283.4769" y2="283.4769"/><ellipse cx="317.16" cy="297.1253" fill="#EEBEBE" rx="3" ry="3" style="stroke:#EEBEBE;stroke-width:1.0;"/><text fill="#C6D0F5" font-family="sans-serif" font-size="14" lengthAdjust="spacing" textLength="86.1807" x="326.16" y="300.472">id: INT&lt;PK&gt;</text><line style="stroke:#B5BFE2;stroke-width:1.0;stroke-dasharray:1.0,2.0;" x1="307.16" x2="522.8329" y1="307.7738" y2="307.7738"/><ellipse cx="317.16" cy="321.4222" fill="#EEBEBE" rx="3" ry="3" style="stroke:#EEBEBE;stroke-width:1.0;"/><text fill="#C6D0F5" font-family="sans-serif" font-size="14" lengthAdjust="spacing" textLength="103.5508" x="326.16" y="324.7689">user: INT&lt;FK&gt;</text><ellipse cx="317.16" cy="337.7191" fill="#EEBEBE" rx="3" ry="3" style="stroke:#EEBEBE;stroke-width:1.0;"/><text fill="#C6D0F5" font-family="sans-serif" font-size="14" lengthAdjust="spacing" textLength="164.2334" x="326.16" y="341.0657">stripe_token: VARCHAR</text><text fill="#C6D0F5" font-family="sans-serif" font-size="14" lengthAdjust="spacing" textLength="117.3594" x="326.16" y="357.3626">name: VARCHAR</text><text fill="#C6D0F5" font-family="sans-serif" font-size="14" lengthAdjust="spacing" textLength="191.6729" x="326.16" y="373.6595">last_numbers: VARCHAR(4)</text><ellipse cx="317.16" cy="386.6097" fill="#EEBEBE" rx="3" ry="3" style="stroke:#EEBEBE;stroke-width:1.0;"/><text fill="#C6D0F5" font-family="sans-serif" font-size="14" lengthAdjust="spacing" textLength="165.0127" x="326.16" y="389.9564">created_at: TIMESTAMP</text></g><!--class PhoneDevice--><g id="elem_PhoneDevice"><rect codeLine="56" fill="#292C3C" height="113.1875" id="PhoneDevice" rx="7.5" ry="7.5" style="stroke:#B5BFE2;stroke-width:0.5;" width="324.1016" x="579.95" y="267.7769"/><ellipse cx="692.1277" cy="283.7769" fill="#E5C890" rx="11" ry="11" style="stroke:#B5BFE2;stroke-width:1.0;"/><path d="M696.2371,289.7769 L688.5184,289.7769 L688.5184,277.3863 L696.2371,277.3863 L696.2371,279.5425 L690.9715,279.5425 L690.9715,282.2144 L695.7371,282.2144 L695.7371,284.3706 L690.9715,284.3706 L690.9715,287.6206 L696.2371,287.6206 L696.2371,289.7769 Z " fill="#05091A"/><text fill="#C6D0F5" font-family="sans-serif" font-size="14" lengthAdjust="spacing" textLength="91.2461" x="712.6277" y="288.6236">PhoneDevice</text><line style="stroke:#B5BFE2;stroke-width:0.5;" x1="580.95" x2="903.0516" y1="299.7769" y2="299.7769"/><ellipse cx="590.95" cy="313.4253" fill="#EEBEBE" rx="3" ry="3" style="stroke:#EEBEBE;stroke-width:1.0;"/><text fill="#C6D0F5" font-family="sans-serif" font-size="14" lengthAdjust="spacing" textLength="86.1807" x="599.95" y="316.772">id: INT&lt;PK&gt;</text><line style="stroke:#B5BFE2;stroke-width:1.0;stroke-dasharray:1.0,2.0;" x1="580.95" x2="903.0516" y1="324.0738" y2="324.0738"/><ellipse cx="590.95" cy="337.7222" fill="#EEBEBE" rx="3" ry="3" style="stroke:#EEBEBE;stroke-width:1.0;"/><text fill="#C6D0F5" font-family="sans-serif" font-size="14" lengthAdjust="spacing" textLength="160.46" x="599.95" y="341.0689">user: INT&lt;FK, unique&gt;</text><ellipse cx="590.95" cy="354.0191" fill="#EEBEBE" rx="3" ry="3" style="stroke:#EEBEBE;stroke-width:1.0;"/><text fill="#C6D0F5" font-family="sans-serif" font-size="14" lengthAdjust="spacing" textLength="298.1016" x="599.95" y="357.3657">phone_number: VARCHAR&lt;unique=True&gt;</text><ellipse cx="590.95" cy="370.3159" fill="#EEBEBE" rx="3" ry="3" style="stroke:#EEBEBE;stroke-width:1.0;"/><text fill="#C6D0F5" font-family="sans-serif" font-size="14" lengthAdjust="spacing" textLength="153.125" x="599.95" y="373.6626">secret_key: VARCHAR</text></g><!--link UML to Project--><g id="link_UML_Project"><path codeLine="38" d="M136,199.7369 C136,220.9969 136,229.2969 136,251.2469 " fill="none" id="UML-Project" style="stroke:#B5BFE2;stroke-width:1.0;"/><line style="stroke:#B5BFE2;stroke-width:1.0;" x1="136" x2="128" y1="199.7369" y2="191.7369"/><line style="stroke:#B5BFE2;stroke-width:1.0;" x1="136" x2="144" y1="199.7369" y2="191.7369"/><line style="stroke:#B5BFE2;stroke-width:1.0;" x1="136" x2="136" y1="199.7369" y2="191.7369"/><line style="stroke:#B5BFE2;stroke-width:1.0;" x1="140" x2="132" y1="255.2469" y2="255.2469"/><line style="stroke:#B5BFE2;stroke-width:1.0;" x1="140" x2="132" y1="252.2469" y2="252.2469"/><line style="stroke:#B5BFE2;stroke-width:1.0;" x1="136" x2="136" y1="251.2469" y2="259.2469"/></g><!--link Project to User--><g id="link_Project_User"><path codeLine="39" d="M268.32,324.6369 C284.65,324.6369 278.04,324.6369 278.04,324.6369 C278.04,324.6369 278.04,396.8569 278.04,463.9169 " fill="none" id="Project-User" style="stroke:#B5BFE2;stroke-width:1.0;"/><line style="stroke:#B5BFE2;stroke-width:1.0;" x1="258.32" x2="250.32" y1="324.6369" y2="330.6369"/><line style="stroke:#B5BFE2;stroke-width:1.0;" x1="258.32" x2="250.32" y1="324.6369" y2="318.6369"/><line style="stroke:#B5BFE2;stroke-width:1.0;" x1="258.32" x2="250.32" y1="324.6369" y2="324.6369"/><ellipse cx="264.32" cy="324.6369" fill="none" rx="4" ry="4" style="stroke:#B5BFE2;stroke-width:1.0;"/><line style="stroke:#B5BFE2;stroke-width:1.0;" x1="282.04" x2="274.04" y1="467.9169" y2="467.9169"/><line style="stroke:#B5BFE2;stroke-width:1.0;" x1="282.04" x2="274.04" y1="464.9169" y2="464.9169"/><line style="stroke:#B5BFE2;stroke-width:1.0;" x1="278.04" x2="278.04" y1="463.9169" y2="471.9169"/></g><!--link Card to User--><g id="link_Card_User"><path codeLine="52" d="M415,415.7569 C415,439.2869 415,439.6069 415,464.1369 " fill="none" id="Card-User" style="stroke:#B5BFE2;stroke-width:1.0;"/><line style="stroke:#B5BFE2;stroke-width:1.0;" x1="415" x2="409" y1="405.7569" y2="397.7569"/><line style="stroke:#B5BFE2;stroke-width:1.0;" x1="415" x2="421" y1="405.7569" y2="397.7569"/><line style="stroke:#B5BFE2;stroke-width:1.0;" x1="415" x2="415" y1="405.7569" y2="397.7569"/><ellipse cx="415" cy="411.7569" fill="none" rx="4" ry="4" style="stroke:#B5BFE2;stroke-width:1.0;"/><line style="stroke:#B5BFE2;stroke-width:1.0;" x1="419" x2="411" y1="468.1369" y2="468.1369"/><line style="stroke:#B5BFE2;stroke-width:1.0;" x1="419" x2="411" y1="465.1369" y2="465.1369"/><line style="stroke:#B5BFE2;stroke-width:1.0;" x1="415" x2="415" y1="464.1369" y2="472.1369"/></g><!--link PhoneDevice to User--><g id="link_PhoneDevice_User"><path codeLine="64" d="M564.54,324.6369 C547.86,324.6369 551.89,324.6369 551.89,324.6369 C551.89,324.6369 551.89,396.8569 551.89,463.9169 " fill="none" id="PhoneDevice-User" style="stroke:#B5BFE2;stroke-width:1.0;"/><line style="stroke:#B5BFE2;stroke-width:1.0;" x1="568.54" x2="579.54" y1="324.6369" y2="324.6369"/><ellipse cx="568.54" cy="324.6369" fill="none" rx="4" ry="4" style="stroke:#B5BFE2;stroke-width:1.0;"/><line style="stroke:#B5BFE2;stroke-width:1.0;" x1="575.54" x2="575.54" y1="320.6369" y2="328.6369"/><line style="stroke:#B5BFE2;stroke-width:1.0;" x1="555.89" x2="547.89" y1="467.9169" y2="467.9169"/><line style="stroke:#B5BFE2;stroke-width:1.0;" x1="555.89" x2="547.89" y1="464.9169" y2="464.9169"/><line style="stroke:#B5BFE2;stroke-width:1.0;" x1="551.89" x2="551.89" y1="463.9169" y2="471.9169"/></g><!--SRC=[hLHRRzCm67tFh_Ze2r1jYOJs50saiXKnRUsghKEyHQxzjJ59REDBfshjVyTEUabO6HeYBqdF-UoSYzEtSEzcndBhB8BD4Kek2f0261gkaGMimkWD5xHq326tLfaqIJHvZ1VSvcxc36egXKLXOoghPCIBdF3oMfCbMfDK1PFKPCfLPJ97Oft6fDxJx6wKMAKSfLmaSqsKmZWCHv4NLIBqBeabCs8GXi8Z74qlYap1XIAQL44ksfL2aDhcCeeKeGLP-6N4-Utz2hyxboAk9CFIz80O24pM_7wAm5zXpAxWmHjfW73rEKlXQZmzdrn_seDnVE2nyYvJ-3Quk_Wwk3jtWlzqU0BKIysuC2YCLxl4m-A-8iOyIiqEYuXUIF6XDS9DPYoPprFuV7jxCnoCkvHJg4FUnsb2mmkFS2KnDYlbWekCs1IcLwFX_NGmcXmcgFRL83j2Rw9DArMbvG-arhJpt66TC2SDsCeJ_XOeDCx2o9VMI1y4gN2VMGklRJd5_g2y6Nh9MRlyqSshj6vD7vDBpx9m8bCOZXz6BPnnil17riiOVf-s5FXNm-RqTBtUXLQZssVOo9eAXxFJH0WheqIpJXS7jDF6XKV-InN6Qgumix90yRoIuqNLDGbNpL2RFVlkxFqhIWhwNqw2uP9JV9x55k-UpLmAlAo9Vmxb19eFlXsE2ljkdVx-n_1nghl31hrfcnMuwYRcdTNr7pJ2kcty5m00]--></g></svg>
