<svg width="105" height="105" viewBox="0 0 105 105" fill="none" xmlns="http://www.w3.org/2000/svg">
<path d="M2.83019 50C1.26712 50 0 48.7329 0 47.1698L0 30.1887C0 13.5159 13.5159 0 30.1887 0C31.189 0 32 0.810955 32 1.81132V47C32 48.6569 30.6569 50 29 50H2.83019Z" fill="white"/>
<rect x="36.5" y="50" width="50" height="32" rx="3" transform="rotate(-90 36.5 50)" fill="white"/>
<rect x="36.5" y="105" width="50" height="32" rx="3" transform="rotate(-90 36.5 105)" fill="white"/>
<path d="M74.8113 105C73.811 105 73 104.189 73 103.189V58C73 56.3431 74.3431 55 76 55H102.17C103.733 55 105 56.2671 105 57.8302V74.8113C105 91.4841 91.4841 105 74.8113 105Z" fill="white"/>
<circle cx="88.5" cy="24.5" r="15.5" transform="rotate(-90 88.5 24.5)" fill="white"/>
<path d="M16.5 64C25.0604 64 32 70.9396 32 79.5C32 88.0604 25.0604 95 16.5 95C7.93959 95 1 88.0604 1 79.5C1 70.9396 7.93959 64 16.5 64Z" fill="white"/>
</svg>
