<svg xmlns="http://www.w3.org/2000/svg" xmlns:xlink="http://www.w3.org/1999/xlink" contentStyleType="text/css" height="196px" preserveAspectRatio="none" style="width:367px;height:196px;background:#1F1F28;" version="1.1" viewBox="0 0 367 196" width="367px" zoomAndPan="magnify"><defs/><g><rect fill="#1F1F28" height="196" style="stroke:none;stroke-width:1.0;" width="367" x="0" y="0"/><ellipse cx="183.7734" cy="20" fill="#DCA561" rx="10" ry="10" style="stroke:#16161D;stroke-width:1.0;"/><rect fill="#E46876" height="6" rx="2.5" ry="2.5" style="stroke:#E46876;stroke-width:1.0;" width="345.5469" x="11" y="50"/><rect fill="#16161D" height="33.9688" rx="7.5" ry="7.5" style="stroke:#658594;stroke-width:1.0;" width="68.3867" x="23" y="76"/><text fill="#DCD7BA" font-family="sans-serif" font-size="12" lengthAdjust="spacing" textLength="48.3867" x="33" y="97.1387">action 1</text><rect fill="#16161D" height="33.9688" rx="7.5" ry="7.5" style="stroke:#658594;stroke-width:1.0;" width="68.3867" x="101.3867" y="76"/><text fill="#DCD7BA" font-family="sans-serif" font-size="12" lengthAdjust="spacing" textLength="48.3867" x="111.3867" y="97.1387">action 2</text><rect fill="#16161D" height="33.9688" rx="7.5" ry="7.5" style="stroke:#658594;stroke-width:1.0;" width="68.3867" x="197.7734" y="76"/><text fill="#DCD7BA" font-family="sans-serif" font-size="12" lengthAdjust="spacing" textLength="48.3867" x="207.7734" y="97.1387">action 3</text><rect fill="#16161D" height="33.9688" rx="7.5" ry="7.5" style="stroke:#658594;stroke-width:1.0;" width="68.3867" x="276.1602" y="76"/><text fill="#DCD7BA" font-family="sans-serif" font-size="12" lengthAdjust="spacing" textLength="48.3867" x="286.1602" y="97.1387">action 4</text><polygon fill="#16161D" points="183.7734,119.9688,195.7734,131.9688,183.7734,143.9688,171.7734,131.9688,183.7734,119.9688" style="stroke:#658594;stroke-width:1.0;"/><ellipse cx="183.7734" cy="174.9688" fill="none" rx="11" ry="11" style="stroke:#DCA561;stroke-width:1.0;"/><ellipse cx="183.7734" cy="174.9688" fill="#DCA561" rx="6" ry="6" style="stroke:#DCA561;stroke-width:1.0;"/><line style="stroke:#658594;stroke-width:1.0;" x1="57.1934" x2="57.1934" y1="56" y2="76"/><polygon fill="#658594" points="53.1934,66,57.1934,76,61.1934,66,57.1934,70" style="stroke:#658594;stroke-width:1.0;"/><line style="stroke:#658594;stroke-width:1.0;" x1="135.5801" x2="135.5801" y1="56" y2="76"/><polygon fill="#658594" points="131.5801,66,135.5801,76,139.5801,66,135.5801,70" style="stroke:#658594;stroke-width:1.0;"/><line style="stroke:#658594;stroke-width:1.0;" x1="231.9668" x2="231.9668" y1="56" y2="76"/><polygon fill="#658594" points="227.9668,66,231.9668,76,235.9668,66,231.9668,70" style="stroke:#658594;stroke-width:1.0;"/><line style="stroke:#658594;stroke-width:1.0;" x1="310.3535" x2="310.3535" y1="56" y2="76"/><polygon fill="#658594" points="306.3535,66,310.3535,76,314.3535,66,310.3535,70" style="stroke:#658594;stroke-width:1.0;"/><line style="stroke:#658594;stroke-width:1.0;" x1="57.1934" x2="57.1934" y1="109.9688" y2="131.9688"/><line style="stroke:#658594;stroke-width:1.0;" x1="57.1934" x2="171.7734" y1="131.9688" y2="131.9688"/><polygon fill="#658594" points="161.7734,127.9688,171.7734,131.9688,161.7734,135.9688,165.7734,131.9688" style="stroke:#658594;stroke-width:1.0;"/><line style="stroke:#658594;stroke-width:1.0;" x1="135.5801" x2="135.5801" y1="109.9688" y2="131.9688"/><line style="stroke:#658594;stroke-width:1.0;" x1="135.5801" x2="171.7734" y1="131.9688" y2="131.9688"/><polygon fill="#658594" points="161.7734,127.9688,171.7734,131.9688,161.7734,135.9688,165.7734,131.9688" style="stroke:#658594;stroke-width:1.0;"/><line style="stroke:#658594;stroke-width:1.0;" x1="231.9668" x2="231.9668" y1="109.9688" y2="131.9688"/><line style="stroke:#658594;stroke-width:1.0;" x1="231.9668" x2="195.7734" y1="131.9688" y2="131.9688"/><polygon fill="#658594" points="205.7734,127.9688,195.7734,131.9688,205.7734,135.9688,201.7734,131.9688" style="stroke:#658594;stroke-width:1.0;"/><line style="stroke:#658594;stroke-width:1.0;" x1="310.3535" x2="310.3535" y1="109.9688" y2="131.9688"/><line style="stroke:#658594;stroke-width:1.0;" x1="310.3535" x2="195.7734" y1="131.9688" y2="131.9688"/><polygon fill="#658594" points="205.7734,127.9688,195.7734,131.9688,205.7734,135.9688,201.7734,131.9688" style="stroke:#658594;stroke-width:1.0;"/><line style="stroke:#658594;stroke-width:1.0;" x1="183.7734" x2="183.7734" y1="30" y2="50"/><polygon fill="#658594" points="179.7734,40,183.7734,50,187.7734,40,183.7734,44" style="stroke:#658594;stroke-width:1.0;"/><line style="stroke:#658594;stroke-width:1.0;" x1="183.7734" x2="183.7734" y1="143.9688" y2="163.9688"/><polygon fill="#658594" points="179.7734,153.9688,183.7734,163.9688,187.7734,153.9688,183.7734,157.9688" style="stroke:#658594;stroke-width:1.0;"/><!--SRC=[TOrB3W8X40Ntd08l0F6pcZc2yGoc1reWG3E1nhc-g0lTpB8gzV8EWKpg5gLdNjkaTOLDkS2-BxrXDOKOYPKfMTz2z13IjS8JkUaSRJ7jllQSD7lCg2CGEDZWY-t7srYeToX4OwWi7gL68UK4XaCXUPm_Heuwq9y_xVZpZh_C0idAZDNXU2hh2m00]--></g></svg>
